<svg width="1581" height="183" viewBox="0 0 1581 183" fill="none" xmlns="http://www.w3.org/2000/svg">
<path d="M39.25 144.5V0.124994H0.75V183H145.125V144.5H39.25ZM172.894 1.49999V8.65V40H335.144V1.49999H172.894ZM211.394 105.45H318.919V66.95H211.394L172.894 66.675V144.5V151.65V183H335.144V144.5H211.394V105.45ZM362.36 172.275L356.585 183H404.985L406.91 179.425L446.235 108.2L422.035 64.75L362.36 172.275ZM560.91 172.275L483.91 33.4L467.96 4.8L466.31 0.949983H456.96L455.035 4.8L439.36 33.4L437.435 36.975L461.635 80.7L462.185 81.8L480.06 113.975L516.36 179.425L518.285 183H566.685L560.91 172.275ZM752.785 79.875C749.76 58.425 739.31 38.625 723.085 24.325C708.235 11.125 689.26 3.14999 669.735 1.77499L588.885 1.49999V40H665.06C667.81 40.275 670.56 40.55 673.035 41.1C680.735 42.75 687.885 46.05 694.21 50.725C704.66 58.425 711.535 69.7 714.285 82.35C714.835 85.65 715.11 89.225 715.11 92.525C715.11 96.375 714.835 99.95 714.01 103.525C709.61 124.7 692.285 141.2 670.835 144.5H627.385V66.95H588.885V183H673.31H673.86C714.285 178.05 747.01 146.425 752.785 106C753.335 101.6 753.885 97.2 753.885 92.525C753.885 88.4 753.61 84 752.785 79.875ZM756.867 172.275L751.092 183H799.492L801.417 179.425L840.742 108.2L816.542 64.75L756.867 172.275ZM955.417 172.275L878.417 33.4L862.467 4.8L860.817 0.949983H851.467L849.542 4.8L833.867 33.4L831.942 36.975L856.142 80.7L856.692 81.8L874.567 113.975L910.867 179.425L912.792 183H961.192L955.417 172.275ZM1147.29 79.875C1144.27 58.425 1133.82 38.625 1117.59 24.325C1102.74 11.125 1083.77 3.14999 1064.24 1.77499L983.392 1.49999V40H1059.57C1062.32 40.275 1065.07 40.55 1067.54 41.1C1075.24 42.75 1082.39 46.05 1088.72 50.725C1099.17 58.425 1106.04 69.7 1108.79 82.35C1109.34 85.65 1109.62 89.225 1109.62 92.525C1109.62 96.375 1109.34 99.95 1108.52 103.525C1104.12 124.7 1086.79 141.2 1065.34 144.5H1021.89V66.95H983.392V183H1067.82H1068.37C1108.79 178.05 1141.52 146.425 1147.29 106C1147.84 101.6 1148.39 97.2 1148.39 92.525C1148.39 88.4 1148.12 84 1147.29 79.875ZM1175.95 183H1214.45V121.675L1175.95 83.175V183ZM1331.05 0.124994L1258.17 73L1222.15 36.975L1185.3 0.124994H1175.95V45.225L1214.45 83.725L1232.32 101.6L1258.17 127.45L1263.4 122.5L1270.27 115.35L1272.47 113.15L1280.45 105.45L1300.8 84.825V183H1339.3V0.124994H1331.05ZM1367.42 1.225V183H1405.92V1.225H1367.42ZM1433.49 183H1471.99V121.675L1433.49 83.175V183ZM1542.11 1.225V99.125L1442.84 0.124994H1433.49V4.8V22.125V45.225L1471.99 83.725L1498.39 110.125L1544.04 155.775L1571.26 183H1580.61V1.225H1542.11Z" fill="url(#paint0_linear_304_2)"/>
<defs>
<linearGradient id="paint0_linear_304_2" x1="-13" y1="-33" x2="365.816" y2="765.853" gradientUnits="userSpaceOnUse">
<stop stop-color="#B00AFF"/>
<stop offset="1" stop-color="#FF0961"/>
</linearGradient>
</defs>
</svg>
