<svg width="121" height="28" viewBox="0 0 121 28" fill="none" xmlns="http://www.w3.org/2000/svg">
<path d="M18 13V8C18 7.46957 17.7893 6.96086 17.4142 6.58579C17.0391 6.21071 16.5304 6 16 6C15.4696 6 14.9609 6.21071 14.5858 6.58579C14.2107 6.96086 14 7.46957 14 8" stroke="#DAB2FF" stroke-width="2" stroke-linecap="round" stroke-linejoin="round"/>
<path d="M14 12V6C14 5.46957 13.7893 4.96086 13.4142 4.58579C13.0391 4.21071 12.5304 4 12 4C11.4696 4 10.9609 4.21071 10.5858 4.58579C10.2107 4.96086 10 5.46957 10 6V8" stroke="#DAB2FF" stroke-width="2" stroke-linecap="round" stroke-linejoin="round"/>
<path d="M10 12.5V8C10 7.46957 9.78929 6.96086 9.41421 6.58579C9.03914 6.21071 8.53043 6 8 6C7.46957 6 6.96086 6.21071 6.58579 6.58579C6.21071 6.96086 6 7.46957 6 8V16" stroke="#DAB2FF" stroke-width="2" stroke-linecap="round" stroke-linejoin="round"/>
<path d="M18.0001 10C18.0001 9.46957 18.2108 8.96086 18.5859 8.58579C18.961 8.21071 19.4697 8 20.0001 8C20.5305 8 21.0392 8.21071 21.4143 8.58579C21.7894 8.96086 22.0001 9.46957 22.0001 10V16C22.0001 18.1217 21.1572 20.1566 19.657 21.6569C18.1567 23.1571 16.1218 24 14.0001 24H12.0001C9.2001 24 7.5001 23.14 6.0101 21.66L2.4101 18.06C2.06604 17.6789 1.88169 17.1802 1.89523 16.6669C1.90876 16.1537 2.11915 15.6653 2.48282 15.303C2.8465 14.9406 3.3356 14.7319 3.84888 14.7202C4.36215 14.7085 4.86027 14.8946 5.2401 15.24L7.0001 17" stroke="#DAB2FF" stroke-width="2" stroke-linecap="round" stroke-linejoin="round"/>
<path d="M34.862 21H33.566V8.112H34.862V13.854H41.828V8.112H43.106V21H41.828V15.06H34.862V21ZM48.4894 21.216C46.6354 21.216 45.5374 20.172 45.5374 18.642C45.5374 17.04 46.7614 16.032 48.7954 15.87L51.6754 15.636V15.348C51.6754 13.638 50.6494 13.098 49.3714 13.098C47.8594 13.098 46.9594 13.782 46.9594 14.952H45.8254C45.8254 13.188 47.2654 12.054 49.4074 12.054C51.4234 12.054 52.8994 13.062 52.8994 15.366V21H51.8554L51.6934 19.47C51.1534 20.568 49.9654 21.216 48.4894 21.216ZM48.7774 20.208C50.6134 20.208 51.6754 18.93 51.6754 17.04V16.572L49.1014 16.77C47.4634 16.914 46.7974 17.634 46.7974 18.606C46.7974 19.668 47.5894 20.208 48.7774 20.208ZM54.6537 18.552H55.8417C55.8417 19.56 56.5977 20.19 57.8217 20.19C59.1717 20.19 59.9637 19.614 59.9637 18.678C59.9637 17.958 59.6037 17.544 58.5777 17.292L57.0837 16.914C55.5717 16.536 54.8337 15.744 54.8337 14.556C54.8337 13.026 56.1117 12.054 57.9837 12.054C59.8197 12.054 61.0077 13.062 61.0617 14.682H59.8557C59.8197 13.674 59.1177 13.08 57.9477 13.08C56.7237 13.08 56.0397 13.602 56.0397 14.538C56.0397 15.204 56.5077 15.672 57.4617 15.906L58.9557 16.284C60.4677 16.662 61.1517 17.364 61.1517 18.624C61.1517 20.19 59.8197 21.216 57.8397 21.216C55.8777 21.216 54.6537 20.172 54.6537 18.552ZM65.1944 21H63.9704V13.332H62.2244V12.288H63.9704V9.534H65.1944V12.288H66.9404V13.332H65.1944V21ZM75.1159 21H73.8199V8.112H78.6259C81.2359 8.112 82.8199 9.552 82.8199 11.838C82.8199 13.692 81.8479 14.988 80.1919 15.438L82.9459 21H81.5059L78.8779 15.654H75.1159V21ZM75.1159 9.282V14.484H78.6619C80.4439 14.484 81.4879 13.512 81.4879 11.874C81.4879 10.2 80.3899 9.282 78.6259 9.282H75.1159ZM88.0848 21.216C85.5288 21.216 83.8188 19.38 83.8188 16.644C83.8188 13.926 85.5108 12.054 87.9948 12.054C90.3528 12.054 91.9548 13.728 91.9548 16.194V16.806H85.0248C85.1148 18.93 86.2308 20.154 88.1028 20.154C89.5248 20.154 90.4428 19.542 90.7668 18.39H91.9548C91.4868 20.226 90.1368 21.216 88.0848 21.216ZM87.9948 13.116C86.3568 13.116 85.2768 14.196 85.0608 15.906H90.7128C90.7128 14.232 89.6328 13.116 87.9948 13.116ZM95.2365 21H93.9945V7.878H95.2365V16.788L99.5565 12.288H101.123L97.7745 15.762L101.141 21H99.7005L96.9285 16.644L95.2365 18.39V21ZM103.866 20.982H102.624V7.878H103.866V13.8C104.424 12.756 105.486 12.054 106.944 12.054C109.23 12.054 110.256 13.476 110.256 15.672V21H109.014V15.942C109.014 13.908 108.06 13.188 106.71 13.188C104.838 13.188 103.866 14.574 103.866 16.248V20.982ZM115.234 21.216C113.38 21.216 112.282 20.172 112.282 18.642C112.282 17.04 113.506 16.032 115.54 15.87L118.42 15.636V15.348C118.42 13.638 117.394 13.098 116.116 13.098C114.604 13.098 113.704 13.782 113.704 14.952H112.57C112.57 13.188 114.01 12.054 116.152 12.054C118.168 12.054 119.644 13.062 119.644 15.366V21H118.6L118.438 19.47C117.898 20.568 116.71 21.216 115.234 21.216ZM115.522 20.208C117.358 20.208 118.42 18.93 118.42 17.04V16.572L115.846 16.77C114.208 16.914 113.542 17.634 113.542 18.606C113.542 19.668 114.334 20.208 115.522 20.208Z" fill="white"/>
<g opacity="0.01">
<path d="M36.6396 9.58875C36.6396 9.57938 36.6472 9.57178 36.6566 9.57178C36.666 9.57178 36.6736 9.57938 36.6736 9.58875C36.6736 9.59812 36.666 9.60572 36.6566 9.60572C36.6472 9.60572 36.6396 9.59812 36.6396 9.58875Z" fill="white"/>
</g>
</svg>
