<svg width="366" height="346" viewBox="0 0 366 346" fill="none" xmlns="http://www.w3.org/2000/svg">
<g opacity="0.308473">
<path d="M327.89 344.905C327.89 344.488 328.228 344.149 328.646 344.149C329.063 344.149 329.402 344.488 329.402 344.905C329.402 345.323 329.063 345.661 328.646 345.661C328.228 345.661 327.89 345.323 327.89 344.905Z" fill="white"/>
</g>
<g opacity="0.70054">
<path d="M74.7031 307.507C74.7031 306.975 75.1344 306.543 75.6663 306.543C76.1983 306.543 76.6296 306.975 76.6296 307.507C76.6296 308.039 76.1983 308.47 75.6663 308.47C75.1344 308.47 74.7031 308.039 74.7031 307.507Z" fill="white"/>
</g>
<g opacity="0.329843">
<path d="M304.049 99.741C304.049 99.2962 304.409 98.9355 304.854 98.9355C305.299 98.9355 305.66 99.2962 305.66 99.741C305.66 100.186 305.299 100.546 304.854 100.546C304.409 100.546 304.049 100.186 304.049 99.741Z" fill="white"/>
</g>
<g opacity="0.903201">
<path d="M84.3965 43.6442C84.3965 42.8856 85.0115 42.2705 85.7702 42.2705C86.5289 42.2705 87.1439 42.8856 87.1439 43.6442C87.1439 44.4029 86.5289 45.018 85.7702 45.018C85.0115 45.018 84.3965 44.4029 84.3965 43.6442Z" fill="white"/>
</g>
<g opacity="0.638191">
<path d="M0 258.523C0 257.694 0.671536 257.023 1.49992 257.023C2.3283 257.023 2.99984 257.694 2.99984 258.523C2.99984 259.351 2.3283 260.023 1.49992 260.023C0.671536 260.023 0 259.351 0 258.523Z" fill="white"/>
</g>
<g opacity="0.727502">
<path d="M40.0674 73.3961C40.0674 72.8467 40.5128 72.4014 41.0622 72.4014C41.6116 72.4014 42.057 72.8467 42.057 73.3961C42.057 73.9456 41.6116 74.3909 41.0622 74.3909C40.5128 74.3909 40.0674 73.9456 40.0674 73.3961Z" fill="white"/>
</g>
<g opacity="0.749262">
<path d="M197.185 93.1932C197.185 92.3805 197.843 91.7217 198.656 91.7217C199.469 91.7217 200.128 92.3805 200.128 93.1932C200.128 94.0059 199.469 94.6648 198.656 94.6648C197.843 94.6648 197.185 94.0059 197.185 93.1932Z" fill="white"/>
</g>
<g opacity="0.0935918">
<path d="M282.839 218.548C282.839 218.413 282.948 218.304 283.083 218.304C283.217 218.304 283.327 218.413 283.327 218.548C283.327 218.683 283.217 218.792 283.083 218.792C282.948 218.792 282.839 218.683 282.839 218.548Z" fill="white"/>
</g>
<g opacity="0.55096">
<path d="M97.1621 179.558C97.1621 179.13 97.509 178.783 97.9368 178.783C98.3647 178.783 98.7115 179.13 98.7115 179.558C98.7115 179.986 98.3647 180.333 97.9368 180.333C97.509 180.333 97.1621 179.986 97.1621 179.558Z" fill="white"/>
</g>
<g opacity="0.733173">
<path d="M39.1953 263.03C39.1953 262.476 39.644 262.028 40.1974 262.028C40.7508 262.028 41.1995 262.476 41.1995 263.03C41.1995 263.583 40.7508 264.032 40.1974 264.032C39.644 264.032 39.1953 263.583 39.1953 263.03Z" fill="white"/>
</g>
<g opacity="0.102848">
<path d="M139.243 307.378C139.243 307.23 139.363 307.111 139.51 307.111C139.657 307.111 139.777 307.23 139.777 307.378C139.777 307.525 139.657 307.645 139.51 307.645C139.363 307.645 139.243 307.525 139.243 307.378Z" fill="white"/>
</g>
<g opacity="0.0450535">
<path d="M253.785 140.349C253.785 140.282 253.839 140.228 253.906 140.228C253.973 140.228 254.028 140.282 254.028 140.349C254.028 140.416 253.973 140.47 253.906 140.47C253.839 140.47 253.785 140.416 253.785 140.349Z" fill="white"/>
</g>
<g opacity="0.630702">
<path d="M355.191 327.962C355.191 327.136 355.861 326.466 356.687 326.466C357.514 326.466 358.184 327.136 358.184 327.962C358.184 328.788 357.514 329.458 356.687 329.458C355.861 329.458 355.191 328.788 355.191 327.962Z" fill="white"/>
</g>
<g opacity="0.993588">
<path d="M262.122 55.2541C262.122 54.545 262.697 53.9702 263.406 53.9702C264.115 53.9702 264.69 54.545 264.69 55.2541C264.69 55.9632 264.115 56.538 263.406 56.538C262.697 56.538 262.122 55.9632 262.122 55.2541Z" fill="white"/>
</g>
<g opacity="0.629081">
<path d="M99.2402 262.361C99.2402 261.879 99.6316 261.487 100.114 261.487C100.597 261.487 100.989 261.879 100.989 262.361C100.989 262.844 100.597 263.236 100.114 263.236C99.6316 263.236 99.2402 262.844 99.2402 262.361Z" fill="white"/>
</g>
<g opacity="0.9034">
<path d="M186.584 100.852C186.584 100.094 187.199 99.4785 187.958 99.4785C188.716 99.4785 189.331 100.094 189.331 100.852C189.331 101.611 188.716 102.226 187.958 102.226C187.199 102.226 186.584 101.611 186.584 100.852Z" fill="white"/>
</g>
<g opacity="0.531668">
<path d="M200.834 126.812C200.834 126.398 201.17 126.062 201.583 126.062C201.997 126.062 202.333 126.398 202.333 126.812C202.333 127.226 201.997 127.561 201.583 127.561C201.17 127.561 200.834 127.226 200.834 126.812Z" fill="white"/>
</g>
<g opacity="0.654095">
<path d="M351.021 135.99C351.021 135.162 351.693 134.491 352.52 134.491C353.348 134.491 354.019 135.162 354.019 135.99C354.019 136.818 353.348 137.489 352.52 137.489C351.693 137.489 351.021 136.818 351.021 135.99Z" fill="white"/>
</g>
<g opacity="0.0476079">
<path d="M1.78906 240.917C1.78906 240.846 1.84617 240.789 1.91663 240.789C1.98708 240.789 2.04419 240.846 2.04419 240.917C2.04419 240.987 1.98708 241.044 1.91663 241.044C1.84617 241.044 1.78906 240.987 1.78906 240.917Z" fill="white"/>
</g>
<rect x="148.427" y="17" width="76" height="30" rx="15" fill="white" fill-opacity="0.1"/>
<path d="M165.497 37.156C162.728 37.156 160.934 35.232 160.934 32.255C160.934 29.304 162.793 27.341 165.575 27.341C167.824 27.341 169.501 28.654 169.826 30.695H168.071C167.746 29.59 166.797 28.94 165.536 28.94C163.781 28.94 162.676 30.214 162.676 32.242C162.676 34.257 163.794 35.557 165.536 35.557C166.823 35.557 167.811 34.881 168.123 33.828H169.852C169.488 35.83 167.746 37.156 165.497 37.156ZM172.633 37H171.047V27.328H172.646V31.41C173.049 30.786 173.803 30.383 174.726 30.383C176.312 30.383 177.144 31.384 177.144 33.048V37H175.558V33.425C175.558 32.346 175.025 31.826 174.219 31.826C173.218 31.826 172.633 32.528 172.633 33.49V37ZM179.495 29.291C178.949 29.291 178.52 28.862 178.52 28.329C178.52 27.796 178.949 27.38 179.495 27.38C180.015 27.38 180.444 27.796 180.444 28.329C180.444 28.862 180.015 29.291 179.495 29.291ZM178.702 37V30.578H180.288V37H178.702ZM183.525 37H181.952V27.328H183.525V37ZM187.828 37.169C185.969 37.169 184.812 35.804 184.812 33.815C184.812 31.813 185.982 30.383 187.919 30.383C188.816 30.383 189.609 30.76 190.012 31.397V27.328H191.585V37H190.129L190.025 35.999C189.635 36.74 188.803 37.169 187.828 37.169ZM188.179 35.713C189.284 35.713 189.999 34.92 189.999 33.763C189.999 32.606 189.284 31.8 188.179 31.8C187.074 31.8 186.398 32.619 186.398 33.763C186.398 34.907 187.074 35.713 188.179 35.713ZM197.268 30.552V32.021H196.683C195.539 32.021 194.824 32.632 194.824 33.88V37H193.238V30.591H194.733L194.824 31.527C195.097 30.89 195.708 30.461 196.566 30.461C196.787 30.461 197.008 30.487 197.268 30.552ZM200.999 37.169C199.088 37.169 197.749 35.778 197.749 33.789C197.749 31.774 199.062 30.383 200.947 30.383C202.871 30.383 204.093 31.67 204.093 33.672V34.153L199.257 34.166C199.374 35.297 199.972 35.869 201.025 35.869C201.896 35.869 202.468 35.531 202.65 34.92H204.119C203.846 36.324 202.676 37.169 200.999 37.169ZM200.96 31.683C200.024 31.683 199.452 32.19 199.296 33.152H202.52C202.52 32.268 201.909 31.683 200.96 31.683ZM206.948 37H205.362V30.578H206.831L206.961 31.41C207.364 30.76 208.144 30.383 209.015 30.383C210.627 30.383 211.459 31.384 211.459 33.048V37H209.873V33.425C209.873 32.346 209.34 31.826 208.521 31.826C207.546 31.826 206.948 32.502 206.948 33.542V37Z" fill="#B2D9FF"/>
<rect x="26.4268" y="102" width="66" height="30" rx="15" fill="white" fill-opacity="0.1"/>
<path d="M43.4968 122.156C40.7278 122.156 38.9338 120.232 38.9338 117.255C38.9338 114.304 40.7928 112.341 43.5748 112.341C45.8238 112.341 47.5008 113.654 47.8258 115.695H46.0708C45.7458 114.59 44.7968 113.94 43.5358 113.94C41.7808 113.94 40.6758 115.214 40.6758 117.242C40.6758 119.257 41.7938 120.557 43.5358 120.557C44.8228 120.557 45.8108 119.881 46.1228 118.828H47.8518C47.4878 120.83 45.7458 122.156 43.4968 122.156ZM50.8941 122.169C49.5291 122.169 48.6971 121.376 48.6971 120.167C48.6971 118.984 49.5551 118.243 51.0761 118.126L53.0001 117.983V117.84C53.0001 116.969 52.4801 116.618 51.6741 116.618C50.7381 116.618 50.2181 117.008 50.2181 117.684H48.8661C48.8661 116.293 50.0101 115.383 51.7521 115.383C53.4811 115.383 54.5471 116.319 54.5471 118.1V122H53.1561L53.0391 121.051C52.7661 121.714 51.8951 122.169 50.8941 122.169ZM51.4141 120.973C52.3891 120.973 53.0131 120.388 53.0131 119.4V119.062L51.6741 119.166C50.6861 119.257 50.3091 119.582 50.3091 120.102C50.3091 120.687 50.6991 120.973 51.4141 120.973ZM60.1351 115.552V117.021H59.5501C58.4061 117.021 57.6911 117.632 57.6911 118.88V122H56.1051V115.591H57.6001L57.6911 116.527C57.9641 115.89 58.5751 115.461 59.4331 115.461C59.6541 115.461 59.8751 115.487 60.1351 115.552ZM63.8658 122.169C61.9548 122.169 60.6158 120.778 60.6158 118.789C60.6158 116.774 61.9288 115.383 63.8138 115.383C65.7378 115.383 66.9598 116.67 66.9598 118.672V119.153L62.1238 119.166C62.2408 120.297 62.8388 120.869 63.8918 120.869C64.7628 120.869 65.3348 120.531 65.5168 119.92H66.9858C66.7128 121.324 65.5428 122.169 63.8658 122.169ZM63.8268 116.683C62.8908 116.683 62.3188 117.19 62.1628 118.152H65.3868C65.3868 117.268 64.7758 116.683 63.8268 116.683ZM71.1022 122.169C69.1912 122.169 67.8522 120.778 67.8522 118.789C67.8522 116.774 69.1652 115.383 71.0502 115.383C72.9742 115.383 74.1962 116.67 74.1962 118.672V119.153L69.3602 119.166C69.4772 120.297 70.0752 120.869 71.1282 120.869C71.9992 120.869 72.5712 120.531 72.7532 119.92H74.2222C73.9492 121.324 72.7792 122.169 71.1022 122.169ZM71.0632 116.683C70.1272 116.683 69.5552 117.19 69.3992 118.152H72.6232C72.6232 117.268 72.0122 116.683 71.0632 116.683ZM79.4955 115.552V117.021H78.9105C77.7665 117.021 77.0515 117.632 77.0515 118.88V122H75.4655V115.591H76.9605L77.0515 116.527C77.3245 115.89 77.9355 115.461 78.7935 115.461C79.0145 115.461 79.2355 115.487 79.4955 115.552Z" fill="#B2D9FF"/>
<rect x="17.4268" y="227" width="95" height="30" rx="15" fill="white" fill-opacity="0.1"/>
<path d="M30.4798 247V237.497H34.2628C36.1348 237.497 37.2788 238.472 37.2788 240.058C37.2788 241.111 36.8108 241.865 35.9138 242.242C36.9148 242.567 37.4218 243.321 37.4218 244.426C37.4218 246.051 36.2908 247 34.3278 247H30.4798ZM34.1198 238.966H32.1438V241.553H34.1588C35.0688 241.553 35.5758 241.072 35.5758 240.227C35.5758 239.408 35.0558 238.966 34.1198 238.966ZM34.2628 242.957H32.1438V245.531H34.2628C35.1988 245.531 35.7188 245.076 35.7188 244.218C35.7188 243.412 35.1858 242.957 34.2628 242.957ZM39.5065 239.291C38.9605 239.291 38.5315 238.862 38.5315 238.329C38.5315 237.796 38.9605 237.38 39.5065 237.38C40.0265 237.38 40.4555 237.796 40.4555 238.329C40.4555 238.862 40.0265 239.291 39.5065 239.291ZM38.7135 247V240.578H40.2995V247H38.7135ZM41.5741 243.646C41.5741 241.774 42.7961 240.37 44.6291 240.37C45.5911 240.37 46.3451 240.773 46.7221 241.462L46.8131 240.578H48.2821V246.675C48.2821 248.82 46.9951 250.159 44.9151 250.159C43.0691 250.159 41.8081 249.106 41.6131 247.39H43.1991C43.3031 248.222 43.9401 248.716 44.9151 248.716C46.0071 248.716 46.7091 248.027 46.7091 246.961V245.895C46.3061 246.493 45.5131 246.87 44.5901 246.87C42.7701 246.87 41.5741 245.505 41.5741 243.646ZM43.1731 243.607C43.1731 244.686 43.8621 245.492 44.9021 245.492C45.9941 245.492 46.6701 244.725 46.6701 243.607C46.6701 242.515 46.0071 241.761 44.9021 241.761C43.8491 241.761 43.1731 242.554 43.1731 243.607ZM57.6784 247.156C54.9094 247.156 53.1154 245.232 53.1154 242.255C53.1154 239.304 54.9744 237.341 57.7564 237.341C60.0054 237.341 61.6824 238.654 62.0074 240.695H60.2524C59.9274 239.59 58.9784 238.94 57.7174 238.94C55.9624 238.94 54.8574 240.214 54.8574 242.242C54.8574 244.257 55.9754 245.557 57.7174 245.557C59.0044 245.557 59.9924 244.881 60.3044 243.828H62.0334C61.6694 245.83 59.9274 247.156 57.6784 247.156ZM64.8142 247H63.2282V237.328H64.8272V241.41C65.2302 240.786 65.9842 240.383 66.9072 240.383C68.4932 240.383 69.3252 241.384 69.3252 243.048V247H67.7392V243.425C67.7392 242.346 67.2062 241.826 66.4002 241.826C65.3992 241.826 64.8142 242.528 64.8142 243.49V247ZM72.7945 247.169C71.4295 247.169 70.5975 246.376 70.5975 245.167C70.5975 243.984 71.4555 243.243 72.9765 243.126L74.9005 242.983V242.84C74.9005 241.969 74.3805 241.618 73.5745 241.618C72.6385 241.618 72.1185 242.008 72.1185 242.684H70.7665C70.7665 241.293 71.9105 240.383 73.6525 240.383C75.3815 240.383 76.4475 241.319 76.4475 243.1V247H75.0565L74.9395 246.051C74.6665 246.714 73.7955 247.169 72.7945 247.169ZM73.3145 245.973C74.2895 245.973 74.9135 245.388 74.9135 244.4V244.062L73.5745 244.166C72.5865 244.257 72.2095 244.582 72.2095 245.102C72.2095 245.687 72.5995 245.973 73.3145 245.973ZM79.5915 247H78.0055V240.578H79.4745L79.6045 241.41C80.0075 240.76 80.7875 240.383 81.6585 240.383C83.2705 240.383 84.1025 241.384 84.1025 243.048V247H82.5165V243.425C82.5165 242.346 81.9835 241.826 81.1645 241.826C80.1895 241.826 79.5915 242.502 79.5915 243.542V247ZM85.2968 243.646C85.2968 241.774 86.5188 240.37 88.3518 240.37C89.3138 240.37 90.0678 240.773 90.4448 241.462L90.5358 240.578H92.0048V246.675C92.0048 248.82 90.7178 250.159 88.6378 250.159C86.7918 250.159 85.5308 249.106 85.3358 247.39H86.9218C87.0258 248.222 87.6628 248.716 88.6378 248.716C89.7298 248.716 90.4318 248.027 90.4318 246.961V245.895C90.0288 246.493 89.2358 246.87 88.3128 246.87C86.4928 246.87 85.2968 245.505 85.2968 243.646ZM86.8958 243.607C86.8958 244.686 87.5848 245.492 88.6248 245.492C89.7168 245.492 90.3928 244.725 90.3928 243.607C90.3928 242.515 89.7298 241.761 88.6248 241.761C87.5718 241.761 86.8958 242.554 86.8958 243.607ZM96.5191 247.169C94.6081 247.169 93.2691 245.778 93.2691 243.789C93.2691 241.774 94.5821 240.383 96.4671 240.383C98.3911 240.383 99.6131 241.67 99.6131 243.672V244.153L94.7771 244.166C94.8941 245.297 95.4921 245.869 96.5451 245.869C97.4161 245.869 97.9881 245.531 98.1701 244.92H99.6391C99.3661 246.324 98.1961 247.169 96.5191 247.169ZM96.4801 241.683C95.5441 241.683 94.9721 242.19 94.8161 243.152H98.0401C98.0401 242.268 97.4291 241.683 96.4801 241.683Z" fill="#B2D9FF"/>
<rect x="270.427" y="226" width="65" height="30" rx="15" fill="white" fill-opacity="0.1"/>
<path d="M285.092 246H283.48V236.497H285.092L288.16 244.063L291.228 236.497H292.866V246H291.254V243.075C291.254 241.164 291.254 240.605 291.345 239.929L288.927 246H287.393L284.988 239.942C285.079 240.514 285.092 241.411 285.092 242.594V246ZM294.358 242.776C294.358 240.774 295.801 239.396 297.79 239.396C299.779 239.396 301.222 240.774 301.222 242.776C301.222 244.778 299.779 246.156 297.79 246.156C295.801 246.156 294.358 244.778 294.358 242.776ZM295.944 242.776C295.944 243.946 296.698 244.739 297.79 244.739C298.882 244.739 299.636 243.946 299.636 242.776C299.636 241.606 298.882 240.813 297.79 240.813C296.698 240.813 295.944 241.606 295.944 242.776ZM304.065 246H302.479V239.578H303.948L304.078 240.41C304.481 239.76 305.261 239.383 306.132 239.383C307.744 239.383 308.576 240.384 308.576 242.048V246H306.99V242.425C306.99 241.346 306.457 240.826 305.638 240.826C304.663 240.826 304.065 241.502 304.065 242.542V246ZM313.007 246.169C311.096 246.169 309.757 244.778 309.757 242.789C309.757 240.774 311.07 239.383 312.955 239.383C314.879 239.383 316.101 240.67 316.101 242.672V243.153L311.265 243.166C311.382 244.297 311.98 244.869 313.033 244.869C313.904 244.869 314.476 244.531 314.658 243.92H316.127C315.854 245.324 314.684 246.169 313.007 246.169ZM312.968 240.683C312.032 240.683 311.46 241.19 311.304 242.152H314.528C314.528 241.268 313.917 240.683 312.968 240.683ZM316.596 248.977V247.651H317.545C318.169 247.651 318.559 247.508 318.832 246.754L319.014 246.273L316.427 239.578H318.104L319.755 244.258L321.497 239.578H323.135L319.989 247.43C319.508 248.626 318.832 249.12 317.779 249.12C317.337 249.12 316.947 249.068 316.596 248.977Z" fill="#B2D9FF"/>
<rect x="275.427" y="106" width="79" height="30" rx="15" fill="white" fill-opacity="0.1"/>
<path d="M290.092 126H288.48V116.497H290.092L293.16 124.063L296.228 116.497H297.866V126H296.254V123.075C296.254 121.164 296.254 120.605 296.345 119.929L293.927 126H292.393L289.988 119.942C290.079 120.514 290.092 121.411 290.092 122.594V126ZM301.646 126.169C300.281 126.169 299.449 125.376 299.449 124.167C299.449 122.984 300.307 122.243 301.828 122.126L303.752 121.983V121.84C303.752 120.969 303.232 120.618 302.426 120.618C301.49 120.618 300.97 121.008 300.97 121.684H299.618C299.618 120.293 300.762 119.383 302.504 119.383C304.233 119.383 305.299 120.319 305.299 122.1V126H303.908L303.791 125.051C303.518 125.714 302.647 126.169 301.646 126.169ZM302.166 124.973C303.141 124.973 303.765 124.388 303.765 123.4V123.062L302.426 123.166C301.438 123.257 301.061 123.582 301.061 124.102C301.061 124.687 301.451 124.973 302.166 124.973ZM310.887 119.552V121.021H310.302C309.158 121.021 308.443 121.632 308.443 122.88V126H306.857V119.591H308.352L308.443 120.527C308.716 119.89 309.327 119.461 310.185 119.461C310.406 119.461 310.627 119.487 310.887 119.552ZM315.991 119.552V121.021H315.406C314.262 121.021 313.547 121.632 313.547 122.88V126H311.961V119.591H313.456L313.547 120.527C313.82 119.89 314.431 119.461 315.289 119.461C315.51 119.461 315.731 119.487 315.991 119.552ZM317.857 118.291C317.311 118.291 316.882 117.862 316.882 117.329C316.882 116.796 317.311 116.38 317.857 116.38C318.377 116.38 318.806 116.796 318.806 117.329C318.806 117.862 318.377 118.291 317.857 118.291ZM317.064 126V119.578H318.65V126H317.064ZM322.2 126.169C320.835 126.169 320.003 125.376 320.003 124.167C320.003 122.984 320.861 122.243 322.382 122.126L324.306 121.983V121.84C324.306 120.969 323.786 120.618 322.98 120.618C322.044 120.618 321.524 121.008 321.524 121.684H320.172C320.172 120.293 321.316 119.383 323.058 119.383C324.787 119.383 325.853 120.319 325.853 122.1V126H324.462L324.345 125.051C324.072 125.714 323.201 126.169 322.2 126.169ZM322.72 124.973C323.695 124.973 324.319 124.388 324.319 123.4V123.062L322.98 123.166C321.992 123.257 321.615 123.582 321.615 124.102C321.615 124.687 322.005 124.973 322.72 124.973ZM327.047 122.646C327.047 120.774 328.269 119.37 330.102 119.37C331.064 119.37 331.818 119.773 332.195 120.462L332.286 119.578H333.755V125.675C333.755 127.82 332.468 129.159 330.388 129.159C328.542 129.159 327.281 128.106 327.086 126.39H328.672C328.776 127.222 329.413 127.716 330.388 127.716C331.48 127.716 332.182 127.027 332.182 125.961V124.895C331.779 125.493 330.986 125.87 330.063 125.87C328.243 125.87 327.047 124.505 327.047 122.646ZM328.646 122.607C328.646 123.686 329.335 124.492 330.375 124.492C331.467 124.492 332.143 123.725 332.143 122.607C332.143 121.515 331.48 120.761 330.375 120.761C329.322 120.761 328.646 121.554 328.646 122.607ZM338.269 126.169C336.358 126.169 335.019 124.778 335.019 122.789C335.019 120.774 336.332 119.383 338.217 119.383C340.141 119.383 341.363 120.67 341.363 122.672V123.153L336.527 123.166C336.644 124.297 337.242 124.869 338.295 124.869C339.166 124.869 339.738 124.531 339.92 123.92H341.389C341.116 125.324 339.946 126.169 338.269 126.169ZM338.23 120.683C337.294 120.683 336.722 121.19 336.566 122.152H339.79C339.79 121.268 339.179 120.683 338.23 120.683Z" fill="#B2D9FF"/>
<path d="M272.427 37H303.427C306.74 37 309.427 39.6863 309.427 43V71.5" stroke="#FE8030" stroke-width="7"/>
<path d="M102.427 37H71.4268C68.1131 37 65.4268 39.6863 65.4268 43V71.5" stroke="#FE8030" stroke-width="7"/>
<path d="M273.427 312.5H304.427C307.74 312.5 310.427 309.814 310.427 306.5V278" stroke="#FE8030" stroke-width="7"/>
<path d="M102.427 312.5H71.4268C68.1131 312.5 65.4268 309.814 65.4268 306.5V278" stroke="#FE8030" stroke-width="7"/>
<path d="M145.961 156.685C145.961 179.95 139.87 188.021 136.825 189.148C135.633 189.148 135.633 189.148 130.072 184.414C97.897 155.332 84.3914 160.066 79.6247 163.786C75.8113 166.762 82.008 171.789 85.583 173.931C101.075 183.061 104.65 190.5 113.786 203.689C122.128 231.079 151.92 245.62 156.686 253.06C160.5 259.011 156.686 286.65 154.303 299.726C152.846 303.107 150.807 311.291 154.303 316.972C166.696 324.276 203.956 322.044 221.037 320.015C223.817 319.79 228.981 318.257 227.392 313.928C222.308 291.204 223.42 262.303 224.612 250.693C232.953 243.929 237.323 238.181 242.09 221.273C248.842 205.041 252.815 156.685 252.815 150.936C252.815 145.187 257.979 132.337 259.965 127.265C261.951 122.192 264.334 111.033 259.965 105.961C255.595 100.888 246.459 105.961 242.884 119.149C240.024 129.7 232.159 146.314 228.584 153.303L223.817 151.612C223.155 143.496 222.228 123.004 223.817 105.961C225.406 88.9176 220.772 76.541 218.256 72.4831C217.064 70.6796 213.489 67.7489 208.723 70.4542C203.956 73.1595 202.764 83.5296 202.764 88.3766C202.5 102.692 201.97 132.405 201.97 136.733C201.97 141.062 199.851 144.624 198.792 145.864L196.806 131.323L196.012 99.5358C195.217 93.2235 193.628 78.3671 193.628 69.4397C193.628 58.2805 186.478 53.8844 180.123 55.2371C173.767 56.5897 174.959 77.5555 174.164 82.9661C173.37 88.3766 176.15 125.912 174.959 136.733C174.005 145.39 171.119 145.3 169.795 144.173C169 141.58 167.411 135.245 167.411 130.646C167.411 124.898 166.22 107.313 163.836 97.845C164.472 91.0819 161.453 79.2463 159.864 74.1739C153.826 61.1886 144.372 71.1305 144.372 77.5555V112.048C144.372 117.12 145.961 127.603 145.961 156.685Z" stroke="white" stroke-width="2"/>
<path d="M154.427 185.107C165.19 189.718 187.973 209.274 192.996 250.619" stroke="#69C0AD" stroke-width="1.62376"/>
<path d="M159.926 179.134C178.348 186.453 218.846 203.88 233.467 215.042" stroke="#CDC98C" stroke-width="1.62376"/>
<path d="M168.437 162.693C181.478 175.138 213.978 199.003 239.641 194.905" stroke="#FE8030" stroke-width="1.62376"/>
<path d="M195.019 163.545C199.075 188.39 205.745 240.99 199.976 252.629" stroke="#AC92D1" stroke-width="1.62376"/>
<g filter="url(#filter0_f_186_113)">
<rect x="97" y="136" width="187" height="7" fill="url(#paint0_linear_186_113)"/>
</g>
<defs>
<filter id="filter0_f_186_113" x="81" y="120" width="219" height="39" filterUnits="userSpaceOnUse" color-interpolation-filters="sRGB">
<feFlood flood-opacity="0" result="BackgroundImageFix"/>
<feBlend mode="normal" in="SourceGraphic" in2="BackgroundImageFix" result="shape"/>
<feGaussianBlur stdDeviation="8" result="effect1_foregroundBlur_186_113"/>
</filter>
<linearGradient id="paint0_linear_186_113" x1="107.5" y1="140" x2="284" y2="139.5" gradientUnits="userSpaceOnUse">
<stop stop-color="#BC9FED"/>
<stop offset="0.517329" stop-color="#ECE1FF"/>
<stop offset="1" stop-color="#3D0799"/>
</linearGradient>
</defs>
</svg>
