<svg width="21" height="21" viewBox="0 0 21 21" fill="none" xmlns="http://www.w3.org/2000/svg">
<g clip-path="url(#clip0_144_31)">
<path d="M2.32866 11.3861C2.32822 12.9824 2.74533 14.5412 3.53847 15.9151L2.25281 20.6092L7.05672 19.3496C8.38542 20.073 9.87412 20.452 11.3869 20.4521H11.3909C16.3851 20.4521 20.4504 16.3882 20.4525 11.3932C20.4535 8.97278 19.5117 6.69675 17.8007 4.9844C16.09 3.27219 13.8148 2.32874 11.3906 2.32764C6.39584 2.32764 2.3308 6.39128 2.32873 11.3861" fill="url(#paint0_linear_144_31)"/>
<path d="M2.00519 11.3833C2.00467 13.0372 2.43674 14.6516 3.25816 16.0747L1.92639 20.9372L6.90255 19.6324C8.27364 20.38 9.81736 20.7741 11.3882 20.7747H11.3922C16.5655 20.7747 20.7769 16.5647 20.7791 11.3909C20.78 8.88345 19.8044 6.52561 18.0322 4.75191C16.2598 2.97843 13.9032 2.00103 11.3922 2C6.21803 2 2.00725 6.20946 2.00519 11.3833ZM4.96867 15.8296L4.78287 15.5347C4.00181 14.2928 3.58955 12.8576 3.59014 11.3839C3.59176 7.08353 7.09159 3.58481 11.3952 3.58481C13.4793 3.58569 15.4379 4.39812 16.9111 5.87217C18.3841 7.34636 19.1947 9.30602 19.1942 11.3903C19.1923 15.6907 15.6924 19.1898 11.3922 19.1898H11.3891C9.98895 19.1891 8.61572 18.8131 7.41813 18.1025L7.13313 17.9335L4.18017 18.7077L4.96867 15.8296Z" fill="url(#paint1_linear_144_31)"/>
<path d="M9.04604 7.46052C8.87033 7.06999 8.68541 7.06211 8.51831 7.05526C8.38148 7.04937 8.22506 7.04981 8.06879 7.04981C7.91237 7.04981 7.65823 7.10865 7.44341 7.34321C7.22837 7.57798 6.62244 8.14533 6.62244 9.29925C6.62244 10.4532 7.46293 11.5684 7.5801 11.7251C7.69741 11.8814 9.20268 14.3252 11.5867 15.2653C13.568 16.0466 13.9712 15.8912 14.4012 15.852C14.8312 15.813 15.7889 15.2848 15.9843 14.7372C16.1798 14.1895 16.1798 13.7201 16.1212 13.622C16.0626 13.5243 15.9061 13.4656 15.6716 13.3484C15.437 13.2311 14.2839 12.6636 14.0689 12.5854C13.8539 12.5072 13.6975 12.4681 13.5411 12.703C13.3847 12.9375 12.9355 13.4656 12.7986 13.622C12.6619 13.7788 12.525 13.7983 12.2905 13.681C12.0558 13.5634 11.3004 13.316 10.4042 12.517C9.70699 11.8953 9.23626 11.1276 9.09943 10.8927C8.9626 10.6583 9.08478 10.5312 9.20239 10.4143C9.30777 10.3092 9.43701 10.1404 9.5544 10.0035C9.67135 9.86653 9.71038 9.7688 9.78859 9.61238C9.86687 9.45582 9.82769 9.31884 9.76915 9.20153C9.71038 9.08421 9.2546 7.92425 9.04604 7.46052Z" fill="white"/>
</g>
<defs>
<linearGradient id="paint0_linear_144_31" x1="912.239" y1="1830.49" x2="912.239" y2="2.32764" gradientUnits="userSpaceOnUse">
<stop stop-color="#1FAF38"/>
<stop offset="1" stop-color="#60D669"/>
</linearGradient>
<linearGradient id="paint1_linear_144_31" x1="944.562" y1="1895.72" x2="944.562" y2="2" gradientUnits="userSpaceOnUse">
<stop stop-color="#F9F9F9"/>
<stop offset="1" stop-color="white"/>
</linearGradient>
<clipPath id="clip0_144_31">
<rect width="18.8527" height="19" fill="white" transform="translate(1.92639 2)"/>
</clipPath>
</defs>
</svg>
