<svg width="360" height="800" viewBox="0 0 360 800" fill="none" xmlns="http://www.w3.org/2000/svg">
<g clip-path="url(#clip0_186_154)">
<rect width="360" height="800" fill="url(#paint0_linear_186_154)"/>
<g opacity="0.212761">
<path d="M47.0205 709.54C47.0205 709.246 47.2585 709.008 47.552 709.008C47.8455 709.008 48.0835 709.246 48.0835 709.54C48.0835 709.833 47.8455 710.071 47.552 710.071C47.2585 710.071 47.0205 709.833 47.0205 709.54Z" fill="white"/>
</g>
<g opacity="0.572013">
<path d="M277.275 62.5146C277.275 61.7635 277.884 61.1547 278.635 61.1547C279.386 61.1547 279.995 61.7635 279.995 62.5146C279.995 63.2656 279.386 63.8745 278.635 63.8745C277.884 63.8745 277.275 63.2656 277.275 62.5146Z" fill="white"/>
</g>
<g opacity="0.557813">
<path d="M65.3608 148.347C65.3608 147.614 65.9549 147.02 66.6877 147.02C67.4204 147.02 68.0145 147.614 68.0145 148.347C68.0145 149.08 67.4204 149.674 66.6877 149.674C65.9549 149.674 65.3608 149.08 65.3608 148.347Z" fill="white"/>
</g>
<g opacity="0.01">
<path d="M71.0024 721.898C71.0024 721.888 71.0106 721.879 71.0208 721.879C71.0309 721.879 71.0391 721.888 71.0391 721.898C71.0391 721.908 71.0309 721.916 71.0208 721.916C71.0106 721.916 71.0024 721.908 71.0024 721.898Z" fill="white"/>
</g>
<g opacity="0.58049">
<path d="M7.09961 688.604C7.09961 687.842 7.71722 687.225 8.47909 687.225C9.24095 687.225 9.85856 687.842 9.85856 688.604C9.85856 689.366 9.24095 689.984 8.47909 689.984C7.71722 689.984 7.09961 689.366 7.09961 688.604Z" fill="white"/>
</g>
<g opacity="0.686322">
<path d="M129.888 28.1029C129.888 27.5809 130.311 27.1577 130.833 27.1577C131.355 27.1577 131.779 27.5809 131.779 28.1029C131.779 28.6249 131.355 29.0481 130.833 29.0481C130.311 29.0481 129.888 28.6249 129.888 28.1029Z" fill="white"/>
</g>
<g opacity="0.01">
<path d="M170.562 667.701C170.562 667.701 170.562 667.701 170.563 667.701C170.563 667.701 170.563 667.701 170.563 667.701C170.563 667.702 170.563 667.702 170.563 667.702C170.562 667.702 170.562 667.702 170.562 667.701Z" fill="white"/>
</g>
<g opacity="0.240267">
<path d="M8.56348 639.411C8.56348 639.216 8.72157 639.058 8.91659 639.058C9.1116 639.058 9.26969 639.216 9.26969 639.411C9.26969 639.606 9.1116 639.764 8.91659 639.764C8.72157 639.764 8.56348 639.606 8.56348 639.411Z" fill="white"/>
</g>
<g opacity="0.535444">
<path d="M263.724 565.437C263.724 564.732 264.295 564.16 265 564.16C265.705 564.16 266.277 564.732 266.277 565.437C266.277 566.142 265.705 566.714 265 566.714C264.295 566.714 263.724 566.142 263.724 565.437Z" fill="white"/>
</g>
<g opacity="0.739017">
<path d="M238.232 9.59537C238.232 8.7802 238.893 8.11938 239.708 8.11938C240.524 8.11938 241.184 8.7802 241.184 9.59537C241.184 10.4105 240.524 11.0714 239.708 11.0714C238.893 11.0714 238.232 10.4105 238.232 9.59537Z" fill="white"/>
</g>
<g opacity="0.835294">
<path d="M86.1299 552.961C86.1299 552.343 86.6313 551.841 87.2499 551.841C87.8685 551.841 88.37 552.343 88.37 552.961C88.37 553.58 87.8685 554.081 87.2499 554.081C86.6313 554.081 86.1299 553.58 86.1299 552.961Z" fill="white"/>
</g>
<g opacity="0.193316">
<path d="M338.879 56.8625C338.879 56.5944 339.096 56.3771 339.364 56.3771C339.632 56.3771 339.85 56.5944 339.85 56.8625C339.85 57.1306 339.632 57.348 339.364 57.348C339.096 57.348 338.879 57.1306 338.879 56.8625Z" fill="white"/>
</g>
<g opacity="0.561496">
<path d="M17.5039 139.376C17.5039 138.941 17.8567 138.589 18.2918 138.589C18.7269 138.589 19.0797 138.941 19.0797 139.376C19.0797 139.812 18.7269 140.164 18.2918 140.164C17.8567 140.164 17.5039 139.812 17.5039 139.376Z" fill="white"/>
</g>
<g opacity="0.0229818">
<path d="M323.875 107.642C323.875 107.607 323.903 107.579 323.938 107.579C323.972 107.579 324.001 107.607 324.001 107.642C324.001 107.676 323.972 107.704 323.938 107.704C323.903 107.704 323.875 107.676 323.875 107.642Z" fill="white"/>
</g>
<g opacity="0.55989">
<path d="M343.74 556.387C343.74 555.651 344.337 555.054 345.073 555.054C345.809 555.054 346.406 555.651 346.406 556.387C346.406 557.123 345.809 557.719 345.073 557.719C344.337 557.719 343.74 557.123 343.74 556.387Z" fill="white"/>
</g>
<g opacity="0.487235">
<path d="M1.08057 761.067C1.08057 760.685 1.38957 760.376 1.77075 760.376C2.15193 760.376 2.46094 760.685 2.46094 761.067C2.46094 761.448 2.15193 761.757 1.77075 761.757C1.38957 761.757 1.08057 761.448 1.08057 761.067Z" fill="white"/>
</g>
<g opacity="0.0507165">
<path d="M204.495 702.126C204.495 702.083 204.53 702.048 204.573 702.048C204.616 702.048 204.651 702.083 204.651 702.126C204.651 702.169 204.616 702.204 204.573 702.204C204.53 702.204 204.495 702.169 204.495 702.126Z" fill="white"/>
</g>
<g opacity="0.30419">
<path d="M130.524 736.038C130.524 735.626 130.858 735.292 131.271 735.292C131.683 735.292 132.017 735.626 132.017 736.038C132.017 736.45 131.683 736.784 131.271 736.784C130.858 736.784 130.524 736.45 130.524 736.038Z" fill="white"/>
</g>
<g opacity="0.818408">
<path d="M125.117 585.523C125.117 584.915 125.61 584.422 126.219 584.422C126.827 584.422 127.32 584.915 127.32 585.523C127.32 586.132 126.827 586.625 126.219 586.625C125.61 586.625 125.117 586.132 125.117 585.523Z" fill="white"/>
</g>
<g opacity="0.388143">
<path d="M106.478 190.655C106.478 190.136 106.898 189.716 107.417 189.716C107.935 189.716 108.356 190.136 108.356 190.655C108.356 191.173 107.935 191.594 107.417 191.594C106.898 191.594 106.478 191.173 106.478 190.655Z" fill="white"/>
</g>
<g opacity="0.219538">
<path d="M253.375 753.505C253.375 753.327 253.52 753.183 253.698 753.183C253.876 753.183 254.02 753.327 254.02 753.505C254.02 753.683 253.876 753.827 253.698 753.827C253.52 753.827 253.375 753.683 253.375 753.505Z" fill="white"/>
</g>
<g opacity="0.597528">
<path d="M271.895 166.669C271.895 165.886 272.529 165.251 273.313 165.251C274.096 165.251 274.731 165.886 274.731 166.669C274.731 167.453 274.096 168.088 273.313 168.088C272.529 168.088 271.895 167.453 271.895 166.669Z" fill="white"/>
</g>
<g opacity="0.245695">
<path d="M140.036 759.836C140.036 759.637 140.197 759.476 140.396 759.476C140.595 759.476 140.756 759.637 140.756 759.836C140.756 760.035 140.595 760.196 140.396 760.196C140.197 760.196 140.036 760.035 140.036 759.836Z" fill="white"/>
</g>
<g opacity="0.982583">
<path d="M0.0390625 30.5744C0.0390625 29.8712 0.609182 29.301 1.31246 29.301C2.01574 29.301 2.58586 29.8712 2.58586 30.5744C2.58586 31.2777 2.01574 31.8478 1.31246 31.8478C0.609182 31.8478 0.0390625 31.2777 0.0390625 30.5744Z" fill="white"/>
</g>
<g opacity="0.584738">
<path d="M279.538 618.446C279.538 617.678 280.16 617.056 280.927 617.056C281.694 617.056 282.316 617.678 282.316 618.446C282.316 619.213 281.694 619.835 280.927 619.835C280.16 619.835 279.538 619.213 279.538 618.446Z" fill="white"/>
</g>
<g opacity="0.187447">
<path d="M299.64 787.23C299.64 787.078 299.764 786.954 299.917 786.954C300.069 786.954 300.193 787.078 300.193 787.23C300.193 787.383 300.069 787.507 299.917 787.507C299.764 787.507 299.64 787.383 299.64 787.23Z" fill="white"/>
</g>
<g opacity="0.152287">
<path d="M185.039 153.565C185.039 153.351 185.213 153.177 185.427 153.177C185.641 153.177 185.815 153.351 185.815 153.565C185.815 153.779 185.641 153.953 185.427 153.953C185.213 153.953 185.039 153.779 185.039 153.565Z" fill="white"/>
</g>
</g>
<defs>
<linearGradient id="paint0_linear_186_154" x1="180" y1="0" x2="180" y2="800" gradientUnits="userSpaceOnUse">
<stop stop-color="#3C0366"/>
<stop offset="0.5" stop-color="#1E1A4D"/>
<stop offset="1" stop-color="#3C0366"/>
</linearGradient>
<clipPath id="clip0_186_154">
<rect width="360" height="800" fill="white"/>
</clipPath>
</defs>
</svg>
