<svg width="412" height="974" viewBox="0 0 412 974" fill="none" xmlns="http://www.w3.org/2000/svg">
<path d="M0 12C0 5.37259 5.37258 0 12 0H400C406.627 0 412 5.37258 412 12V962C412 968.627 406.627 974 400 974H12C5.37259 974 0 968.627 0 962V12Z" fill="url(#paint0_radial_9_3)"/>
<path d="M175.333 147.816C175.75 147.816 175.958 148.347 175.958 149.411C175.958 149.989 175.715 150.694 175.229 151.526C174.744 152.336 174.108 153.087 173.322 153.781C172.559 154.451 171.704 155.006 170.756 155.445C169.808 155.884 168.883 156.104 167.981 156.104C166.756 156.104 165.935 155.029 165.519 152.879C164.918 153.873 164.132 154.694 163.161 155.341C162.19 155.965 160.884 156.277 159.242 156.277C157.624 156.277 156.318 155.769 155.324 154.752C154.329 153.734 153.844 152.497 153.867 151.041C153.867 147.111 155.173 144.013 157.786 141.747C158.895 140.799 159.924 140.175 160.872 139.874C161.843 139.574 162.86 139.423 163.924 139.423C164.987 139.423 165.854 139.608 166.525 139.978C166.849 139.308 167.218 138.973 167.635 138.973C168.444 138.973 169.207 139.331 169.923 140.048C170.663 140.741 171.033 141.4 171.033 142.024C170.709 142.787 170.236 143.7 169.611 144.764C169.426 145.827 169.334 147.319 169.334 149.238C169.334 151.156 169.577 152.116 170.062 152.116C170.663 152.116 172.12 150.914 174.432 148.509C174.848 148.047 175.148 147.816 175.333 147.816ZM158.965 149.896C158.965 151.677 159.624 152.567 160.942 152.567C162.352 152.544 163.519 151.792 164.444 150.313C164.768 149.804 165.034 149.18 165.242 148.44C165.242 145.851 165.473 143.631 165.935 141.782C164.063 142.151 162.433 143.053 161.046 144.487C159.658 145.92 158.965 147.723 158.965 149.896ZM193.229 145.458C193.229 144.695 192.79 144.313 191.911 144.313C191.31 144.313 190.64 144.903 189.9 146.082C189.16 147.238 188.628 148.486 188.304 149.827V149.896C188.304 150.683 188.42 151.492 188.651 152.324C188.906 153.156 189.033 153.734 189.033 154.058C189.033 154.844 188.05 155.619 186.085 156.381C185.784 156.497 185.519 156.555 185.287 156.555C184.709 156.555 184.305 156.254 184.074 155.653C183.866 155.052 183.761 154.243 183.761 153.226C183.761 152.185 183.785 151.214 183.831 150.313C183.9 149.388 183.958 148.544 184.004 147.781C184.074 146.995 184.131 146.313 184.178 145.735C184.247 145.134 184.282 144.648 184.282 144.278C184.282 143.492 183.923 143.099 183.207 143.099C182.49 143.099 181.658 143.943 180.71 145.631C179.762 147.296 179.288 148.625 179.288 149.619C179.288 150.59 179.403 151.492 179.635 152.324C179.889 153.156 180.016 153.734 180.016 154.058C180.016 154.844 179.034 155.619 177.068 156.381C176.768 156.497 176.502 156.555 176.271 156.555C175.693 156.555 175.288 156.254 175.057 155.653C174.849 155.052 174.745 154.127 174.745 152.879C174.745 149.596 174.872 147.226 175.126 145.77C175.473 143.62 176.259 141.585 177.485 139.666C177.901 139.019 178.352 138.695 178.837 138.695C179.6 138.695 180.305 139.319 180.952 140.568C181.137 140.891 181.276 141.192 181.369 141.469C182.478 140.082 183.785 139.389 185.287 139.389C186.282 139.389 187.172 139.724 187.958 140.394C188.744 141.042 189.137 141.862 189.137 142.857V143.238C190.547 141.481 192.269 140.602 194.304 140.602C195.552 140.602 196.5 140.926 197.148 141.573C197.795 142.221 198.119 143.018 198.119 143.966C198.119 144.914 198.049 145.77 197.911 146.533C197.772 147.296 197.61 148.012 197.425 148.683C197.263 149.353 197.113 149.954 196.974 150.486C196.836 150.995 196.766 151.399 196.766 151.7C196.766 151.977 196.859 152.116 197.044 152.116C197.39 152.116 197.818 151.896 198.327 151.457C198.835 151.018 199.344 150.544 199.853 150.035C200.361 149.503 200.824 149.018 201.24 148.579C201.679 148.139 201.98 147.92 202.141 147.92C202.465 147.92 202.627 148.313 202.627 149.099C202.627 150.717 201.806 152.289 200.165 153.815C198.546 155.341 196.812 156.104 194.963 156.104C193.298 156.104 192.466 154.59 192.466 151.561C192.466 150.798 192.593 149.746 192.847 148.405C193.102 147.064 193.229 146.082 193.229 145.458ZM235.002 147.816C235.395 147.816 235.591 148.347 235.591 149.411C235.591 149.989 235.349 150.694 234.863 151.526C234.378 152.336 233.742 153.087 232.956 153.781C232.193 154.451 231.337 155.006 230.389 155.445C229.442 155.884 228.436 156.104 227.372 156.104C226.332 156.104 225.511 155.769 224.91 155.098C224.332 154.405 224.043 153.642 224.043 152.81C224.043 151.954 224.182 150.995 224.459 149.931C224.737 148.868 225.037 147.758 225.361 146.602C226.24 143.527 226.69 141.365 226.714 140.117C226.714 139.585 226.644 139.181 226.505 138.903C226.367 138.603 226.101 138.452 225.708 138.452C225.014 138.452 224.274 138.869 223.488 139.701C222.702 140.533 221.962 141.597 221.269 142.891C219.674 145.851 218.83 148.74 218.737 151.561C218.784 151.885 218.83 152.208 218.876 152.532C218.922 152.856 218.945 153.203 218.945 153.572C218.945 154.312 218.575 154.994 217.836 155.619C217.119 156.22 216.31 156.52 215.408 156.52C214.876 156.52 214.483 156.266 214.229 155.757C213.975 155.225 213.848 154.578 213.848 153.815C213.848 153.052 214.021 152.012 214.368 150.694C214.715 149.376 215.096 147.978 215.512 146.498C216.622 142.591 217.188 139.678 217.211 137.759C217.211 136.788 217.084 136.025 216.83 135.47C216.599 134.915 216.136 134.638 215.443 134.638C214.194 134.638 212.957 135.528 211.732 137.308C210.507 139.088 209.409 141.851 208.438 145.596C208.183 146.567 207.987 147.411 207.848 148.128L207.813 148.787C208.253 150.914 208.472 152.301 208.472 152.948C208.472 154.289 207.998 155.191 207.05 155.653C206.611 155.861 206.183 156.058 205.767 156.243C205.374 156.428 204.947 156.52 204.484 156.52C203.328 156.52 202.75 155.422 202.75 153.226C202.75 151.006 203.363 146.683 204.588 140.256C205.027 137.944 205.247 136.649 205.247 136.372C205.247 134.499 204.773 133.563 203.825 133.563C203.502 133.563 203.201 133.655 202.924 133.84C202.669 134.025 202.403 134.221 202.126 134.43C201.872 134.638 201.606 134.834 201.328 135.019C201.051 135.204 200.727 135.297 200.357 135.297C200.011 135.297 199.837 134.984 199.837 134.36C199.837 133.089 200.427 132.048 201.606 131.239C202.739 130.407 204.114 129.991 205.733 129.991C207.813 129.991 209.039 130.962 209.409 132.904C209.501 133.482 209.57 134.094 209.617 134.742C211.328 131.528 213.489 129.921 216.102 129.921C218.945 129.921 220.575 131.285 220.991 134.013C221.13 134.799 221.188 135.643 221.165 136.545V136.822C222.668 134.742 224.448 133.701 226.505 133.701C229.418 133.701 230.875 135.458 230.875 138.973C230.875 140.498 230.632 142.29 230.147 144.348C229.684 146.382 229.338 147.85 229.106 148.752C228.898 149.631 228.794 150.313 228.794 150.798C228.794 151.677 229.095 152.116 229.696 152.116C230.32 152.116 231.788 150.914 234.1 148.509C234.516 148.047 234.817 147.816 235.002 147.816ZM260.498 147.816C260.891 147.816 261.088 148.347 261.088 149.411C261.088 149.989 260.845 150.694 260.36 151.526C259.874 152.336 259.238 153.087 258.452 153.781C257.689 154.451 256.834 155.006 255.886 155.445C254.938 155.884 254.013 156.104 253.112 156.104C251.748 156.104 250.8 155.769 250.268 155.098C249.759 154.405 249.505 153.399 249.505 152.081C249.505 150.74 250.025 148.452 251.066 145.215C247.875 145.076 245.552 145.007 244.095 145.007H243.61C243.193 147.573 242.985 150.266 242.985 153.087C242.985 154.335 242.511 155.191 241.563 155.653C241.124 155.861 240.697 156.058 240.28 156.243C239.887 156.428 239.46 156.52 238.997 156.52C237.841 156.52 237.263 155.48 237.263 153.399C237.263 151.318 237.737 148.648 238.685 145.388C237.668 145.504 236.766 145.619 235.98 145.735C235.217 145.851 234.616 145.908 234.177 145.908C233.738 145.908 233.518 145.793 233.518 145.562C233.518 144.868 234.084 144.163 235.217 143.446C236.373 142.729 237.934 142.186 239.899 141.816C242.072 136.291 244.731 132.603 247.875 130.754C249.031 130.06 250.256 129.713 251.551 129.713C253.863 129.736 255.528 130.361 256.545 131.586C257.585 132.811 258.105 134.441 258.105 136.476C258.129 138.487 257.516 141.111 256.267 144.348C255.805 145.596 255.377 146.729 254.984 147.746C254.591 148.764 254.395 149.584 254.395 150.209C254.395 150.833 254.441 151.307 254.533 151.63C254.626 151.954 254.846 152.116 255.192 152.116C255.817 152.116 257.285 150.914 259.597 148.509C260.013 148.047 260.313 147.816 260.498 147.816ZM253.112 137.481C253.112 135.47 252.36 134.464 250.858 134.464C249.332 134.464 248.014 135.112 246.904 136.406C245.817 137.678 244.974 139.389 244.373 141.539L252.245 141.643C252.823 139.793 253.112 138.406 253.112 137.481Z" fill="#F16441"/>
<defs>
<radialGradient id="paint0_radial_9_3" cx="0" cy="0" r="1" gradientUnits="userSpaceOnUse" gradientTransform="translate(206 146.1) rotate(90) scale(827.9 350.2)">
<stop stop-color="#FFE1C9"/>
<stop offset="1" stop-color="white"/>
</radialGradient>
</defs>
</svg>
