<svg width="303" height="325" viewBox="0 0 303 325" fill="none" xmlns="http://www.w3.org/2000/svg">
<path d="M60.6271 28.6435L60.9694 28.5863C61.7894 28.875 62.2936 29.3973 62.907 29.9818C63.8351 29.7617 64.5884 29.6915 65.5402 29.7644C66.1306 30.3517 66.2226 30.5056 66.4493 31.3067C66.1827 32.4116 65.2909 33.0798 64.4984 33.8417L62.1824 35.7705C61.083 34.523 59.3656 32.7846 59.3171 30.9958C59.2856 29.8267 59.8824 29.3882 60.6271 28.6435Z" fill="#F36148"/>
<path d="M8.71874 104.986C9.31236 104.938 9.94813 105.038 10.498 105.281C11.2455 105.611 11.9136 106.441 12.2094 107.19C13.1328 109.526 11.305 111.603 10.2913 113.563C9.75092 114.608 9.34297 115.76 8.92854 116.86L5.25003 115.138C3.5406 114.395 1.19248 113.316 0.313636 111.551C-0.0713784 110.779 -0.104913 109.622 0.230401 108.823C0.697454 107.71 1.4989 107.15 2.55016 106.673C3.8384 106.535 4.66794 106.958 5.80429 107.494C6.78359 106.423 7.28299 105.509 8.71874 104.986Z" fill="#F36148"/>
<path d="M34.8386 46.9008C36.2696 46.8472 37.7073 46.824 39.1103 47.1583C41.6892 47.7733 44.3188 49.758 45.6532 52.0497C49.7127 59.0217 43.4645 67.2729 40.5318 73.4281C39.083 76.4692 38.0481 79.4851 37.1732 82.7364C33.6785 80.4723 30.252 79.1411 26.2986 77.9563L20.7438 76.3758C16.7998 75.1251 13.1919 72.9971 11.2746 69.1825C9.93979 66.5271 9.68149 63.0924 10.6596 60.2832C11.4804 57.9252 13.1185 55.9695 15.4024 54.9291C19.0899 53.2493 22.0549 54.2527 25.6091 55.5827L27.282 52.1716C29.0167 49.2541 31.6252 47.7446 34.8386 46.9008Z" fill="#F36148"/>
<path d="M265.288 37.4668C266.791 37.6107 267.919 38.1724 268.886 39.3301C269.856 40.4938 270.238 42.0218 270.081 43.5114C269.54 48.5894 264.685 52.0545 260.997 54.9887C259.782 54.5193 258.579 53.355 257.545 52.5527C255.258 50.7229 252.363 47.9035 251.728 44.9239C251.365 43.2132 251.503 41.114 252.548 39.655C253.266 38.6487 254.548 37.7597 255.786 37.609C257.893 37.3522 259.368 38.5505 260.91 39.7791C262.35 38.5464 263.395 37.8191 265.288 37.4668Z" fill="#DDC5E5"/>
<path d="M267.939 84.4665C270.376 84.393 272.495 84.5591 274.751 85.5503C279.224 87.515 281.271 91.2251 282.967 95.5587L286.11 94.1774C289.104 93.0802 292.37 93.6497 295.175 95.0176C298.18 96.4845 300.373 99.1418 301.426 102.307C302.401 105.235 302.176 108.704 300.736 111.449C298.09 116.48 292.812 118.508 287.716 120.099C280.896 121.418 274.408 121.418 268.598 125.735C267.667 124.049 267.418 121.702 266.511 119.863C263.576 113.893 259.064 108.766 257.522 102.152C256.595 98.1679 256.808 93.5996 259.04 90.0559C261.099 86.7893 264.279 85.2825 267.939 84.4665Z" fill="#F36148"/>
<path d="M239.728 289.811C236.303 298.788 232.65 306.097 225.527 312.701C224.436 313.712 223.111 315.221 221.803 315.869C219.838 316.841 216.75 317.134 214.583 317.632C199.939 320.999 185.782 322.715 170.812 323.614C166.074 323.899 161.183 324.442 156.445 324.123C128.158 323.612 100.428 318.359 73.7377 309.057L73.9477 294.206C75.2564 289.262 76.7489 284.718 78.9965 280.112L86.7595 267.259L105.713 278.124L127.715 289.585C138.877 295.381 150.203 301.391 162.233 305.202C167.247 306.792 172.361 307.666 177.537 308.512C179.195 309.132 180.617 309.294 182.277 309.702L183.062 309.885C185.403 310.194 188.113 309.938 190.488 309.93C192.653 309.926 194.907 310.023 197.064 309.825C210.912 308.559 223.54 302.118 234.487 293.893C235.511 293.123 236.305 292.301 237.163 291.354C237.864 290.629 238.833 290.252 239.728 289.811Z" fill="#EC7E1D"/>
<path d="M156.445 324.123C128.158 323.612 100.428 318.359 73.7377 309.057L73.9477 294.205C75.2564 289.262 76.7489 284.718 78.9965 280.111C95.6334 284.693 111.224 290.629 126.298 299.149C134.228 303.632 141.838 308.536 148.549 314.74C151.651 317.608 153.567 321.178 156.445 324.123Z" fill="#E5720C"/>
<path d="M108.609 28.7136C113.624 20.7353 119.922 12.7408 127.897 7.5228C132.426 4.55985 138.14 2.39834 143.372 1.20632C155.928 -1.65538 169.657 0.628466 180.599 7.48264C182.621 8.74875 184.348 10.5983 186.332 11.7811C187.389 12.4115 188.826 12.7183 189.998 13.1143C191.603 13.6563 193.11 14.3363 194.602 15.1369C206.619 21.5836 215.437 32.067 218.484 45.5101C220.909 56.2099 219.446 66.4917 215.298 76.5499C214.299 78.9721 213.262 81.553 211.873 83.7812C211.438 84.479 211.022 85.056 210.307 85.4906C210.01 83.978 213.042 79.0474 213.773 77.4673C214.643 75.5863 215.401 73.6579 216.043 71.6876C221.723 54.2556 217.551 32.9457 202.389 21.4936L202.247 21.69C210.675 31.3482 215.632 41.9474 214.77 55.0588C214.463 59.7266 213.518 64.3045 211.57 68.5817C208.902 74.4426 202.675 80.5954 202.914 87.3798C203.078 92.0294 204.954 96.1757 206.776 100.363C209.377 105.638 212.559 110.274 216.885 114.286C221.25 118.333 226.62 121.405 231.666 124.516C239.36 129.261 247.281 134.455 253.435 141.158C262.204 150.708 266.748 162.378 266.172 175.396C265.817 183.426 263.064 191.074 258.934 197.917C257.593 200.138 256.382 202.176 254.449 203.945C255.317 200.677 257.597 197.852 259.324 194.973C260.527 192.97 261.462 190.761 262.255 188.568C265.343 180.051 265.963 170.732 263.6 161.955C258.95 144.654 245.923 134.699 231.306 125.728C226.098 122.533 220.622 119.478 216.11 115.315C211.644 111.196 208.319 106.306 205.763 100.819L202.907 94.0489C203.63 98.3089 204.502 102.382 206.147 106.402C210.521 117.085 218.803 124.596 228.007 131.132C241.808 140.932 255.585 150.811 258.67 168.685C260.512 179.359 257.179 190.381 250.986 199.082C245.305 207.063 237.455 212.807 229.762 218.685C226.436 214.832 223.128 211.388 219.276 208.052C213.774 203.429 207.876 199.526 201.091 197.034C206.74 190.168 213.226 184.485 215.007 175.325C215.45 173.041 215.356 170.722 215.25 168.411C215.37 166.491 214.699 164.629 214.098 162.834C212.942 159.386 211.126 156.006 208.741 153.254C203.857 147.618 197.205 143.829 192.512 138.017C189.929 134.817 188.989 131.518 187.329 127.892C184.256 121.178 176.804 117.515 170.226 115.038L154.563 109.65L155.067 112.102C155.563 114.453 156.283 116.233 154.771 118.392C153.658 119.983 151.979 121.157 150.059 121.503C140.577 123.211 125.564 107.819 117.944 102.653C113.654 106.852 109.011 110.238 103.641 112.919L92.8067 117.065C80.445 122.153 74.2749 132.315 69.3219 144.209L58.6319 179.118L54.2879 196.934C48.8806 191.701 44.285 184.745 41.2586 177.878C28.94 149.928 40.8815 126.27 62.0236 107.024C71.8892 98.0433 84.5657 90.4812 92.0217 79.2208C94.0515 76.1548 95.4769 72.7508 96.7991 69.3358C92.5447 74.8054 88.3833 80.1284 83.0281 84.5961C68.2305 96.9412 49.6627 104.065 37.705 119.884C26.8607 134.228 24.4823 153.351 32.134 169.777C33.1027 171.856 34.2143 173.896 35.4083 175.854C36.4898 177.627 37.9351 179.421 38.2246 181.517L37.2192 180.357C29.2022 170.545 25.6275 156.349 26.8998 143.902C29.0865 122.51 44.999 108.824 61.9202 97.7518C68.3858 93.521 75.0356 89.7992 81.0417 84.8943C87.3901 79.7094 95.3337 71.8969 98.1847 63.986C99.7127 59.7458 100.185 54.9337 100.641 50.4652C101.067 43.0075 104.526 34.9286 108.609 28.7136Z" fill="#2E4754"/>
<path d="M108.609 28.7138L108.845 28.6925C110.588 28.5019 111.9 27.3813 113.493 26.7553C115.956 25.7878 118.913 25.6573 121.539 25.6182C127.341 25.5322 133.294 27.2338 138.85 28.741C143.498 30.0021 148.196 31.3943 153.006 31.8807C160.478 32.6361 168.1 31.0189 175.106 28.4897C178.507 27.2622 181.698 25.6104 185.147 24.4751C178.763 33.3555 167.393 37.753 156.919 39.367C151.667 40.1764 145.888 39.5291 140.725 38.4542C128.929 35.9981 114.521 29.7987 105.595 41.7553C104.371 43.3934 103.498 45.2448 102.708 47.1192C102.275 48.1444 101.736 50.0806 100.877 50.7875L100.641 50.4652C101.066 43.0077 104.526 34.9289 108.609 28.7138Z" fill="#1C3542"/>
<path d="M118.316 51.2285C117.939 55.2112 117.566 59.189 120.283 62.5C122.298 64.9557 125.209 65.8729 128.267 66.1548C128.304 71.8808 128.609 77.7729 127.697 83.4449C126.564 90.4871 122.848 97.4856 117.944 102.653C113.654 106.852 109.011 110.237 103.641 112.918L92.8068 117.064C80.4451 122.153 74.275 132.315 69.322 144.209L58.632 179.118C58.4611 178.993 58.4032 178.962 58.2482 178.783C57.4254 177.838 57.0992 176.015 56.8424 174.822C55.702 169.522 55.4611 163.742 55.919 158.334C56.3982 152.672 58.3164 146.947 60.8009 141.858C64.6131 134.05 69.9404 127.386 76.2876 121.491C80.0727 117.976 84.3381 114.881 88.2974 111.551C95.9183 105.14 102.711 97.8864 107.238 88.9312C109.121 85.2053 110.52 81.1178 111.549 77.0772C113.332 70.0748 113.864 62.7884 116.078 55.883C116.597 54.2629 116.969 52.3701 118.316 51.2285Z" fill="#1A3440"/>
<path d="M185.189 32.6664L185.909 32.491C192.994 39.2785 197.347 46.9798 197.574 57.0257C197.788 66.5438 194.203 73.8413 191.04 82.5429C186.464 95.1349 185.279 110.447 192.379 122.372C195.262 127.214 199.198 131.119 203.237 134.991L213.109 143.977C223.1 153.765 232.264 166.349 232.546 180.914C232.735 190.634 227.988 199.094 221.38 205.949L219.276 208.053C213.774 203.429 207.876 199.526 201.091 197.034C206.74 190.168 213.226 184.485 215.007 175.325C215.45 173.041 215.356 170.722 215.25 168.412C215.37 166.492 214.699 164.63 214.098 162.834C212.942 159.387 211.126 156.006 208.741 153.254C203.857 147.618 197.205 143.829 192.512 138.017C189.929 134.818 188.988 131.519 187.329 127.893C184.256 121.178 176.804 117.515 170.226 115.038L154.563 109.65C154.358 109.56 154.173 109.465 153.988 109.336C152.143 108.051 151.801 104.161 151.485 102.068C154.505 102.916 158.463 103.162 161.547 102.524C171.037 100.56 181.181 95.5879 185.066 86.1165C186.019 83.7913 186.487 81.2373 187.235 78.8383C188.616 74.4091 190.759 70.5425 193.303 66.698C194.5 65.2551 195.254 62.8829 195.459 61.0418C196.633 50.4753 191.487 40.6983 185.189 32.6664Z" fill="#1A3440"/>
<path d="M132.487 54.4958C134.252 54.1409 136.226 51.0101 137.641 49.8221C138.987 48.6917 140.695 47.6294 142.317 46.9416C146.439 45.1934 151.765 45.4309 156.202 44.9457C161.649 44.3497 167.219 43.0485 172.242 40.8361C175.559 39.3755 178.313 37.5256 181.02 35.118C182.118 34.1425 183.052 32.9123 184.337 32.1932L185.189 32.6665C191.486 40.6984 196.632 50.4753 195.458 61.0414C195.253 62.8826 194.5 65.2549 193.303 66.6976C190.758 70.5422 188.615 74.4089 187.235 78.838C186.486 81.237 186.019 83.7909 185.065 86.1161C181.181 95.5877 171.036 100.56 161.546 102.524C158.462 103.162 154.505 102.915 151.485 102.068C151.8 104.16 152.143 108.051 153.987 109.335C154.172 109.464 154.357 109.56 154.562 109.65L155.066 112.102C155.562 114.453 156.282 116.233 154.77 118.392C153.657 119.983 151.978 121.157 150.058 121.503C140.576 123.211 125.563 107.819 117.943 102.653C122.847 97.4859 126.563 90.4874 127.696 83.4451C128.609 77.7732 128.303 71.8811 128.266 66.155C125.208 65.873 122.297 64.956 120.282 62.5002C117.566 59.1894 117.938 55.2115 118.315 51.2288C119.476 48.3028 120.646 45.6539 123.712 44.2962C125.783 43.3788 126.972 43.3921 129.049 44.3052C130.47 44.93 131.578 46.3791 132.075 47.8152C132.791 49.8821 132.958 52.3556 132.487 54.4958Z" fill="#FCC2AB"/>
<path d="M171.628 74.7945C172.971 76.7004 174.778 79.088 175.012 81.4783C175.134 82.7242 174.793 83.4536 173.99 84.3742C172.778 85.0652 171.793 85.0234 170.44 84.9957C169.81 84.8912 169.506 84.782 168.98 84.4219C169.187 84.2306 169.336 84.1296 169.619 84.0873L171.623 83.7797C172.574 83.4945 173.023 83.0276 173.489 82.2012C173.26 79.6122 172.427 77.2487 171.628 74.7945Z" fill="#E5720C"/>
<path d="M179.257 73.3245L179.668 73.332L180.361 74.1726C181.143 75.0817 181.776 75.759 183.047 75.8426C184.65 75.9484 184.574 75.3728 185.675 74.4065L186.119 74.7422L185.786 76.5795L185.653 76.8154C185.031 77.843 183.859 78.5292 182.717 78.7596C181.722 78.6381 181.012 78.2748 180.353 77.5017C179.237 76.19 179.137 74.9417 179.257 73.3245Z" fill="#1A3440"/>
<path d="M192.713 65.5073C191.541 63.8207 189.745 62.7526 188.075 61.6268C187.198 61.036 186.064 60.3813 185.63 59.4168L186.266 58.7356C187.911 58.5825 189.055 58.8358 190.466 59.7177L191.561 60.4426C192.294 61.4974 193.197 62.5289 193.286 63.8553C193.117 64.4207 192.978 64.9784 192.713 65.5073Z" fill="#1A3440"/>
<path d="M152.876 62.08C153.098 62.101 153.284 62.1727 153.495 62.2417C153.746 63.1327 154 64.0226 154.469 64.8268C155.25 66.1663 156.586 67.3899 158.147 67.7185C159.74 68.0534 160.844 66.5364 162.009 65.7526L162.453 66.2077L161.888 67.7361C161.165 68.5734 160.365 69.5766 159.37 70.0904C158.54 70.52 157.666 70.6727 156.78 70.3172C155.13 69.6557 153.534 67.9451 152.833 66.3279C152.261 65.008 152.374 63.399 152.876 62.08Z" fill="#1A3440"/>
<path d="M154.909 85.9438C157.463 87.8867 159.851 89.5343 162.767 90.9053C164.087 91.5257 167.155 92.0934 168.084 93.0203L167.687 93.4459L167.197 93.6537C164.798 94.4671 161.959 94.2875 159.692 93.1571C156.717 91.6742 155.885 88.8803 154.909 85.9438Z" fill="#E5720C"/>
<path d="M154.336 48.0781C157.98 47.9685 162.378 47.705 165.371 50.1765C166.198 50.8589 166.524 51.5716 166.62 52.6113C165.858 53.0437 165.734 52.9095 164.902 52.7486C163.202 52.0442 161.334 51.2202 159.52 50.909C157.524 50.5659 154.317 51.0009 152.575 50.224C152.006 49.9703 151.931 49.9202 151.696 49.3567C152.123 48.9966 152.536 48.7303 153.059 48.5291L154.336 48.0781Z" fill="#1A3440"/>
<path d="M132.487 54.4958C134.252 54.1409 136.226 51.0101 137.641 49.8221C138.988 48.6917 140.696 47.6294 142.318 46.9416C146.439 45.1934 151.765 45.4309 156.202 44.9457C161.649 44.3497 167.22 43.0485 172.243 40.8361C175.559 39.3755 178.313 37.5256 181.021 35.118C182.118 34.1425 183.053 32.9123 184.338 32.1932L185.189 32.6665C191.486 40.6984 196.632 50.4753 195.459 61.0414C195.254 62.8826 194.5 65.2549 193.303 66.6976L192.713 65.508C192.978 64.979 193.118 64.4213 193.286 63.8561C193.197 62.5295 192.294 61.4981 191.561 60.4434C191.758 60.1373 191.851 59.9295 191.881 59.5584C192.001 58.0859 191.765 56.4629 191.612 54.9956C190.814 47.338 187.778 41.0617 182.841 35.2529C181.013 37.5114 179.154 39.4205 176.643 40.9403C170.116 44.8894 161.274 45.509 153.848 45.8912C150.318 46.0731 146.596 46.0703 143.228 47.2477C140.906 48.0599 138.892 49.4112 137.139 51.1325C136.014 52.2381 134.479 54.5257 133.018 55.0216L132.487 54.4958Z" fill="#E5720C"/>
<path d="M252.99 260.807C252.018 256.681 250.788 252.951 247.024 250.604L244.728 250.01C242.553 242.71 240.335 235.666 236.549 229.01C234.499 225.405 232.041 222.133 229.761 218.686C226.435 214.833 223.127 211.387 219.276 208.053C213.773 203.428 207.876 199.527 201.09 197.034C195.886 196.075 190.686 195.435 185.378 195.716C170.622 196.497 155.481 202.832 143.423 211.165C131.907 219.124 121.596 229.149 115.99 242.189C114.97 244.566 114.079 246.977 113.312 249.449C112.793 251.125 112.419 252.918 111.644 254.496L103.335 247.227C101.669 245.757 99.8415 244.321 98.3713 242.651C97.3473 241.121 95.3056 239.658 93.9546 238.366C89.3844 233.998 84.8385 228.979 79.616 225.415C78.8364 224.688 77.8712 224.09 77.0028 223.466L83.6309 210.694L90.7699 195.601L96.7032 183.821C97.8765 180.814 99.5123 177.879 100.833 174.921C104.527 166.649 106.789 158.595 107.368 149.546C107.36 142.281 107.823 134.038 104.816 127.288C102.277 121.591 98.3936 119.178 92.8056 117.064C80.4441 122.153 74.2746 132.315 69.3227 144.21L58.6313 179.117L54.2874 196.934L50.7492 211.823C48.7762 220.293 44.2302 230.629 49.2992 238.742C51.1268 241.664 53.7966 244.057 56.3675 246.315L58.2417 247.914L66.9639 254.292C68.5291 255.433 70.393 256.568 71.7381 257.945L86.7594 267.259L105.713 278.124L127.715 289.585C138.877 295.381 150.203 301.391 162.233 305.202C167.247 306.791 172.361 307.666 177.537 308.512C179.195 309.132 180.617 309.294 182.277 309.702L183.062 309.885C185.403 310.194 188.113 309.938 190.488 309.93C192.653 309.926 194.907 310.023 197.064 309.825C210.911 308.558 223.54 302.118 234.487 293.893C235.511 293.123 236.305 292.301 237.163 291.354C237.864 290.629 238.833 290.252 239.728 289.811C240.294 289.098 241.138 288.567 241.863 288.022C244.916 285.714 248.335 282.751 250.347 279.5C253.727 274.035 254.448 267.011 252.99 260.807Z" fill="#E5720C"/>
<path d="M226.585 272.242C226.665 272.011 226.731 271.815 226.875 271.614C229.516 267.922 234.68 265.457 238.133 262.497C239.194 261.587 240.184 260.57 241.175 259.584C241.376 259.383 241.887 258.733 242.124 258.632C242.307 258.554 242.514 258.561 242.709 258.526L242.795 259.269C240.356 264.963 231.751 269.208 226.585 272.242Z" fill="#EC7E1D"/>
<path d="M250.346 279.499C248.335 282.751 244.916 285.713 241.862 288.022C241.138 288.567 240.293 289.098 239.728 289.811C238.833 290.251 237.864 290.629 237.163 291.354C234.164 292.339 231.878 293.81 228.57 293.64L228.17 293.177C231.999 289.31 237.557 287.923 240.845 283.361C238.991 284.298 237.456 285.895 235.798 287.139C234.001 288.484 232.031 289.429 230.137 290.601C228.689 291.495 227.306 292.695 225.698 293.289C224.218 293.836 223.2 293.985 221.619 293.834C220.989 293.329 220.647 293.262 220.55 292.438C221.9 290.512 224.983 289.449 227.033 288.385C229.305 287.206 231.613 285.903 233.702 284.419C236.022 282.771 237.959 280.618 239.772 278.445C235.899 281.123 232.399 284.102 228.386 286.632C225.771 288.28 223.56 289.603 220.435 289.886C219.567 289.544 219.444 289.342 218.866 288.591L218.969 287.852C221.457 284.09 225.862 282.147 229.638 279.905C229.513 278.623 229.634 277.336 229.713 276.054L227.045 276.666C226.023 276.837 225.369 276.642 224.537 276.054L224.438 274.98C224.947 273.75 225.601 273.114 226.585 272.241C231.751 269.208 240.356 264.963 242.795 259.27L243.06 258.684C242.848 257.256 241.915 256.78 240.839 255.895C240.051 255.249 238.617 254.033 238.603 252.935C238.591 252.167 238.674 251.802 239.195 251.257C240.596 249.79 242.846 250.063 244.728 250.01L247.024 250.604C250.789 252.951 252.019 256.681 252.99 260.807C254.448 267.011 253.727 274.035 250.346 279.499Z" fill="#F6B29D"/>
<path d="M229.712 276.055L240.649 271.466C237.174 274.787 233.776 277.449 229.637 279.905C229.513 278.624 229.635 277.337 229.712 276.055Z" fill="#EC7E1D"/>
<path d="M199.859 295.811C198.425 297.758 195.234 298.277 193 298.703L194.394 299.445C194.975 299.899 195.674 300.329 195.979 301.02C195.468 302.177 194.374 303.082 193.182 303.514L190.013 304.293L188.943 304.903L188.913 305.041C188.43 306.186 188.2 306.721 187.006 307.22C184.264 308.369 180.481 308.268 177.537 308.512C172.361 307.666 167.247 306.791 162.233 305.202C150.203 301.391 138.877 295.381 127.715 289.585L105.713 278.124L86.7595 267.259L71.7382 257.945C70.3932 256.568 68.5293 255.433 66.964 254.292L58.2418 247.914L56.3676 246.315C53.7967 244.057 51.1269 241.664 49.2992 238.742C44.2302 230.629 48.7761 220.293 50.7493 211.823L54.2875 196.934L58.6314 179.117L69.3228 144.21C74.2747 132.315 80.4443 122.153 92.8057 117.064C98.3937 119.178 102.277 121.591 104.816 127.288C107.823 134.038 107.36 142.281 107.368 149.546C106.789 158.595 104.527 166.649 100.833 174.921C99.5125 177.879 97.8766 180.814 96.7033 183.821L90.77 195.601L83.631 210.694L77.0029 223.466C77.8713 224.09 78.8366 224.688 79.6161 225.415C84.8386 228.979 89.3846 233.998 93.9547 238.366C95.3057 239.658 97.3474 241.121 98.3714 242.651C99.8416 244.322 101.669 245.757 103.335 247.227L111.644 254.496C122.058 263.23 132.74 271.569 144.604 278.247C148.52 276.805 152.387 275.367 156.544 274.788C160.332 274.261 164.066 275.133 167.833 275.256L174.889 275.248C175.858 275.266 177.129 275.23 178.027 275.654C178.467 275.862 178.815 276.242 179.126 276.607C179.069 277.545 178.9 278.348 178.195 279.023C177.33 279.849 176.171 280.087 175.054 280.388C171.078 281.456 166.718 281.359 162.638 282.034C169.638 287.018 179.398 288.886 187.87 289.157C190.732 289.248 193.642 288.935 196.471 289.421L196.809 289.474C197.477 289.589 197.915 289.827 198.463 290.219L198.737 290.811C198.18 291.907 197.354 292.493 196.195 292.883C192.531 294.117 188.438 294.258 184.609 294.137C183.165 294.093 181.614 293.794 180.202 294.111C183.821 294.959 188.803 295.329 192.465 294.705C194.412 294.373 196.324 293.57 198.335 293.628C199.026 293.648 199.499 293.955 200.022 294.375C200.139 295.018 200.287 295.232 199.859 295.811Z" fill="#F6B29D"/>
<path d="M194.393 299.444C187.467 300.053 181.098 301.667 174.302 299.342C176.572 298.904 179.54 299.554 181.868 299.538C185.561 299.514 189.324 299.053 193 298.703L194.393 299.444Z" fill="#E5720C"/>
<path d="M188.913 305.039C186.927 305.335 184.564 305.128 182.56 305.058C177.76 304.89 173.114 304.437 168.475 303.133C171.411 302.964 174.348 303.282 177.276 303.48L190.014 304.293L188.944 304.903L188.913 305.039Z" fill="#E5720C"/>
<path d="M79.6159 225.416C78.1778 225.578 74.8641 223.502 73.3054 222.987C71.3762 222.349 69.4119 221.911 67.4294 221.48C77.7336 218.403 82.265 209.208 87.3619 200.597C88.3791 198.879 89.1847 196.874 90.7695 195.602L83.6314 210.696L77.003 223.466C77.8717 224.09 78.8373 224.688 79.6159 225.416Z" fill="#E5720C"/>
<path d="M214.098 162.834C212.943 159.387 211.125 156.006 208.74 153.253C203.857 147.617 197.204 143.828 192.511 138.016C189.928 134.817 188.987 131.517 187.329 127.892C184.255 121.177 176.803 117.514 170.225 115.038L154.562 109.65L155.067 112.101C155.562 114.452 156.283 116.233 154.77 118.392C153.657 119.982 151.979 121.157 150.059 121.502C140.577 123.211 125.564 107.82 117.942 102.654C113.653 106.853 109.01 110.237 103.64 112.919L92.8052 117.063C98.3931 119.178 102.277 121.591 104.815 127.288C107.822 134.037 107.36 142.281 107.368 149.545L107.754 149.37C108.729 150.448 108.614 153.584 108.739 155.044C110.122 171.372 113.273 187.829 129.641 195.635C133.813 197.624 138.858 199.308 143.519 199.508C154.875 199.997 168.42 195.481 176.789 187.549L181.119 183.197C188.613 185.364 197.796 186.654 204.957 182.647C209.004 180.381 211.983 176.896 213.687 172.588C214.206 171.279 214.509 169.591 215.248 168.412C215.37 166.491 214.7 164.629 214.098 162.834Z" fill="#E5720C"/>
<path d="M181.617 139.239C181.949 147.902 179.975 155.55 176.865 163.577L157.998 154.678C151.378 151.537 143.977 148.323 138.376 143.527C140.34 143.554 142.162 144.321 144.034 144.836C150.596 146.644 156.941 148.747 163.024 151.838C164.724 152.702 166.347 153.663 167.944 154.703C168.941 155.352 170.13 156.361 171.337 156.479C171.897 156.534 172.298 156.349 172.656 155.881C173.184 155.195 173.569 153.454 173.831 152.606C175.425 147.456 177.385 142.786 181.617 139.239Z" fill="#FEFEFE"/>
<path d="M117.943 102.653C125.564 107.819 140.576 123.211 150.058 121.503C151.978 121.157 153.657 119.982 154.771 118.392C156.283 116.233 155.563 114.453 155.067 112.102L154.563 109.649L170.226 115.037C171.729 116.999 172.953 119.207 174.203 121.339C177.449 126.877 180.34 132.906 181.617 139.238C177.385 142.785 175.425 147.455 173.832 152.605C173.569 153.453 173.184 155.194 172.657 155.88C172.298 156.348 171.897 156.533 171.338 156.478C170.13 156.36 168.941 155.351 167.944 154.702C166.348 153.662 164.724 152.7 163.024 151.837C156.942 148.746 150.597 146.643 144.034 144.835C142.162 144.32 140.34 143.554 138.376 143.526C136.398 143.116 126.791 133.205 124.638 131.287L103.641 112.918C109.011 110.237 113.654 106.852 117.943 102.653Z" fill="#F6B29D"/>
<path d="M215.249 168.412C214.51 169.591 214.207 171.28 213.688 172.588C211.984 176.896 209.005 180.382 204.958 182.647C197.796 186.654 188.614 185.364 181.119 183.197L176.789 187.549C168.42 195.482 154.876 199.997 143.52 199.508C138.859 199.308 133.814 197.624 129.642 195.635C113.273 187.829 110.123 171.372 108.74 155.045C108.614 153.584 108.73 150.448 107.754 149.37L107.369 149.545C106.789 158.595 104.527 166.649 100.833 174.921C99.5126 177.879 97.8768 180.814 96.7034 183.821L90.7701 195.601L83.6311 210.694L107.183 219.594C105.862 227.796 101.789 235.193 98.3715 242.651C99.8417 244.321 101.669 245.757 103.335 247.227L111.644 254.496C112.419 252.918 112.793 251.125 113.312 249.449C114.079 246.977 114.97 244.566 115.99 242.189C121.596 229.149 131.908 219.124 143.423 211.165C155.481 202.832 170.622 196.497 185.378 195.716C190.686 195.435 195.886 196.075 201.09 197.034C206.739 190.168 213.226 184.485 215.007 175.324C215.451 173.04 215.356 170.722 215.249 168.412Z" fill="#EC7E1D"/>
<path d="M96.7034 183.821C98.8913 187.835 100.668 191.963 102.395 196.193C105.576 203.983 108.021 211.044 107.183 219.595L83.6315 210.695L90.7695 195.601L96.7034 183.821Z" fill="#1A3440"/>
</svg>
