<svg width="412" height="974" viewBox="0 0 412 974" fill="none" xmlns="http://www.w3.org/2000/svg">
<path d="M0 12C0 5.37259 5.37258 0 12 0H400C406.627 0 412 5.37258 412 12V962C412 968.627 406.627 974 400 974H12C5.37259 974 0 968.627 0 962V12Z" fill="url(#paint0_radial_5_187)"/>
<circle cx="206" cy="362" r="152" fill="#FFDABD"/>
<path d="M68.4651 593V585.86L62.6211 575.72H65.5491L69.7371 582.98L73.9251 575.72H76.8531L71.0091 585.86V593H68.4651ZM82.2338 593.36C80.9378 593.36 79.8138 593.068 78.8618 592.484C77.9098 591.9 77.1738 591.096 76.6538 590.072C76.1418 589.04 75.8858 587.852 75.8858 586.508C75.8858 585.156 76.1498 583.968 76.6778 582.944C77.2058 581.912 77.9458 581.112 78.8978 580.544C79.8498 579.968 80.9618 579.68 82.2338 579.68C83.5298 579.68 84.6538 579.972 85.6058 580.556C86.5578 581.14 87.2938 581.944 87.8138 582.968C88.3338 583.992 88.5938 585.172 88.5938 586.508C88.5938 587.86 88.3298 589.052 87.8018 590.084C87.2818 591.108 86.5458 591.912 85.5938 592.496C84.6418 593.072 83.5218 593.36 82.2338 593.36ZM82.2338 590.996C83.4738 590.996 84.3978 590.58 85.0058 589.748C85.6218 588.908 85.9298 587.828 85.9298 586.508C85.9298 585.156 85.6178 584.076 84.9938 583.268C84.3778 582.452 83.4578 582.044 82.2338 582.044C81.3938 582.044 80.7018 582.236 80.1578 582.62C79.6138 582.996 79.2098 583.52 78.9458 584.192C78.6818 584.856 78.5498 585.628 78.5498 586.508C78.5498 587.868 78.8618 588.956 79.4858 589.772C80.1098 590.588 81.0258 590.996 82.2338 590.996ZM96.1148 593.348C95.2188 593.348 94.4668 593.204 93.8588 592.916C93.2508 592.628 92.7548 592.252 92.3708 591.788C91.9948 591.316 91.7068 590.804 91.5068 590.252C91.3068 589.7 91.1708 589.16 91.0988 588.632C91.0268 588.104 90.9908 587.64 90.9908 587.24V580.04H93.5348V586.412C93.5348 586.916 93.5748 587.436 93.6548 587.972C93.7428 588.5 93.9028 588.992 94.1348 589.448C94.3748 589.904 94.7068 590.272 95.1308 590.552C95.5628 590.832 96.1228 590.972 96.8108 590.972C97.2588 590.972 97.6828 590.9 98.0828 590.756C98.4828 590.604 98.8308 590.364 99.1268 590.036C99.4308 589.708 99.6668 589.276 99.8348 588.74C100.011 588.204 100.099 587.552 100.099 586.784L101.659 587.372C101.659 588.548 101.439 589.588 100.999 590.492C100.559 591.388 99.9268 592.088 99.1028 592.592C98.2788 593.096 97.2828 593.348 96.1148 593.348ZM100.399 593V589.256H100.099V580.04H102.631V593H100.399ZM105.996 593V580.04H108.228V583.184L107.916 582.776C108.076 582.36 108.284 581.98 108.54 581.636C108.796 581.284 109.092 580.996 109.428 580.772C109.756 580.532 110.12 580.348 110.52 580.22C110.928 580.084 111.344 580.004 111.768 579.98C112.192 579.948 112.6 579.968 112.992 580.04V582.392C112.568 582.28 112.096 582.248 111.576 582.296C111.064 582.344 110.592 582.508 110.16 582.788C109.752 583.052 109.428 583.372 109.188 583.748C108.956 584.124 108.788 584.544 108.684 585.008C108.58 585.464 108.528 585.948 108.528 586.46V593H105.996ZM120.322 593V575.36H122.83V593H120.322ZM132.062 593.36C130.766 593.36 129.642 593.068 128.69 592.484C127.738 591.9 127.002 591.096 126.482 590.072C125.97 589.04 125.714 587.852 125.714 586.508C125.714 585.156 125.978 583.968 126.506 582.944C127.034 581.912 127.774 581.112 128.726 580.544C129.678 579.968 130.79 579.68 132.062 579.68C133.358 579.68 134.482 579.972 135.434 580.556C136.386 581.14 137.122 581.944 137.642 582.968C138.162 583.992 138.422 585.172 138.422 586.508C138.422 587.86 138.158 589.052 137.63 590.084C137.11 591.108 136.374 591.912 135.422 592.496C134.47 593.072 133.35 593.36 132.062 593.36ZM132.062 590.996C133.302 590.996 134.226 590.58 134.834 589.748C135.45 588.908 135.758 587.828 135.758 586.508C135.758 585.156 135.446 584.076 134.822 583.268C134.206 582.452 133.286 582.044 132.062 582.044C131.222 582.044 130.53 582.236 129.986 582.62C129.442 582.996 129.038 583.52 128.774 584.192C128.51 584.856 128.378 585.628 128.378 586.508C128.378 587.868 128.69 588.956 129.314 589.772C129.938 590.588 130.854 590.996 132.062 590.996ZM144.094 593L139.39 580.04H141.922L145.366 589.856L148.81 580.04H151.342L146.638 593H144.094ZM158.783 593.36C157.495 593.36 156.363 593.08 155.387 592.52C154.419 591.952 153.663 591.164 153.119 590.156C152.583 589.14 152.315 587.964 152.315 586.628C152.315 585.212 152.579 583.984 153.107 582.944C153.643 581.904 154.387 581.1 155.339 580.532C156.291 579.964 157.399 579.68 158.663 579.68C159.983 579.68 161.107 579.988 162.035 580.604C162.963 581.212 163.655 582.08 164.111 583.208C164.575 584.336 164.759 585.676 164.663 587.228H162.155V586.316C162.139 584.812 161.851 583.7 161.291 582.98C160.739 582.26 159.895 581.9 158.759 581.9C157.503 581.9 156.559 582.296 155.927 583.088C155.295 583.88 154.979 585.024 154.979 586.52C154.979 587.944 155.295 589.048 155.927 589.832C156.559 590.608 157.471 590.996 158.663 590.996C159.447 590.996 160.123 590.82 160.691 590.468C161.267 590.108 161.715 589.596 162.035 588.932L164.495 589.712C163.991 590.872 163.227 591.772 162.203 592.412C161.179 593.044 160.039 593.36 158.783 593.36ZM154.163 587.228V585.272H163.415V587.228H154.163ZM181.256 593V586.628C181.256 586.124 181.212 585.608 181.124 585.08C181.044 584.544 180.884 584.048 180.644 583.592C180.412 583.136 180.08 582.768 179.648 582.488C179.224 582.208 178.668 582.068 177.98 582.068C177.532 582.068 177.108 582.144 176.708 582.296C176.308 582.44 175.956 582.676 175.652 583.004C175.356 583.332 175.12 583.764 174.944 584.3C174.776 584.836 174.692 585.488 174.692 586.256L173.132 585.668C173.132 584.492 173.352 583.456 173.792 582.56C174.232 581.656 174.864 580.952 175.688 580.448C176.512 579.944 177.508 579.692 178.676 579.692C179.572 579.692 180.324 579.836 180.932 580.124C181.54 580.412 182.032 580.792 182.408 581.264C182.792 581.728 183.084 582.236 183.284 582.788C183.484 583.34 183.62 583.88 183.692 584.408C183.764 584.936 183.8 585.4 183.8 585.8V593H181.256ZM172.148 593V575.72H174.392V585.044H174.692V593H172.148ZM192.674 593.36C191.386 593.36 190.254 593.08 189.278 592.52C188.31 591.952 187.554 591.164 187.01 590.156C186.474 589.14 186.206 587.964 186.206 586.628C186.206 585.212 186.47 583.984 186.998 582.944C187.534 581.904 188.278 581.1 189.23 580.532C190.182 579.964 191.29 579.68 192.554 579.68C193.874 579.68 194.998 579.988 195.926 580.604C196.854 581.212 197.546 582.08 198.002 583.208C198.466 584.336 198.65 585.676 198.554 587.228H196.046V586.316C196.03 584.812 195.742 583.7 195.182 582.98C194.63 582.26 193.786 581.9 192.65 581.9C191.394 581.9 190.45 582.296 189.818 583.088C189.186 583.88 188.87 585.024 188.87 586.52C188.87 587.944 189.186 589.048 189.818 589.832C190.45 590.608 191.362 590.996 192.554 590.996C193.338 590.996 194.014 590.82 194.582 590.468C195.158 590.108 195.606 589.596 195.926 588.932L198.386 589.712C197.882 590.872 197.118 591.772 196.094 592.412C195.07 593.044 193.93 593.36 192.674 593.36ZM188.054 587.228V585.272H197.306V587.228H188.054ZM201.486 593V575.36H203.994V593H201.486ZM213.682 593.36C212.442 593.36 211.402 593.06 210.562 592.46C209.722 591.852 209.086 591.032 208.654 590C208.222 588.968 208.006 587.804 208.006 586.508C208.006 585.212 208.218 584.048 208.642 583.016C209.074 581.984 209.706 581.172 210.538 580.58C211.378 579.98 212.41 579.68 213.634 579.68C214.85 579.68 215.898 579.98 216.778 580.58C217.666 581.172 218.35 581.984 218.83 583.016C219.31 584.04 219.55 585.204 219.55 586.508C219.55 587.804 219.31 588.972 218.83 590.012C218.358 591.044 217.682 591.86 216.802 592.46C215.93 593.06 214.89 593.36 213.682 593.36ZM207.586 598.76V580.04H209.818V589.364H210.106V598.76H207.586ZM213.334 591.092C214.134 591.092 214.794 590.888 215.314 590.48C215.842 590.072 216.234 589.524 216.49 588.836C216.754 588.14 216.886 587.364 216.886 586.508C216.886 585.66 216.754 584.892 216.49 584.204C216.234 583.516 215.838 582.968 215.302 582.56C214.766 582.152 214.082 581.948 213.25 581.948C212.466 581.948 211.818 582.14 211.306 582.524C210.802 582.908 210.426 583.444 210.178 584.132C209.938 584.82 209.818 585.612 209.818 586.508C209.818 587.404 209.938 588.196 210.178 588.884C210.418 589.572 210.798 590.112 211.318 590.504C211.838 590.896 212.51 591.092 213.334 591.092ZM226.921 593.348C225.345 593.348 224.061 593 223.069 592.304C222.077 591.608 221.469 590.628 221.245 589.364L223.813 588.968C223.973 589.64 224.341 590.172 224.917 590.564C225.501 590.948 226.225 591.14 227.089 591.14C227.873 591.14 228.485 590.98 228.925 590.66C229.373 590.34 229.597 589.9 229.597 589.34C229.597 589.012 229.517 588.748 229.357 588.548C229.205 588.34 228.881 588.144 228.385 587.96C227.889 587.776 227.133 587.548 226.117 587.276C225.005 586.988 224.121 586.68 223.465 586.352C222.817 586.016 222.353 585.628 222.073 585.188C221.801 584.74 221.665 584.2 221.665 583.568C221.665 582.784 221.873 582.1 222.289 581.516C222.705 580.932 223.289 580.48 224.041 580.16C224.801 579.84 225.689 579.68 226.705 579.68C227.697 579.68 228.581 579.836 229.357 580.148C230.133 580.46 230.761 580.904 231.241 581.48C231.721 582.048 232.009 582.716 232.105 583.484L229.537 583.952C229.449 583.328 229.157 582.836 228.661 582.476C228.165 582.116 227.521 581.92 226.729 581.888C225.969 581.856 225.353 581.984 224.881 582.272C224.409 582.552 224.173 582.94 224.173 583.436C224.173 583.724 224.261 583.968 224.437 584.168C224.621 584.368 224.973 584.56 225.493 584.744C226.013 584.928 226.781 585.148 227.797 585.404C228.885 585.684 229.749 585.996 230.389 586.34C231.029 586.676 231.485 587.08 231.757 587.552C232.037 588.016 232.177 588.58 232.177 589.244C232.177 590.524 231.709 591.528 230.773 592.256C229.845 592.984 228.561 593.348 226.921 593.348ZM241.389 598.76L243.897 591.932L243.933 593.948L238.281 580.04H240.897L245.121 590.78H244.353L248.385 580.04H250.929L243.777 598.76H241.389ZM257.968 593.36C256.672 593.36 255.548 593.068 254.596 592.484C253.644 591.9 252.908 591.096 252.388 590.072C251.876 589.04 251.62 587.852 251.62 586.508C251.62 585.156 251.884 583.968 252.412 582.944C252.94 581.912 253.68 581.112 254.632 580.544C255.584 579.968 256.696 579.68 257.968 579.68C259.264 579.68 260.388 579.972 261.34 580.556C262.292 581.14 263.028 581.944 263.548 582.968C264.068 583.992 264.328 585.172 264.328 586.508C264.328 587.86 264.064 589.052 263.536 590.084C263.016 591.108 262.28 591.912 261.328 592.496C260.376 593.072 259.256 593.36 257.968 593.36ZM257.968 590.996C259.208 590.996 260.132 590.58 260.74 589.748C261.356 588.908 261.664 587.828 261.664 586.508C261.664 585.156 261.352 584.076 260.728 583.268C260.112 582.452 259.192 582.044 257.968 582.044C257.128 582.044 256.436 582.236 255.892 582.62C255.348 582.996 254.944 583.52 254.68 584.192C254.416 584.856 254.284 585.628 254.284 586.508C254.284 587.868 254.596 588.956 255.22 589.772C255.844 590.588 256.76 590.996 257.968 590.996ZM271.849 593.348C270.953 593.348 270.201 593.204 269.593 592.916C268.985 592.628 268.489 592.252 268.105 591.788C267.729 591.316 267.441 590.804 267.241 590.252C267.041 589.7 266.905 589.16 266.833 588.632C266.761 588.104 266.725 587.64 266.725 587.24V580.04H269.269V586.412C269.269 586.916 269.309 587.436 269.389 587.972C269.477 588.5 269.637 588.992 269.869 589.448C270.109 589.904 270.441 590.272 270.865 590.552C271.297 590.832 271.857 590.972 272.545 590.972C272.993 590.972 273.417 590.9 273.817 590.756C274.217 590.604 274.565 590.364 274.861 590.036C275.165 589.708 275.401 589.276 275.569 588.74C275.745 588.204 275.833 587.552 275.833 586.784L277.393 587.372C277.393 588.548 277.173 589.588 276.733 590.492C276.293 591.388 275.661 592.088 274.837 592.592C274.013 593.096 273.017 593.348 271.849 593.348ZM276.133 593V589.256H275.833V580.04H278.365V593H276.133ZM281.731 593V580.04H283.963V583.184L283.651 582.776C283.811 582.36 284.019 581.98 284.275 581.636C284.531 581.284 284.827 580.996 285.163 580.772C285.491 580.532 285.855 580.348 286.255 580.22C286.663 580.084 287.079 580.004 287.503 579.98C287.927 579.948 288.335 579.968 288.727 580.04V582.392C288.303 582.28 287.831 582.248 287.311 582.296C286.799 582.344 286.327 582.508 285.895 582.788C285.487 583.052 285.163 583.372 284.923 583.748C284.691 584.124 284.523 584.544 284.419 585.008C284.315 585.464 284.263 585.948 284.263 586.46V593H281.731ZM301.901 593.36C300.661 593.36 299.621 593.06 298.781 592.46C297.941 591.852 297.305 591.032 296.873 590C296.441 588.968 296.225 587.804 296.225 586.508C296.225 585.212 296.437 584.048 296.861 583.016C297.293 581.984 297.925 581.172 298.757 580.58C299.597 579.98 300.629 579.68 301.853 579.68C303.069 579.68 304.117 579.98 304.997 580.58C305.885 581.172 306.569 581.984 307.049 583.016C307.529 584.04 307.769 585.204 307.769 586.508C307.769 587.804 307.529 588.972 307.049 590.012C306.577 591.044 305.901 591.86 305.021 592.46C304.149 593.06 303.109 593.36 301.901 593.36ZM295.805 593V575.72H298.325V583.676H298.037V593H295.805ZM301.553 591.092C302.353 591.092 303.013 590.888 303.533 590.48C304.061 590.072 304.453 589.524 304.709 588.836C304.973 588.14 305.105 587.364 305.105 586.508C305.105 585.66 304.973 584.892 304.709 584.204C304.453 583.516 304.057 582.968 303.521 582.56C302.985 582.152 302.301 581.948 301.469 581.948C300.685 581.948 300.037 582.14 299.525 582.524C299.021 582.908 298.645 583.444 298.397 584.132C298.157 584.82 298.037 585.612 298.037 586.508C298.037 587.404 298.157 588.196 298.397 588.884C298.637 589.572 299.017 590.112 299.537 590.504C300.057 590.896 300.729 591.092 301.553 591.092ZM314.078 593.36C313.118 593.36 312.314 593.184 311.666 592.832C311.018 592.472 310.526 592 310.19 591.416C309.862 590.824 309.698 590.176 309.698 589.472C309.698 588.816 309.814 588.24 310.046 587.744C310.278 587.248 310.622 586.828 311.078 586.484C311.534 586.132 312.094 585.848 312.758 585.632C313.334 585.464 313.986 585.316 314.714 585.188C315.442 585.06 316.206 584.94 317.006 584.828C317.814 584.716 318.614 584.604 319.406 584.492L318.494 584.996C318.51 583.98 318.294 583.228 317.846 582.74C317.406 582.244 316.646 581.996 315.566 581.996C314.886 581.996 314.262 582.156 313.694 582.476C313.126 582.788 312.73 583.308 312.506 584.036L310.166 583.316C310.486 582.204 311.094 581.32 311.99 580.664C312.894 580.008 314.094 579.68 315.59 579.68C316.75 579.68 317.758 579.88 318.614 580.28C319.478 580.672 320.11 581.296 320.51 582.152C320.718 582.576 320.846 583.024 320.894 583.496C320.942 583.968 320.966 584.476 320.966 585.02V593H318.746V590.036L319.178 590.42C318.642 591.412 317.958 592.152 317.126 592.64C316.302 593.12 315.286 593.36 314.078 593.36ZM314.522 591.308C315.234 591.308 315.846 591.184 316.358 590.936C316.87 590.68 317.282 590.356 317.594 589.964C317.906 589.572 318.11 589.164 318.206 588.74C318.342 588.356 318.418 587.924 318.434 587.444C318.458 586.964 318.47 586.58 318.47 586.292L319.286 586.592C318.494 586.712 317.774 586.82 317.126 586.916C316.478 587.012 315.89 587.108 315.362 587.204C314.842 587.292 314.378 587.4 313.97 587.528C313.626 587.648 313.318 587.792 313.046 587.96C312.782 588.128 312.57 588.332 312.41 588.572C312.258 588.812 312.182 589.104 312.182 589.448C312.182 589.784 312.266 590.096 312.434 590.384C312.602 590.664 312.858 590.888 313.202 591.056C313.546 591.224 313.986 591.308 314.522 591.308ZM330.166 593.36C328.926 593.36 327.886 593.06 327.046 592.46C326.206 591.852 325.57 591.032 325.138 590C324.706 588.968 324.49 587.804 324.49 586.508C324.49 585.212 324.702 584.048 325.126 583.016C325.558 581.984 326.19 581.172 327.022 580.58C327.862 579.98 328.894 579.68 330.118 579.68C331.334 579.68 332.382 579.98 333.262 580.58C334.15 581.172 334.834 581.984 335.314 583.016C335.794 584.04 336.034 585.204 336.034 586.508C336.034 587.804 335.794 588.972 335.314 590.012C334.842 591.044 334.166 591.86 333.286 592.46C332.414 593.06 331.374 593.36 330.166 593.36ZM324.07 593V575.72H326.59V583.676H326.302V593H324.07ZM329.818 591.092C330.618 591.092 331.278 590.888 331.798 590.48C332.326 590.072 332.718 589.524 332.974 588.836C333.238 588.14 333.37 587.364 333.37 586.508C333.37 585.66 333.238 584.892 332.974 584.204C332.718 583.516 332.322 582.968 331.786 582.56C331.25 582.152 330.566 581.948 329.734 581.948C328.95 581.948 328.302 582.14 327.79 582.524C327.286 582.908 326.91 583.444 326.662 584.132C326.422 584.82 326.302 585.612 326.302 586.508C326.302 587.404 326.422 588.196 326.662 588.884C326.902 589.572 327.282 590.112 327.802 590.504C328.322 590.896 328.994 591.092 329.818 591.092ZM339.639 598.76L342.147 591.932L342.183 593.948L336.531 580.04H339.147L343.371 590.78H342.603L346.635 580.04H349.179L342.027 598.76H339.639ZM74.017 626.36C72.689 626.36 71.561 626.064 70.633 625.472C69.705 624.88 68.993 624.068 68.497 623.036C68.009 622.004 67.761 620.832 67.753 619.52C67.761 618.184 68.017 617.004 68.521 615.98C69.025 614.948 69.745 614.14 70.681 613.556C71.617 612.972 72.741 612.68 74.053 612.68C75.469 612.68 76.677 613.032 77.677 613.736C78.685 614.44 79.349 615.404 79.669 616.628L77.173 617.348C76.925 616.62 76.517 616.056 75.949 615.656C75.389 615.248 74.745 615.044 74.017 615.044C73.193 615.044 72.517 615.24 71.989 615.632C71.461 616.016 71.069 616.544 70.813 617.216C70.557 617.888 70.425 618.656 70.417 619.52C70.425 620.856 70.729 621.936 71.329 622.76C71.937 623.584 72.833 623.996 74.017 623.996C74.825 623.996 75.477 623.812 75.973 623.444C76.477 623.068 76.861 622.532 77.125 621.836L79.669 622.436C79.245 623.7 78.545 624.672 77.569 625.352C76.593 626.024 75.409 626.36 74.017 626.36ZM87.39 626.36C86.094 626.36 84.97 626.068 84.018 625.484C83.066 624.9 82.33 624.096 81.81 623.072C81.298 622.04 81.042 620.852 81.042 619.508C81.042 618.156 81.306 616.968 81.834 615.944C82.362 614.912 83.102 614.112 84.054 613.544C85.006 612.968 86.118 612.68 87.39 612.68C88.686 612.68 89.81 612.972 90.762 613.556C91.714 614.14 92.45 614.944 92.97 615.968C93.49 616.992 93.75 618.172 93.75 619.508C93.75 620.86 93.486 622.052 92.958 623.084C92.438 624.108 91.702 624.912 90.75 625.496C89.798 626.072 88.678 626.36 87.39 626.36ZM87.39 623.996C88.63 623.996 89.554 623.58 90.162 622.748C90.778 621.908 91.086 620.828 91.086 619.508C91.086 618.156 90.774 617.076 90.15 616.268C89.534 615.452 88.614 615.044 87.39 615.044C86.55 615.044 85.858 615.236 85.314 615.62C84.77 615.996 84.366 616.52 84.102 617.192C83.838 617.856 83.706 618.628 83.706 619.508C83.706 620.868 84.018 621.956 84.642 622.772C85.266 623.588 86.182 623.996 87.39 623.996ZM105.483 626V619.628C105.483 619.124 105.439 618.608 105.351 618.08C105.271 617.544 105.111 617.048 104.871 616.592C104.639 616.136 104.307 615.768 103.875 615.488C103.451 615.208 102.895 615.068 102.207 615.068C101.759 615.068 101.335 615.144 100.935 615.296C100.535 615.44 100.183 615.676 99.879 616.004C99.583 616.332 99.347 616.764 99.171 617.3C99.003 617.836 98.919 618.488 98.919 619.256L97.359 618.668C97.359 617.492 97.579 616.456 98.019 615.56C98.459 614.656 99.091 613.952 99.915 613.448C100.739 612.944 101.735 612.692 102.903 612.692C103.799 612.692 104.551 612.836 105.159 613.124C105.767 613.412 106.259 613.792 106.635 614.264C107.019 614.728 107.311 615.236 107.511 615.788C107.711 616.34 107.847 616.88 107.919 617.408C107.991 617.936 108.027 618.4 108.027 618.8V626H105.483ZM96.375 626V613.04H98.619V616.784H98.919V626H96.375ZM120.249 626V619.628C120.249 619.124 120.205 618.608 120.117 618.08C120.037 617.544 119.877 617.048 119.637 616.592C119.405 616.136 119.073 615.768 118.641 615.488C118.217 615.208 117.661 615.068 116.973 615.068C116.525 615.068 116.101 615.144 115.701 615.296C115.301 615.44 114.949 615.676 114.645 616.004C114.349 616.332 114.113 616.764 113.937 617.3C113.769 617.836 113.685 618.488 113.685 619.256L112.125 618.668C112.125 617.492 112.345 616.456 112.785 615.56C113.225 614.656 113.857 613.952 114.681 613.448C115.505 612.944 116.501 612.692 117.669 612.692C118.565 612.692 119.317 612.836 119.925 613.124C120.533 613.412 121.025 613.792 121.401 614.264C121.785 614.728 122.077 615.236 122.277 615.788C122.477 616.34 122.613 616.88 122.685 617.408C122.757 617.936 122.793 618.4 122.793 618.8V626H120.249ZM111.141 626V613.04H113.385V616.784H113.685V626H111.141ZM131.502 626.36C130.214 626.36 129.082 626.08 128.106 625.52C127.138 624.952 126.382 624.164 125.838 623.156C125.302 622.14 125.034 620.964 125.034 619.628C125.034 618.212 125.298 616.984 125.826 615.944C126.362 614.904 127.106 614.1 128.058 613.532C129.01 612.964 130.118 612.68 131.382 612.68C132.702 612.68 133.826 612.988 134.754 613.604C135.682 614.212 136.374 615.08 136.83 616.208C137.294 617.336 137.478 618.676 137.382 620.228H134.874V619.316C134.858 617.812 134.57 616.7 134.01 615.98C133.458 615.26 132.614 614.9 131.478 614.9C130.222 614.9 129.278 615.296 128.646 616.088C128.014 616.88 127.698 618.024 127.698 619.52C127.698 620.944 128.014 622.048 128.646 622.832C129.278 623.608 130.19 623.996 131.382 623.996C132.166 623.996 132.842 623.82 133.41 623.468C133.986 623.108 134.434 622.596 134.754 621.932L137.214 622.712C136.71 623.872 135.946 624.772 134.922 625.412C133.898 626.044 132.758 626.36 131.502 626.36ZM126.882 620.228V618.272H136.134V620.228H126.882ZM145.619 626.36C144.291 626.36 143.163 626.064 142.235 625.472C141.307 624.88 140.595 624.068 140.099 623.036C139.611 622.004 139.363 620.832 139.355 619.52C139.363 618.184 139.619 617.004 140.123 615.98C140.627 614.948 141.347 614.14 142.283 613.556C143.219 612.972 144.343 612.68 145.655 612.68C147.071 612.68 148.279 613.032 149.279 613.736C150.287 614.44 150.951 615.404 151.271 616.628L148.775 617.348C148.527 616.62 148.119 616.056 147.551 615.656C146.991 615.248 146.347 615.044 145.619 615.044C144.795 615.044 144.119 615.24 143.591 615.632C143.063 616.016 142.671 616.544 142.415 617.216C142.159 617.888 142.027 618.656 142.019 619.52C142.027 620.856 142.331 621.936 142.931 622.76C143.539 623.584 144.435 623.996 145.619 623.996C146.427 623.996 147.079 623.812 147.575 623.444C148.079 623.068 148.463 622.532 148.727 621.836L151.271 622.436C150.847 623.7 150.147 624.672 149.171 625.352C148.195 626.024 147.011 626.36 145.619 626.36ZM161.131 626C160.315 626.16 159.515 626.228 158.731 626.204C157.947 626.18 157.247 626.028 156.631 625.748C156.015 625.468 155.551 625.028 155.239 624.428C154.959 623.892 154.807 623.348 154.783 622.796C154.767 622.236 154.759 621.604 154.759 620.9V609.44H157.279V620.78C157.279 621.3 157.283 621.752 157.291 622.136C157.307 622.52 157.391 622.844 157.543 623.108C157.831 623.604 158.287 623.888 158.911 623.96C159.543 624.024 160.283 623.996 161.131 623.876V626ZM152.275 615.056V613.04H161.131V615.056H152.275ZM171.428 626L167.468 613.028L169.952 613.04L172.664 621.932L175.4 613.04H177.56L180.296 621.932L183.008 613.04H185.48L181.52 626H179.504L176.48 616.616L173.444 626H171.428ZM187.869 610.916V608.48H190.377V610.916H187.869ZM187.869 626V613.04H190.377V626H187.869ZM201.397 626C200.581 626.16 199.781 626.228 198.997 626.204C198.213 626.18 197.513 626.028 196.897 625.748C196.281 625.468 195.817 625.028 195.505 624.428C195.225 623.892 195.073 623.348 195.049 622.796C195.033 622.236 195.025 621.604 195.025 620.9V609.44H197.545V620.78C197.545 621.3 197.549 621.752 197.557 622.136C197.573 622.52 197.657 622.844 197.809 623.108C198.097 623.604 198.553 623.888 199.177 623.96C199.809 624.024 200.549 623.996 201.397 623.876V626ZM192.541 615.056V613.04H201.397V615.056H192.541ZM213.225 626V619.628C213.225 619.124 213.181 618.608 213.093 618.08C213.013 617.544 212.853 617.048 212.613 616.592C212.381 616.136 212.049 615.768 211.617 615.488C211.193 615.208 210.637 615.068 209.949 615.068C209.501 615.068 209.077 615.144 208.677 615.296C208.277 615.44 207.925 615.676 207.621 616.004C207.325 616.332 207.089 616.764 206.913 617.3C206.745 617.836 206.661 618.488 206.661 619.256L205.101 618.668C205.101 617.492 205.321 616.456 205.761 615.56C206.201 614.656 206.833 613.952 207.657 613.448C208.481 612.944 209.477 612.692 210.645 612.692C211.541 612.692 212.293 612.836 212.901 613.124C213.509 613.412 214.001 613.792 214.377 614.264C214.761 614.728 215.053 615.236 215.253 615.788C215.453 616.34 215.589 616.88 215.661 617.408C215.733 617.936 215.769 618.4 215.769 618.8V626H213.225ZM204.117 626V608.72H206.361V618.044H206.661V626H204.117ZM225.452 631.76L227.96 624.932L227.996 626.948L222.344 613.04H224.96L229.184 623.78H228.416L232.448 613.04H234.992L227.84 631.76H225.452ZM242.031 626.36C240.735 626.36 239.611 626.068 238.659 625.484C237.707 624.9 236.971 624.096 236.451 623.072C235.939 622.04 235.683 620.852 235.683 619.508C235.683 618.156 235.947 616.968 236.475 615.944C237.003 614.912 237.743 614.112 238.695 613.544C239.647 612.968 240.759 612.68 242.031 612.68C243.327 612.68 244.451 612.972 245.403 613.556C246.355 614.14 247.091 614.944 247.611 615.968C248.131 616.992 248.391 618.172 248.391 619.508C248.391 620.86 248.127 622.052 247.599 623.084C247.079 624.108 246.343 624.912 245.391 625.496C244.439 626.072 243.319 626.36 242.031 626.36ZM242.031 623.996C243.271 623.996 244.195 623.58 244.803 622.748C245.419 621.908 245.727 620.828 245.727 619.508C245.727 618.156 245.415 617.076 244.791 616.268C244.175 615.452 243.255 615.044 242.031 615.044C241.191 615.044 240.499 615.236 239.955 615.62C239.411 615.996 239.007 616.52 238.743 617.192C238.479 617.856 238.347 618.628 238.347 619.508C238.347 620.868 238.659 621.956 239.283 622.772C239.907 623.588 240.823 623.996 242.031 623.996ZM255.912 626.348C255.016 626.348 254.264 626.204 253.656 625.916C253.048 625.628 252.552 625.252 252.168 624.788C251.792 624.316 251.504 623.804 251.304 623.252C251.104 622.7 250.968 622.16 250.896 621.632C250.824 621.104 250.788 620.64 250.788 620.24V613.04H253.332V619.412C253.332 619.916 253.372 620.436 253.452 620.972C253.54 621.5 253.7 621.992 253.932 622.448C254.172 622.904 254.504 623.272 254.928 623.552C255.36 623.832 255.92 623.972 256.608 623.972C257.056 623.972 257.48 623.9 257.88 623.756C258.28 623.604 258.628 623.364 258.924 623.036C259.228 622.708 259.464 622.276 259.632 621.74C259.808 621.204 259.896 620.552 259.896 619.784L261.456 620.372C261.456 621.548 261.236 622.588 260.796 623.492C260.356 624.388 259.724 625.088 258.9 625.592C258.076 626.096 257.08 626.348 255.912 626.348ZM260.196 626V622.256H259.896V613.04H262.428V626H260.196ZM276.682 626.36C275.442 626.36 274.402 626.06 273.562 625.46C272.722 624.852 272.086 624.032 271.654 623C271.222 621.968 271.006 620.804 271.006 619.508C271.006 618.212 271.218 617.048 271.642 616.016C272.074 614.984 272.706 614.172 273.538 613.58C274.378 612.98 275.41 612.68 276.634 612.68C277.85 612.68 278.898 612.98 279.778 613.58C280.666 614.172 281.35 614.984 281.83 616.016C282.31 617.04 282.55 618.204 282.55 619.508C282.55 620.804 282.31 621.972 281.83 623.012C281.358 624.044 280.682 624.86 279.802 625.46C278.93 626.06 277.89 626.36 276.682 626.36ZM270.586 626V608.72H273.106V616.676H272.818V626H270.586ZM276.334 624.092C277.134 624.092 277.794 623.888 278.314 623.48C278.842 623.072 279.234 622.524 279.49 621.836C279.754 621.14 279.886 620.364 279.886 619.508C279.886 618.66 279.754 617.892 279.49 617.204C279.234 616.516 278.838 615.968 278.302 615.56C277.766 615.152 277.082 614.948 276.25 614.948C275.466 614.948 274.818 615.14 274.306 615.524C273.802 615.908 273.426 616.444 273.178 617.132C272.938 617.82 272.818 618.612 272.818 619.508C272.818 620.404 272.938 621.196 273.178 621.884C273.418 622.572 273.798 623.112 274.318 623.504C274.838 623.896 275.51 624.092 276.334 624.092ZM290.948 626.36C289.66 626.36 288.528 626.08 287.552 625.52C286.584 624.952 285.828 624.164 285.284 623.156C284.748 622.14 284.48 620.964 284.48 619.628C284.48 618.212 284.744 616.984 285.272 615.944C285.808 614.904 286.552 614.1 287.504 613.532C288.456 612.964 289.564 612.68 290.828 612.68C292.148 612.68 293.272 612.988 294.2 613.604C295.128 614.212 295.82 615.08 296.276 616.208C296.74 617.336 296.924 618.676 296.828 620.228H294.32V619.316C294.304 617.812 294.016 616.7 293.456 615.98C292.904 615.26 292.06 614.9 290.924 614.9C289.668 614.9 288.724 615.296 288.092 616.088C287.46 616.88 287.144 618.024 287.144 619.52C287.144 620.944 287.46 622.048 288.092 622.832C288.724 623.608 289.636 623.996 290.828 623.996C291.612 623.996 292.288 623.82 292.856 623.468C293.432 623.108 293.88 622.596 294.2 621.932L296.66 622.712C296.156 623.872 295.392 624.772 294.368 625.412C293.344 626.044 292.204 626.36 290.948 626.36ZM286.328 620.228V618.272H295.58V620.228H286.328ZM306.936 626C306.12 626.16 305.32 626.228 304.536 626.204C303.752 626.18 303.052 626.028 302.436 625.748C301.82 625.468 301.356 625.028 301.044 624.428C300.764 623.892 300.612 623.348 300.588 622.796C300.572 622.236 300.564 621.604 300.564 620.9V609.44H303.084V620.78C303.084 621.3 303.088 621.752 303.096 622.136C303.112 622.52 303.196 622.844 303.348 623.108C303.636 623.604 304.092 623.888 304.716 623.96C305.348 624.024 306.088 623.996 306.936 623.876V626ZM298.08 615.056V613.04H306.936V615.056H298.08ZM315.636 626C314.82 626.16 314.02 626.228 313.236 626.204C312.452 626.18 311.752 626.028 311.136 625.748C310.52 625.468 310.056 625.028 309.744 624.428C309.464 623.892 309.312 623.348 309.288 622.796C309.272 622.236 309.264 621.604 309.264 620.9V609.44H311.784V620.78C311.784 621.3 311.788 621.752 311.796 622.136C311.812 622.52 311.896 622.844 312.048 623.108C312.336 623.604 312.792 623.888 313.416 623.96C314.048 624.024 314.788 623.996 315.636 623.876V626ZM306.78 615.056V613.04H315.636V615.056H306.78ZM324.088 626.36C322.8 626.36 321.668 626.08 320.692 625.52C319.724 624.952 318.968 624.164 318.424 623.156C317.888 622.14 317.62 620.964 317.62 619.628C317.62 618.212 317.884 616.984 318.412 615.944C318.948 614.904 319.692 614.1 320.644 613.532C321.596 612.964 322.704 612.68 323.968 612.68C325.288 612.68 326.412 612.988 327.34 613.604C328.268 614.212 328.96 615.08 329.416 616.208C329.88 617.336 330.064 618.676 329.968 620.228H327.46V619.316C327.444 617.812 327.156 616.7 326.596 615.98C326.044 615.26 325.2 614.9 324.064 614.9C322.808 614.9 321.864 615.296 321.232 616.088C320.6 616.88 320.284 618.024 320.284 619.52C320.284 620.944 320.6 622.048 321.232 622.832C321.864 623.608 322.776 623.996 323.968 623.996C324.752 623.996 325.428 623.82 325.996 623.468C326.572 623.108 327.02 622.596 327.34 621.932L329.8 622.712C329.296 623.872 328.532 624.772 327.508 625.412C326.484 626.044 325.344 626.36 324.088 626.36ZM319.468 620.228V618.272H328.72V620.228H319.468ZM332.66 626V613.04H334.892V616.184L334.58 615.776C334.74 615.36 334.948 614.98 335.204 614.636C335.46 614.284 335.756 613.996 336.092 613.772C336.42 613.532 336.784 613.348 337.184 613.22C337.592 613.084 338.008 613.004 338.432 612.98C338.856 612.948 339.264 612.968 339.656 613.04V615.392C339.232 615.28 338.76 615.248 338.24 615.296C337.728 615.344 337.256 615.508 336.824 615.788C336.416 616.052 336.092 616.372 335.852 616.748C335.62 617.124 335.452 617.544 335.348 618.008C335.244 618.464 335.192 618.948 335.192 619.46V626H332.66ZM340.452 626V623.348H343.104V626H340.452Z" fill="black"/>
<path d="M71.3773 666L68.6893 656.144L65.9852 666H64.7373L61.7133 654.512H62.8813L65.3613 664.256L68.0493 654.512H69.3293L71.9853 664.288L74.4813 654.512H75.6653L72.6413 666H71.3773ZM79.8561 666.16C77.4881 666.16 75.9201 664.384 75.9201 661.712C75.9201 659.248 77.5521 657.408 79.7921 657.408C82.1921 657.408 83.7601 659.344 83.5681 662.048H77.0401C77.1361 664.048 78.1921 665.28 79.8401 665.28C81.2481 665.28 82.2241 664.496 82.4961 663.152H83.6001C83.2161 665.024 81.7921 666.16 79.8561 666.16ZM79.7761 658.272C78.2561 658.272 77.1841 659.44 77.0401 661.28H82.4001C82.3041 659.392 81.3281 658.272 79.7761 658.272ZM95.0669 663.648C95.0669 665.2 93.8189 666.16 91.7389 666.16C89.6429 666.16 88.3629 665.104 88.2029 663.36H89.2749C89.3549 664.56 90.2989 665.312 91.7389 665.312C93.1149 665.312 93.9469 664.784 93.9469 663.824C93.9469 662.992 93.4669 662.608 92.1869 662.352L90.9709 662.112C89.3709 661.808 88.5229 661.024 88.5229 659.808C88.5229 658.4 89.7709 657.408 91.6109 657.408C93.5469 657.408 94.8269 658.448 94.9549 660.128H93.8989C93.7869 658.96 92.9389 658.272 91.6109 658.272C90.4269 658.272 89.6109 658.832 89.6109 659.712C89.6109 660.544 90.1229 660.944 91.3709 661.184L92.6349 661.424C94.3149 661.744 95.0669 662.448 95.0669 663.648ZM98.1329 661.088V666H97.0129V654.512H98.1329V659.12C98.6609 658.112 99.6209 657.408 100.837 657.408C102.597 657.408 103.733 658.528 103.733 660.528V666H102.613V660.912C102.613 659.296 101.877 658.384 100.501 658.384C99.1889 658.384 98.1329 659.52 98.1329 661.088ZM109.467 666.16C107.147 666.16 105.467 664.32 105.467 661.776C105.467 659.248 107.147 657.424 109.467 657.424C111.803 657.424 113.483 659.248 113.483 661.776C113.483 664.32 111.803 666.16 109.467 666.16ZM109.467 665.184C111.115 665.184 112.347 663.872 112.347 661.776C112.347 659.712 111.115 658.4 109.467 658.4C107.835 658.4 106.603 659.712 106.603 661.776C106.603 663.872 107.835 665.184 109.467 665.184ZM122.146 666L119.938 659.056L117.746 666H116.61L114.146 657.568H115.25L117.202 664.416L119.394 657.568H120.498L122.674 664.432L124.626 657.568H125.746L123.266 666H122.146ZM137.04 657.568L132.72 669.088H131.52L132.752 665.888L129.408 657.568H130.608L133.328 664.544L135.904 657.568H137.04ZM141.467 666.16C139.147 666.16 137.467 664.32 137.467 661.776C137.467 659.248 139.147 657.424 141.467 657.424C143.803 657.424 145.483 659.248 145.483 661.776C145.483 664.32 143.803 666.16 141.467 666.16ZM141.467 665.184C143.115 665.184 144.347 663.872 144.347 661.776C144.347 659.712 143.115 658.4 141.467 658.4C139.835 658.4 138.603 659.712 138.603 661.776C138.603 663.872 139.835 665.184 141.467 665.184ZM152.686 662.592V657.568H153.79V666H152.75V664.48C152.318 665.456 151.294 666.16 150.062 666.16C148.35 666.16 147.214 665.184 147.214 663.056V657.568H148.334V662.816C148.334 664.528 149.182 665.184 150.366 665.184C151.71 665.184 152.686 664.096 152.686 662.592ZM165.864 663.648C165.864 665.2 164.616 666.16 162.536 666.16C160.44 666.16 159.16 665.104 159 663.36H160.072C160.152 664.56 161.096 665.312 162.536 665.312C163.912 665.312 164.744 664.784 164.744 663.824C164.744 662.992 164.264 662.608 162.984 662.352L161.768 662.112C160.168 661.808 159.32 661.024 159.32 659.808C159.32 658.4 160.568 657.408 162.408 657.408C164.344 657.408 165.624 658.448 165.752 660.128H164.696C164.584 658.96 163.736 658.272 162.408 658.272C161.224 658.272 160.408 658.832 160.408 659.712C160.408 660.544 160.92 660.944 162.168 661.184L163.432 661.424C165.112 661.744 165.864 662.448 165.864 663.648ZM168.93 666H167.81V657.568H168.85V659.152C169.41 658.064 170.402 657.408 171.602 657.408C172.914 657.408 173.89 658.128 174.242 659.36C174.77 658.176 175.826 657.408 177.154 657.408C178.898 657.408 179.986 658.56 179.986 660.528V666H178.882V660.896C178.882 659.296 178.146 658.384 176.786 658.384C175.506 658.384 174.466 659.504 174.466 661.056V666H173.346V660.896C173.346 659.296 172.61 658.384 171.25 658.384C169.954 658.384 168.93 659.504 168.93 661.056V666ZM187.525 666V664.464C187.029 665.52 186.005 666.16 184.693 666.16C182.949 666.16 181.813 665.184 181.813 663.664C181.813 662.016 183.125 661.152 185.685 661.152C186.197 661.152 186.581 661.184 187.413 661.248V660.544C187.413 659.136 186.661 658.304 185.381 658.304C184.005 658.304 183.141 659.152 183.125 660.528H182.101C182.149 658.656 183.445 657.408 185.365 657.408C187.333 657.408 188.485 658.56 188.485 660.512V666H187.525ZM182.885 663.632C182.885 664.656 183.669 665.344 184.853 665.344C186.421 665.344 187.413 664.32 187.413 662.736V661.984C186.693 661.92 186.197 661.904 185.733 661.904C183.813 661.904 182.885 662.464 182.885 663.632ZM191.961 666H190.841V654.512H191.961V666ZM195.508 666H194.388V654.512H195.508V666ZM200.655 661.776C200.655 659.184 202.095 657.408 204.367 657.408C205.631 657.408 206.703 658.128 207.263 659.328V654.512H208.383V666H207.343V664.224C206.751 665.456 205.663 666.16 204.367 666.16C202.095 666.16 200.655 664.368 200.655 661.776ZM201.791 661.776C201.791 663.92 202.879 665.184 204.527 665.184C206.159 665.184 207.279 663.856 207.279 661.744C207.279 659.616 206.127 658.384 204.527 658.384C202.879 658.384 201.791 659.632 201.791 661.776ZM215.994 666V664.464C215.498 665.52 214.474 666.16 213.162 666.16C211.418 666.16 210.282 665.184 210.282 663.664C210.282 662.016 211.594 661.152 214.154 661.152C214.666 661.152 215.05 661.184 215.882 661.248V660.544C215.882 659.136 215.13 658.304 213.85 658.304C212.474 658.304 211.61 659.152 211.594 660.528H210.57C210.618 658.656 211.914 657.408 213.834 657.408C215.802 657.408 216.954 658.56 216.954 660.512V666H215.994ZM211.354 663.632C211.354 664.656 212.138 665.344 213.322 665.344C214.89 665.344 215.882 664.32 215.882 662.736V661.984C215.162 661.92 214.666 661.904 214.202 661.904C212.282 661.904 211.354 662.464 211.354 663.632ZM220.766 655.616C220.766 656.112 220.398 656.464 219.854 656.464C219.326 656.464 218.958 656.112 218.958 655.616C218.958 655.136 219.326 654.784 219.854 654.784C220.398 654.784 220.766 655.136 220.766 655.616ZM220.43 666H219.31V657.568H220.43V666ZM223.977 666H222.857V654.512H223.977V666ZM232.9 657.568L228.58 669.088H227.38L228.612 665.888L225.268 657.568H226.468L229.188 664.544L231.764 657.568H232.9ZM244.568 666L242.36 659.056L240.168 666H239.032L236.568 657.568H237.672L239.624 664.416L241.816 657.568H242.92L245.096 664.432L247.048 657.568H248.168L245.688 666H244.568ZM254.556 666V664.464C254.06 665.52 253.036 666.16 251.724 666.16C249.98 666.16 248.844 665.184 248.844 663.664C248.844 662.016 250.156 661.152 252.716 661.152C253.228 661.152 253.612 661.184 254.444 661.248V660.544C254.444 659.136 253.692 658.304 252.412 658.304C251.036 658.304 250.172 659.152 250.156 660.528H249.132C249.18 658.656 250.476 657.408 252.396 657.408C254.364 657.408 255.516 658.56 255.516 660.512V666H254.556ZM249.916 663.632C249.916 664.656 250.7 665.344 251.884 665.344C253.452 665.344 254.444 664.32 254.444 662.736V661.984C253.724 661.92 253.228 661.904 252.764 661.904C250.844 661.904 249.916 662.464 249.916 663.632ZM264.118 657.568L259.798 669.088H258.598L259.83 665.888L256.486 657.568H257.686L260.406 664.544L262.982 657.568H264.118ZM271.551 663.648C271.551 665.2 270.303 666.16 268.223 666.16C266.127 666.16 264.847 665.104 264.687 663.36H265.759C265.839 664.56 266.783 665.312 268.223 665.312C269.599 665.312 270.431 664.784 270.431 663.824C270.431 662.992 269.951 662.608 268.671 662.352L267.455 662.112C265.855 661.808 265.007 661.024 265.007 659.808C265.007 658.4 266.255 657.408 268.095 657.408C270.031 657.408 271.311 658.448 271.439 660.128H270.383C270.271 658.96 269.423 658.272 268.095 658.272C266.911 658.272 266.095 658.832 266.095 659.712C266.095 660.544 266.607 660.944 267.855 661.184L269.119 661.424C270.799 661.744 271.551 662.448 271.551 663.648ZM281.177 664.928V665.92C280.745 666.096 280.377 666.16 279.961 666.16C278.569 666.16 277.497 665.44 277.497 663.616V658.512H275.513V657.568H277.497V655.072H278.617V657.568H281.257V658.512H278.617V663.376C278.617 664.688 279.257 665.136 280.185 665.136C280.537 665.136 280.825 665.072 281.177 664.928ZM286.061 666.16C283.741 666.16 282.061 664.32 282.061 661.776C282.061 659.248 283.741 657.424 286.061 657.424C288.397 657.424 290.077 659.248 290.077 661.776C290.077 664.32 288.397 666.16 286.061 666.16ZM286.061 665.184C287.709 665.184 288.941 663.872 288.941 661.776C288.941 659.712 287.709 658.4 286.061 658.4C284.429 658.4 283.197 659.712 283.197 661.776C283.197 663.872 284.429 665.184 286.061 665.184ZM299.568 664.928V665.92C299.136 666.096 298.768 666.16 298.352 666.16C296.96 666.16 295.888 665.44 295.888 663.616V658.512H293.904V657.568H295.888V655.072H297.008V657.568H299.648V658.512H297.008V663.376C297.008 664.688 297.648 665.136 298.576 665.136C298.928 665.136 299.216 665.072 299.568 664.928ZM306.525 666V664.464C306.029 665.52 305.005 666.16 303.693 666.16C301.949 666.16 300.813 665.184 300.813 663.664C300.813 662.016 302.125 661.152 304.685 661.152C305.197 661.152 305.581 661.184 306.413 661.248V660.544C306.413 659.136 305.661 658.304 304.381 658.304C303.005 658.304 302.141 659.152 302.125 660.528H301.101C301.149 658.656 302.445 657.408 304.365 657.408C306.333 657.408 307.485 658.56 307.485 660.512V666H306.525ZM301.885 663.632C301.885 664.656 302.669 665.344 303.853 665.344C305.421 665.344 306.413 664.32 306.413 662.736V661.984C305.693 661.92 305.197 661.904 304.733 661.904C302.813 661.904 301.885 662.464 301.885 663.632ZM310.961 666H309.841V654.512H310.961V666ZM314.508 666H313.388V654.512H314.508V661.488L318.572 657.568H319.9L315.644 661.696L320.252 666H318.796L314.508 661.952V666ZM330.009 666V664.464C329.513 665.52 328.489 666.16 327.177 666.16C325.433 666.16 324.297 665.184 324.297 663.664C324.297 662.016 325.609 661.152 328.169 661.152C328.681 661.152 329.065 661.184 329.897 661.248V660.544C329.897 659.136 329.145 658.304 327.865 658.304C326.489 658.304 325.625 659.152 325.609 660.528H324.585C324.633 658.656 325.929 657.408 327.849 657.408C329.817 657.408 330.969 658.56 330.969 660.512V666H330.009ZM325.369 663.632C325.369 664.656 326.153 665.344 327.337 665.344C328.905 665.344 329.897 664.32 329.897 662.736V661.984C329.177 661.92 328.681 661.904 328.217 661.904C326.297 661.904 325.369 662.464 325.369 663.632ZM334.445 661.088V666H333.325V657.568H334.365V659.152C334.909 658.112 335.933 657.408 337.149 657.408C338.909 657.408 340.045 658.528 340.045 660.528V666H338.925V660.912C338.925 659.296 338.189 658.384 336.813 658.384C335.501 658.384 334.445 659.52 334.445 661.088ZM341.78 661.776C341.78 659.184 343.22 657.408 345.492 657.408C346.756 657.408 347.828 658.128 348.388 659.328V654.512H349.508V666H348.468V664.224C347.876 665.456 346.788 666.16 345.492 666.16C343.22 666.16 341.78 664.368 341.78 661.776ZM342.916 661.776C342.916 663.92 344.004 665.184 345.652 665.184C347.284 665.184 348.404 663.856 348.404 661.744C348.404 659.616 347.252 658.384 345.652 658.384C344.004 658.384 342.916 659.632 342.916 661.776ZM141.092 683.776C141.092 686.368 139.636 688.16 137.38 688.16C136.084 688.16 134.996 687.456 134.404 686.224V688H133.364V676.512H134.484V681.344C135.028 680.112 136.1 679.408 137.38 679.408C139.636 679.408 141.092 681.184 141.092 683.776ZM139.956 683.776C139.956 681.632 138.852 680.384 137.204 680.384C135.62 680.384 134.468 681.616 134.468 683.744C134.468 685.856 135.588 687.184 137.204 687.184C138.852 687.184 139.956 685.92 139.956 683.776ZM146.272 688.16C143.952 688.16 142.272 686.32 142.272 683.776C142.272 681.248 143.952 679.424 146.272 679.424C148.608 679.424 150.288 681.248 150.288 683.776C150.288 686.32 148.608 688.16 146.272 688.16ZM146.272 687.184C147.92 687.184 149.152 685.872 149.152 683.776C149.152 681.712 147.92 680.4 146.272 680.4C144.64 680.4 143.408 681.712 143.408 683.776C143.408 685.872 144.64 687.184 146.272 687.184ZM153.219 683.088V688H152.099V679.568H153.139V681.152C153.683 680.112 154.707 679.408 155.923 679.408C157.683 679.408 158.819 680.528 158.819 682.528V688H157.699V682.912C157.699 681.296 156.963 680.384 155.587 680.384C154.275 680.384 153.219 681.52 153.219 683.088ZM160.553 683.776C160.553 681.184 161.993 679.408 164.265 679.408C165.529 679.408 166.601 680.128 167.161 681.328V676.512H168.281V688H167.241V686.224C166.649 687.456 165.561 688.16 164.265 688.16C161.993 688.16 160.553 686.368 160.553 683.776ZM161.689 683.776C161.689 685.92 162.777 687.184 164.425 687.184C166.057 687.184 167.177 685.856 167.177 683.744C167.177 681.616 166.025 680.384 164.425 680.384C162.777 680.384 161.689 681.632 161.689 683.776ZM181.076 688L178.868 681.056L176.676 688H175.54L173.076 679.568H174.18L176.132 686.416L178.324 679.568H179.428L181.604 686.432L183.556 679.568H184.676L182.196 688H181.076ZM187.586 677.616C187.586 678.112 187.218 678.464 186.674 678.464C186.146 678.464 185.778 678.112 185.778 677.616C185.778 677.136 186.146 676.784 186.674 676.784C187.218 676.784 187.586 677.136 187.586 677.616ZM187.25 688H186.13V679.568H187.25V688ZM194.013 686.928V687.92C193.581 688.096 193.213 688.16 192.797 688.16C191.405 688.16 190.333 687.44 190.333 685.616V680.512H188.349V679.568H190.333V677.072H191.453V679.568H194.093V680.512H191.453V685.376C191.453 686.688 192.093 687.136 193.021 687.136C193.373 687.136 193.661 687.072 194.013 686.928ZM196.906 683.088V688H195.786V676.512H196.906V681.12C197.434 680.112 198.394 679.408 199.61 679.408C201.37 679.408 202.506 680.528 202.506 682.528V688H201.386V682.912C201.386 681.296 200.65 680.384 199.274 680.384C197.962 680.384 196.906 681.52 196.906 683.088ZM214.704 679.568L210.384 691.088H209.184L210.416 687.888L207.072 679.568H208.272L210.992 686.544L213.568 679.568H214.704ZM219.131 688.16C216.811 688.16 215.131 686.32 215.131 683.776C215.131 681.248 216.811 679.424 219.131 679.424C221.467 679.424 223.147 681.248 223.147 683.776C223.147 686.32 221.467 688.16 219.131 688.16ZM219.131 687.184C220.779 687.184 222.011 685.872 222.011 683.776C222.011 681.712 220.779 680.4 219.131 680.4C217.499 680.4 216.267 681.712 216.267 683.776C216.267 685.872 217.499 687.184 219.131 687.184ZM230.35 684.592V679.568H231.454V688H230.414V686.48C229.982 687.456 228.958 688.16 227.726 688.16C226.014 688.16 224.878 687.184 224.878 685.056V679.568H225.998V684.816C225.998 686.528 226.846 687.184 228.03 687.184C229.374 687.184 230.35 686.096 230.35 684.592ZM235 683.488V688H233.88V679.568H234.92V681.488C235.496 680.24 236.744 679.44 238.136 679.44V680.608C236.36 680.544 235 681.648 235 683.488ZM250.577 683.776C250.577 686.368 249.121 688.16 246.865 688.16C245.569 688.16 244.481 687.456 243.889 686.224V688H242.849V676.512H243.969V681.344C244.513 680.112 245.585 679.408 246.865 679.408C249.121 679.408 250.577 681.184 250.577 683.776ZM249.441 683.776C249.441 681.632 248.337 680.384 246.689 680.384C245.105 680.384 243.953 681.616 243.953 683.744C243.953 685.856 245.073 687.184 246.689 687.184C248.337 687.184 249.441 685.92 249.441 683.776ZM257.564 688V686.464C257.068 687.52 256.044 688.16 254.732 688.16C252.988 688.16 251.852 687.184 251.852 685.664C251.852 684.016 253.164 683.152 255.724 683.152C256.236 683.152 256.62 683.184 257.452 683.248V682.544C257.452 681.136 256.7 680.304 255.42 680.304C254.044 680.304 253.18 681.152 253.164 682.528H252.14C252.188 680.656 253.484 679.408 255.404 679.408C257.372 679.408 258.524 680.56 258.524 682.512V688H257.564ZM252.924 685.632C252.924 686.656 253.708 687.344 254.892 687.344C256.46 687.344 257.452 686.32 257.452 684.736V683.984C256.732 683.92 256.236 683.904 255.772 683.904C253.852 683.904 252.924 684.464 252.924 685.632ZM268.608 683.776C268.608 686.368 267.152 688.16 264.896 688.16C263.6 688.16 262.512 687.456 261.92 686.224V688H260.88V676.512H262V681.344C262.544 680.112 263.616 679.408 264.896 679.408C267.152 679.408 268.608 681.184 268.608 683.776ZM267.472 683.776C267.472 681.632 266.368 680.384 264.72 680.384C263.136 680.384 261.984 681.616 261.984 683.744C261.984 685.856 263.104 687.184 264.72 687.184C266.368 687.184 267.472 685.92 267.472 683.776ZM276.657 679.568L272.337 691.088H271.137L272.369 687.888L269.025 679.568H270.225L272.945 686.544L275.521 679.568H276.657ZM278.799 687.072C278.799 687.648 278.383 688.08 277.791 688.08C277.215 688.08 276.783 687.648 276.783 687.072C276.783 686.464 277.215 686.048 277.791 686.048C278.383 686.048 278.799 686.464 278.799 687.072Z" fill="black"/>
<path d="M115.627 226.643L115.969 226.586C116.789 226.875 117.294 227.397 117.907 227.982C118.835 227.762 119.588 227.692 120.54 227.764C121.131 228.352 121.223 228.506 121.449 229.307C121.183 230.412 120.291 231.08 119.498 231.842L117.182 233.771C116.083 232.523 114.366 230.785 114.317 228.996C114.286 227.827 114.882 227.388 115.627 226.643Z" fill="#F36148"/>
<path d="M63.7187 302.986C64.3124 302.938 64.9481 303.038 65.498 303.281C66.2455 303.611 66.9136 304.441 67.2094 305.19C68.1328 307.526 66.305 309.603 65.2913 311.563C64.7509 312.608 64.343 313.76 63.9285 314.86L60.25 313.138C58.5406 312.395 56.1925 311.316 55.3136 309.551C54.9286 308.779 54.8951 307.622 55.2304 306.823C55.6975 305.71 56.4989 305.15 57.5502 304.673C58.8384 304.535 59.6679 304.958 60.8043 305.494C61.7836 304.423 62.283 303.509 63.7187 302.986Z" fill="#F36148"/>
<path d="M89.8386 244.901C91.2696 244.847 92.7073 244.824 94.1103 245.158C96.6892 245.773 99.3188 247.758 100.653 250.05C104.713 257.022 98.4645 265.273 95.5318 271.428C94.083 274.469 93.0481 277.485 92.1732 280.736C88.6785 278.472 85.252 277.141 81.2986 275.956L75.7438 274.376C71.7998 273.125 68.1919 270.997 66.2746 267.182C64.9398 264.527 64.6815 261.092 65.6596 258.283C66.4804 255.925 68.1185 253.97 70.4024 252.929C74.0899 251.249 77.0549 252.253 80.6091 253.583L82.282 250.172C84.0167 247.254 86.6252 245.745 89.8386 244.901Z" fill="#F36148"/>
<path d="M320.288 235.467C321.791 235.611 322.919 236.172 323.886 237.33C324.856 238.494 325.238 240.022 325.081 241.511C324.54 246.589 319.685 250.055 315.997 252.989C314.782 252.519 313.579 251.355 312.545 250.553C310.258 248.723 307.363 245.904 306.728 242.924C306.365 241.213 306.503 239.114 307.548 237.655C308.266 236.649 309.548 235.76 310.786 235.609C312.893 235.352 314.368 236.551 315.91 237.779C317.35 236.546 318.395 235.819 320.288 235.467Z" fill="#DDC5E5"/>
<path d="M322.939 282.466C325.376 282.393 327.495 282.559 329.751 283.55C334.224 285.515 336.271 289.225 337.967 293.559L341.11 292.177C344.104 291.08 347.37 291.65 350.175 293.018C353.18 294.484 355.373 297.142 356.426 300.307C357.401 303.235 357.176 306.704 355.736 309.449C353.09 314.48 347.812 316.508 342.716 318.099C335.896 319.418 329.408 319.418 323.598 323.735C322.667 322.049 322.418 319.702 321.511 317.863C318.576 311.893 314.064 306.766 312.522 300.152C311.595 296.168 311.808 291.6 314.04 288.056C316.099 284.789 319.279 283.282 322.939 282.466Z" fill="#F36148"/>
<path d="M294.728 487.811C291.303 496.788 287.65 504.097 280.527 510.701C279.436 511.712 278.111 513.221 276.803 513.869C274.838 514.841 271.75 515.134 269.583 515.632C254.939 518.999 240.782 520.715 225.812 521.614C221.074 521.899 216.183 522.442 211.445 522.123C183.158 521.612 155.428 516.359 128.738 507.057L128.948 492.206C130.256 487.262 131.749 482.718 133.997 478.112L141.759 465.259L160.713 476.124L182.715 487.585C193.877 493.381 205.203 499.391 217.233 503.202C222.247 504.792 227.361 505.666 232.537 506.512C234.195 507.132 235.617 507.294 237.277 507.702L238.062 507.885C240.403 508.194 243.113 507.938 245.488 507.93C247.653 507.926 249.907 508.023 252.064 507.825C265.912 506.559 278.54 500.118 289.487 491.893C290.511 491.123 291.305 490.301 292.163 489.354C292.864 488.629 293.833 488.252 294.728 487.811Z" fill="#EC7E1D"/>
<path d="M211.445 522.123C183.158 521.612 155.428 516.359 128.738 507.057L128.948 492.205C130.256 487.262 131.749 482.718 133.997 478.111C150.633 482.693 166.224 488.629 181.298 497.149C189.228 501.632 196.838 506.536 203.549 512.74C206.651 515.608 208.567 519.178 211.445 522.123Z" fill="#E5720C"/>
<path d="M163.609 226.714C168.624 218.735 174.922 210.741 182.897 205.523C187.426 202.56 193.14 200.398 198.372 199.206C210.928 196.345 224.657 198.628 235.599 205.483C237.621 206.749 239.348 208.598 241.332 209.781C242.389 210.411 243.826 210.718 244.998 211.114C246.603 211.656 248.11 212.336 249.602 213.137C261.619 219.584 270.437 230.067 273.484 243.51C275.909 254.21 274.446 264.492 270.298 274.55C269.299 276.972 268.262 279.553 266.873 281.781C266.438 282.479 266.022 283.056 265.307 283.491C265.01 281.978 268.042 277.047 268.773 275.467C269.643 273.586 270.401 271.658 271.043 269.688C276.723 252.256 272.551 230.946 257.389 219.494L257.247 219.69C265.675 229.348 270.631 239.947 269.77 253.059C269.463 257.727 268.518 262.304 266.57 266.582C263.902 272.443 257.675 278.595 257.914 285.38C258.078 290.029 259.954 294.176 261.776 298.363C264.377 303.638 267.559 308.274 271.885 312.286C276.25 316.333 281.62 319.405 286.666 322.516C294.36 327.261 302.281 332.455 308.435 339.158C317.204 348.708 321.748 360.378 321.172 373.396C320.817 381.426 318.064 389.074 313.934 395.917C312.593 398.138 311.382 400.177 309.449 401.945C310.317 398.677 312.597 395.852 314.324 392.973C315.527 390.97 316.462 388.761 317.255 386.568C320.343 378.051 320.963 368.732 318.6 359.955C313.95 342.654 300.923 332.699 286.306 323.728C281.098 320.533 275.622 317.478 271.11 313.315C266.644 309.196 263.319 304.306 260.763 298.819L257.907 292.049C258.63 296.309 259.502 300.382 261.147 304.402C265.521 315.085 273.803 322.596 283.007 329.132C296.808 338.932 310.585 348.811 313.67 366.685C315.512 377.359 312.179 388.381 305.986 397.082C300.305 405.063 292.455 410.807 284.762 416.685C281.436 412.832 278.128 409.388 274.276 406.052C268.774 401.429 262.876 397.526 256.091 395.034C261.74 388.168 268.226 382.485 270.007 373.325C270.45 371.041 270.356 368.722 270.25 366.411C270.37 364.491 269.699 362.629 269.098 360.834C267.942 357.386 266.126 354.006 263.741 351.254C258.857 345.618 252.205 341.829 247.512 336.017C244.929 332.817 243.989 329.518 242.329 325.892C239.256 319.178 231.804 315.515 225.226 313.038L209.563 307.65L210.067 310.102C210.563 312.453 211.283 314.233 209.771 316.392C208.658 317.983 206.979 319.157 205.059 319.503C195.577 321.211 180.564 305.819 172.944 300.653C168.654 304.852 164.011 308.238 158.641 310.919L147.807 315.065C135.445 320.153 129.275 330.315 124.322 342.209L113.632 377.118L109.288 394.934C103.881 389.701 99.285 382.745 96.2586 375.878C83.94 347.928 95.8815 324.269 117.024 305.024C126.889 296.043 139.566 288.481 147.022 277.221C149.051 274.155 150.477 270.751 151.799 267.336C147.545 272.805 143.383 278.128 138.028 282.596C123.23 294.941 104.663 302.065 92.705 317.884C81.8607 332.228 79.4823 351.351 87.134 367.777C88.1027 369.856 89.2143 371.896 90.4083 373.854C91.4898 375.627 92.9351 377.421 93.2246 379.517L92.2192 378.357C84.2022 368.545 80.6275 354.349 81.8998 341.902C84.0865 320.51 99.999 306.824 116.92 295.752C123.386 291.521 130.036 287.799 136.042 282.894C142.39 277.709 150.334 269.897 153.185 261.986C154.713 257.746 155.185 252.934 155.641 248.465C156.067 241.007 159.526 232.929 163.609 226.714Z" fill="#2E4754"/>
<path d="M163.609 226.714L163.845 226.692C165.588 226.502 166.9 225.381 168.493 224.755C170.956 223.788 173.913 223.657 176.539 223.618C182.341 223.532 188.294 225.234 193.85 226.741C198.498 228.002 203.196 229.394 208.006 229.881C215.478 230.636 223.1 229.019 230.106 226.49C233.507 225.262 236.698 223.61 240.147 222.475C233.763 231.355 222.393 235.753 211.919 237.367C206.667 238.176 200.888 237.529 195.725 236.454C183.929 233.998 169.521 227.799 160.595 239.755C159.371 241.393 158.498 243.245 157.708 245.119C157.275 246.144 156.736 248.081 155.877 248.788L155.641 248.465C156.066 241.008 159.526 232.929 163.609 226.714Z" fill="#1C3542"/>
<path d="M173.316 249.229C172.939 253.211 172.566 257.189 175.283 260.5C177.298 262.956 180.209 263.873 183.267 264.155C183.304 269.881 183.609 275.773 182.697 281.445C181.564 288.487 177.848 295.486 172.944 300.653C168.654 304.852 164.011 308.237 158.641 310.918L147.807 315.064C135.445 320.153 129.275 330.315 124.322 342.209L113.632 377.118C113.461 376.993 113.403 376.962 113.248 376.783C112.425 375.838 112.099 374.015 111.842 372.822C110.702 367.522 110.461 361.742 110.919 356.334C111.398 350.672 113.316 344.947 115.801 339.858C119.613 332.05 124.94 325.386 131.288 319.491C135.073 315.976 139.338 312.881 143.297 309.551C150.918 303.14 157.711 295.886 162.238 286.931C164.121 283.205 165.52 279.118 166.549 275.077C168.332 268.075 168.864 260.788 171.078 253.883C171.597 252.263 171.969 250.37 173.316 249.229Z" fill="#1A3440"/>
<path d="M240.189 230.666L240.909 230.491C247.994 237.278 252.347 244.98 252.574 255.026C252.788 264.544 249.203 271.841 246.04 280.543C241.464 293.135 240.279 308.447 247.379 320.372C250.262 325.214 254.198 329.119 258.237 332.991L268.109 341.977C278.1 351.765 287.264 364.349 287.546 378.914C287.735 388.634 282.988 397.094 276.38 403.949L274.276 406.053C268.774 401.429 262.876 397.526 256.091 395.034C261.74 388.168 268.226 382.485 270.007 373.325C270.45 371.041 270.356 368.722 270.25 366.412C270.37 364.492 269.699 362.63 269.098 360.834C267.942 357.387 266.126 354.006 263.741 351.254C258.857 345.618 252.205 341.829 247.512 336.017C244.929 332.818 243.988 329.519 242.329 325.893C239.256 319.178 231.804 315.515 225.226 313.038L209.563 307.65C209.358 307.56 209.173 307.465 208.988 307.336C207.143 306.051 206.801 302.161 206.485 300.068C209.505 300.916 213.463 301.162 216.547 300.524C226.037 298.56 236.181 293.588 240.066 284.116C241.019 281.791 241.487 279.237 242.235 276.838C243.616 272.409 245.759 268.543 248.303 264.698C249.5 263.255 250.254 260.883 250.459 259.042C251.633 248.475 246.487 238.698 240.189 230.666Z" fill="#1A3440"/>
<path d="M187.487 252.496C189.252 252.141 191.226 249.01 192.641 247.822C193.987 246.692 195.695 245.629 197.317 244.942C201.439 243.193 206.765 243.431 211.202 242.946C216.649 242.35 222.219 241.048 227.242 238.836C230.559 237.376 233.313 235.526 236.02 233.118C237.118 232.143 238.052 230.912 239.337 230.193L240.189 230.666C246.486 238.698 251.632 248.475 250.458 259.041C250.253 260.883 249.5 263.255 248.303 264.698C245.758 268.542 243.615 272.409 242.235 276.838C241.486 279.237 241.019 281.791 240.065 284.116C236.181 293.588 226.036 298.56 216.546 300.524C213.462 301.162 209.505 300.915 206.485 300.068C206.8 302.16 207.143 306.051 208.987 307.335C209.172 307.464 209.357 307.56 209.562 307.65L210.066 310.102C210.562 312.453 211.282 314.233 209.77 316.392C208.657 317.983 206.978 319.157 205.058 319.503C195.576 321.211 180.563 305.819 172.943 300.653C177.847 295.486 181.563 288.487 182.696 281.445C183.609 275.773 183.303 269.881 183.266 264.155C180.208 263.873 177.297 262.956 175.282 260.5C172.566 257.189 172.938 253.211 173.315 249.229C174.476 246.303 175.646 243.654 178.712 242.296C180.783 241.379 181.972 241.392 184.049 242.305C185.47 242.93 186.578 244.379 187.075 245.815C187.791 247.882 187.958 250.356 187.487 252.496Z" fill="#FCC2AB"/>
<path d="M226.628 272.795C227.971 274.7 229.778 277.088 230.012 279.478C230.134 280.724 229.793 281.454 228.99 282.374C227.778 283.065 226.793 283.023 225.44 282.996C224.81 282.891 224.506 282.782 223.98 282.422C224.187 282.231 224.336 282.13 224.619 282.087L226.623 281.78C227.574 281.495 228.023 281.028 228.489 280.201C228.26 277.612 227.427 275.249 226.628 272.795Z" fill="#E5720C"/>
<path d="M234.257 271.324L234.668 271.332L235.361 272.173C236.143 273.082 236.776 273.759 238.047 273.843C239.65 273.948 239.574 273.373 240.675 272.406L241.119 272.742L240.786 274.58L240.653 274.815C240.031 275.843 238.859 276.529 237.717 276.76C236.722 276.638 236.012 276.275 235.353 275.502C234.237 274.19 234.137 272.942 234.257 271.324Z" fill="#1A3440"/>
<path d="M247.713 263.507C246.541 261.821 244.745 260.753 243.075 259.627C242.198 259.036 241.064 258.381 240.63 257.417L241.266 256.736C242.911 256.583 244.055 256.836 245.466 257.718L246.561 258.443C247.294 259.497 248.197 260.529 248.286 261.855C248.117 262.421 247.978 262.978 247.713 263.507Z" fill="#1A3440"/>
<path d="M207.876 260.08C208.098 260.101 208.284 260.173 208.495 260.242C208.746 261.133 209 262.023 209.469 262.827C210.25 264.166 211.586 265.39 213.147 265.718C214.74 266.053 215.844 264.536 217.009 263.753L217.453 264.208L216.888 265.736C216.165 266.573 215.365 267.577 214.37 268.09C213.54 268.52 212.666 268.673 211.78 268.317C210.13 267.656 208.534 265.945 207.833 264.328C207.261 263.008 207.374 261.399 207.876 260.08Z" fill="#1A3440"/>
<path d="M209.909 283.944C212.463 285.887 214.851 287.534 217.767 288.905C219.087 289.526 222.155 290.093 223.084 291.02L222.687 291.446L222.197 291.654C219.798 292.467 216.959 292.287 214.692 291.157C211.717 289.674 210.885 286.88 209.909 283.944Z" fill="#E5720C"/>
<path d="M209.336 246.078C212.98 245.968 217.378 245.705 220.371 248.177C221.198 248.859 221.524 249.572 221.62 250.611C220.858 251.044 220.734 250.91 219.902 250.749C218.202 250.044 216.334 249.22 214.52 248.909C212.524 248.566 209.317 249.001 207.575 248.224C207.006 247.97 206.931 247.92 206.696 247.357C207.123 246.997 207.536 246.73 208.059 246.529L209.336 246.078Z" fill="#1A3440"/>
<path d="M187.487 252.496C189.252 252.141 191.226 249.01 192.641 247.822C193.988 246.692 195.696 245.629 197.318 244.942C201.439 243.193 206.765 243.431 211.202 242.946C216.649 242.35 222.22 241.048 227.243 238.836C230.559 237.376 233.313 235.526 236.021 233.118C237.118 232.143 238.053 230.912 239.338 230.193L240.189 230.666C246.486 238.698 251.632 248.475 250.459 259.041C250.254 260.883 249.5 263.255 248.303 264.698L247.713 263.508C247.978 262.979 248.118 262.421 248.286 261.856C248.197 260.53 247.294 259.498 246.561 258.443C246.758 258.137 246.851 257.929 246.881 257.558C247.001 256.086 246.765 254.463 246.612 252.996C245.814 245.338 242.778 239.062 237.841 233.253C236.013 235.511 234.154 237.42 231.643 238.94C225.116 242.889 216.274 243.509 208.848 243.891C205.318 244.073 201.596 244.07 198.228 245.248C195.906 246.06 193.892 247.411 192.139 249.132C191.014 250.238 189.479 252.526 188.018 253.022L187.487 252.496Z" fill="#E5720C"/>
<path d="M307.99 458.807C307.018 454.681 305.788 450.951 302.024 448.604L299.728 448.01C297.553 440.71 295.335 433.666 291.549 427.01C289.499 423.405 287.041 420.133 284.761 416.686C281.435 412.833 278.127 409.387 274.276 406.053C268.773 401.428 262.876 397.527 256.09 395.034C250.886 394.075 245.686 393.435 240.378 393.716C225.622 394.497 210.481 400.832 198.423 409.165C186.907 417.124 176.596 427.149 170.99 440.189C169.97 442.566 169.079 444.977 168.312 447.449C167.793 449.125 167.419 450.918 166.644 452.496L158.335 445.227C156.669 443.757 154.842 442.321 153.371 440.651C152.347 439.121 150.306 437.658 148.955 436.366C144.384 431.998 139.839 426.979 134.616 423.415C133.836 422.688 132.871 422.09 132.003 421.466L138.631 408.694L145.77 393.601L151.703 381.821C152.877 378.814 154.512 375.879 155.833 372.921C159.527 364.649 161.789 356.595 162.368 347.546C162.36 340.281 162.823 332.038 159.816 325.288C157.277 319.591 153.394 317.178 147.806 315.064C135.444 320.153 129.275 330.315 124.323 342.21L113.631 377.117L109.287 394.934L105.749 409.823C103.776 418.293 99.2302 428.629 104.299 436.742C106.127 439.664 108.797 442.057 111.368 444.315L113.242 445.914L121.964 452.292C123.529 453.433 125.393 454.568 126.738 455.945L141.759 465.259L160.713 476.124L182.715 487.585C193.877 493.381 205.203 499.391 217.233 503.202C222.247 504.791 227.361 505.666 232.537 506.512C234.195 507.132 235.617 507.294 237.277 507.702L238.062 507.885C240.403 508.194 243.113 507.938 245.488 507.93C247.653 507.926 249.907 508.023 252.064 507.825C265.911 506.558 278.54 500.118 289.487 491.893C290.511 491.123 291.305 490.301 292.163 489.354C292.864 488.629 293.833 488.252 294.728 487.811C295.294 487.098 296.138 486.567 296.863 486.022C299.916 483.714 303.335 480.751 305.347 477.5C308.727 472.035 309.448 465.011 307.99 458.807Z" fill="#E5720C"/>
<path d="M281.585 470.242C281.665 470.011 281.731 469.815 281.875 469.614C284.516 465.922 289.68 463.457 293.133 460.497C294.194 459.587 295.184 458.57 296.175 457.584C296.376 457.383 296.887 456.733 297.124 456.632C297.307 456.554 297.514 456.561 297.709 456.526L297.795 457.269C295.356 462.963 286.751 467.208 281.585 470.242Z" fill="#EC7E1D"/>
<path d="M305.346 477.499C303.335 480.751 299.916 483.713 296.862 486.022C296.138 486.567 295.293 487.098 294.728 487.811C293.833 488.251 292.864 488.629 292.163 489.354C289.164 490.339 286.878 491.81 283.57 491.64L283.17 491.177C286.999 487.31 292.557 485.923 295.845 481.361C293.991 482.298 292.456 483.895 290.798 485.139C289.001 486.484 287.031 487.429 285.137 488.601C283.689 489.495 282.306 490.695 280.698 491.289C279.218 491.836 278.2 491.985 276.619 491.834C275.989 491.329 275.647 491.262 275.55 490.438C276.9 488.512 279.983 487.449 282.033 486.385C284.305 485.206 286.613 483.903 288.702 482.419C291.022 480.771 292.959 478.618 294.772 476.445C290.899 479.123 287.399 482.102 283.386 484.632C280.771 486.28 278.56 487.603 275.435 487.886C274.567 487.544 274.444 487.342 273.866 486.591L273.969 485.852C276.457 482.09 280.862 480.147 284.638 477.905C284.513 476.623 284.634 475.336 284.713 474.054L282.045 474.666C281.023 474.837 280.369 474.642 279.537 474.054L279.438 472.98C279.947 471.75 280.601 471.114 281.585 470.241C286.751 467.208 295.356 462.963 297.795 457.27L298.06 456.684C297.848 455.256 296.915 454.78 295.839 453.895C295.051 453.249 293.617 452.033 293.603 450.935C293.591 450.167 293.674 449.802 294.195 449.257C295.596 447.79 297.846 448.063 299.728 448.01L302.024 448.604C305.789 450.951 307.019 454.681 307.99 458.807C309.448 465.011 308.727 472.035 305.346 477.499Z" fill="#F6B29D"/>
<path d="M284.712 474.055L295.649 469.466C292.174 472.787 288.776 475.449 284.637 477.905C284.513 476.624 284.635 475.337 284.712 474.055Z" fill="#EC7E1D"/>
<path d="M254.859 493.811C253.425 495.758 250.234 496.277 248 496.703L249.394 497.445C249.975 497.899 250.674 498.329 250.979 499.02C250.468 500.177 249.374 501.082 248.182 501.514L245.013 502.293L243.943 502.903L243.913 503.041C243.43 504.186 243.2 504.721 242.006 505.22C239.264 506.369 235.481 506.268 232.537 506.512C227.361 505.666 222.247 504.791 217.233 503.202C205.203 499.391 193.877 493.381 182.715 487.585L160.713 476.124L141.759 465.259L126.738 455.945C125.393 454.568 123.529 453.433 121.964 452.292L113.242 445.914L111.368 444.315C108.797 442.057 106.127 439.664 104.299 436.742C99.2302 428.629 103.776 418.293 105.749 409.823L109.287 394.934L113.631 377.117L124.323 342.21C129.275 330.315 135.444 320.153 147.806 315.064C153.394 317.178 157.277 319.591 159.816 325.288C162.823 332.038 162.36 340.281 162.368 347.546C161.789 356.595 159.527 364.649 155.833 372.921C154.513 375.879 152.877 378.814 151.703 381.821L145.77 393.601L138.631 408.694L132.003 421.466C132.871 422.09 133.837 422.688 134.616 423.415C139.839 426.979 144.385 431.998 148.955 436.366C150.306 437.658 152.347 439.121 153.371 440.651C154.842 442.322 156.669 443.757 158.335 445.227L166.644 452.496C177.058 461.23 187.74 469.569 199.604 476.247C203.52 474.805 207.387 473.367 211.544 472.788C215.332 472.261 219.066 473.133 222.833 473.256L229.889 473.248C230.858 473.266 232.129 473.23 233.027 473.654C233.467 473.862 233.815 474.242 234.126 474.607C234.069 475.545 233.9 476.348 233.195 477.023C232.33 477.849 231.171 478.087 230.054 478.388C226.078 479.456 221.718 479.359 217.638 480.034C224.638 485.018 234.398 486.886 242.87 487.157C245.732 487.248 248.642 486.935 251.471 487.421L251.809 487.474C252.477 487.589 252.915 487.827 253.463 488.219L253.737 488.811C253.18 489.907 252.354 490.493 251.195 490.883C247.531 492.117 243.438 492.258 239.609 492.137C238.165 492.093 236.614 491.794 235.202 492.111C238.821 492.959 243.803 493.329 247.465 492.705C249.412 492.373 251.324 491.57 253.335 491.628C254.026 491.648 254.499 491.955 255.022 492.375C255.139 493.018 255.287 493.232 254.859 493.811Z" fill="#F6B29D"/>
<path d="M249.393 497.444C242.467 498.053 236.098 499.667 229.302 497.342C231.572 496.904 234.54 497.554 236.868 497.538C240.561 497.514 244.324 497.053 248 496.703L249.393 497.444Z" fill="#E5720C"/>
<path d="M243.913 503.039C241.927 503.335 239.564 503.128 237.56 503.058C232.76 502.89 228.114 502.437 223.475 501.133C226.411 500.964 229.348 501.282 232.276 501.48L245.014 502.293L243.944 502.903L243.913 503.039Z" fill="#E5720C"/>
<path d="M134.616 423.416C133.178 423.578 129.864 421.502 128.305 420.987C126.376 420.349 124.412 419.911 122.429 419.48C132.734 416.403 137.265 407.208 142.362 398.597C143.379 396.879 144.185 394.874 145.77 393.602L138.631 408.696L132.003 421.466C132.872 422.09 133.837 422.688 134.616 423.416Z" fill="#E5720C"/>
<path d="M269.098 360.834C267.943 357.387 266.125 354.006 263.74 351.253C258.857 345.617 252.204 341.828 247.511 336.016C244.928 332.817 243.987 329.517 242.329 325.892C239.255 319.177 231.803 315.514 225.225 313.038L209.562 307.65L210.067 310.101C210.562 312.452 211.283 314.233 209.77 316.392C208.657 317.982 206.979 319.157 205.059 319.502C195.577 321.211 180.564 305.82 172.942 300.654C168.653 304.853 164.01 308.237 158.64 310.919L147.805 315.063C153.393 317.178 157.277 319.591 159.815 325.288C162.822 332.037 162.36 340.281 162.368 347.545L162.754 347.37C163.729 348.448 163.614 351.584 163.739 353.044C165.122 369.372 168.273 385.829 184.641 393.635C188.813 395.624 193.858 397.308 198.519 397.508C209.875 397.997 223.42 393.481 231.789 385.549L236.119 381.197C243.613 383.364 252.796 384.654 259.957 380.647C264.004 378.381 266.983 374.896 268.687 370.588C269.206 369.279 269.509 367.591 270.248 366.412C270.37 364.491 269.7 362.629 269.098 360.834Z" fill="#E5720C"/>
<path d="M236.617 337.239C236.949 345.902 234.975 353.55 231.865 361.577L212.998 352.678C206.378 349.537 198.977 346.323 193.376 341.527C195.34 341.554 197.162 342.321 199.034 342.836C205.596 344.644 211.941 346.747 218.024 349.838C219.724 350.702 221.347 351.663 222.944 352.703C223.941 353.352 225.13 354.361 226.337 354.479C226.897 354.534 227.298 354.349 227.656 353.881C228.184 353.195 228.569 351.454 228.831 350.606C230.425 345.456 232.385 340.786 236.617 337.239Z" fill="#FEFEFE"/>
<path d="M172.943 300.653C180.564 305.819 195.576 321.211 205.058 319.503C206.978 319.157 208.657 317.982 209.771 316.392C211.283 314.233 210.563 312.453 210.067 310.102L209.563 307.649L225.226 313.037C226.729 314.999 227.953 317.207 229.203 319.339C232.449 324.877 235.34 330.906 236.617 337.238C232.385 340.785 230.425 345.455 228.832 350.605C228.569 351.453 228.184 353.194 227.657 353.88C227.298 354.348 226.897 354.533 226.338 354.478C225.13 354.36 223.941 353.351 222.944 352.702C221.348 351.662 219.724 350.7 218.024 349.837C211.942 346.746 205.597 344.643 199.034 342.835C197.162 342.32 195.34 341.554 193.376 341.526C191.398 341.116 181.791 331.205 179.638 329.287L158.641 310.918C164.011 308.237 168.654 304.852 172.943 300.653Z" fill="#F6B29D"/>
<path d="M270.249 366.412C269.51 367.591 269.207 369.28 268.688 370.588C266.984 374.896 264.005 378.382 259.958 380.647C252.796 384.654 243.614 383.364 236.119 381.197L231.789 385.549C223.42 393.482 209.876 397.997 198.52 397.508C193.859 397.308 188.814 395.624 184.642 393.635C168.273 385.829 165.123 369.372 163.74 353.045C163.614 351.584 163.73 348.448 162.754 347.37L162.369 347.545C161.789 356.595 159.527 364.649 155.833 372.921C154.513 375.879 152.877 378.814 151.703 381.821L145.77 393.601L138.631 408.694L162.183 417.594C160.862 425.796 156.789 433.193 153.372 440.651C154.842 442.321 156.669 443.757 158.335 445.227L166.644 452.496C167.419 450.918 167.793 449.125 168.312 447.449C169.079 444.977 169.97 442.566 170.99 440.189C176.596 427.149 186.908 417.124 198.423 409.165C210.481 400.832 225.622 394.497 240.378 393.716C245.686 393.435 250.886 394.075 256.09 395.034C261.739 388.168 268.226 382.485 270.007 373.324C270.451 371.04 270.356 368.722 270.249 366.412Z" fill="#EC7E1D"/>
<path d="M151.703 381.821C153.891 385.835 155.668 389.963 157.395 394.193C160.576 401.983 163.021 409.044 162.183 417.595L138.631 408.695L145.77 393.601L151.703 381.821Z" fill="#1A3440"/>
<path d="M204.367 271.032C207.758 271.063 210.594 273.179 210.215 276.784C210.103 277.84 209.608 278.474 208.939 279.116C206.085 281.849 201.07 281.565 198.748 278.434C197.719 277.046 197.826 275.509 198.619 273.909C199.603 271.924 201.439 271.538 203.26 271.045C203.605 270.952 203.997 271.032 204.367 271.032Z" fill="#FBAB95"/>
<path d="M175.333 104.816C175.75 104.816 175.958 105.347 175.958 106.411C175.958 106.989 175.715 107.694 175.229 108.526C174.744 109.336 174.108 110.087 173.322 110.781C172.559 111.451 171.704 112.006 170.756 112.445C169.808 112.884 168.883 113.104 167.981 113.104C166.756 113.104 165.935 112.029 165.519 109.879C164.918 110.873 164.132 111.694 163.161 112.341C162.19 112.965 160.884 113.277 159.242 113.277C157.624 113.277 156.318 112.769 155.324 111.752C154.329 110.734 153.844 109.497 153.867 108.041C153.867 104.111 155.173 101.013 157.786 98.7469C158.895 97.799 159.924 97.1747 160.872 96.8742C161.843 96.5736 162.86 96.4234 163.924 96.4234C164.987 96.4234 165.854 96.6083 166.525 96.9782C166.849 96.3078 167.218 95.9725 167.635 95.9725C168.444 95.9725 169.207 96.3309 169.923 97.0476C170.663 97.7412 171.033 98.4001 171.033 99.0243C170.709 99.7872 170.236 100.7 169.611 101.764C169.426 102.827 169.334 104.319 169.334 106.238C169.334 108.156 169.577 109.116 170.062 109.116C170.663 109.116 172.12 107.914 174.432 105.509C174.848 105.047 175.148 104.816 175.333 104.816ZM158.965 106.896C158.965 108.677 159.624 109.567 160.942 109.567C162.352 109.544 163.519 108.792 164.444 107.313C164.768 106.804 165.034 106.18 165.242 105.44C165.242 102.851 165.473 100.631 165.935 98.7815C164.063 99.1515 162.433 100.053 161.046 101.487C159.658 102.92 158.965 104.723 158.965 106.896ZM193.229 102.458C193.229 101.695 192.79 101.313 191.911 101.313C191.31 101.313 190.64 101.903 189.9 103.082C189.16 104.238 188.628 105.486 188.304 106.827V106.896C188.304 107.683 188.42 108.492 188.651 109.324C188.906 110.156 189.033 110.734 189.033 111.058C189.033 111.844 188.05 112.619 186.085 113.381C185.784 113.497 185.519 113.555 185.287 113.555C184.709 113.555 184.305 113.254 184.074 112.653C183.866 112.052 183.761 111.243 183.761 110.226C183.761 109.185 183.785 108.214 183.831 107.313C183.9 106.388 183.958 105.544 184.004 104.781C184.074 103.995 184.131 103.313 184.178 102.735C184.247 102.134 184.282 101.648 184.282 101.278C184.282 100.492 183.923 100.099 183.207 100.099C182.49 100.099 181.658 100.943 180.71 102.631C179.762 104.296 179.288 105.625 179.288 106.619C179.288 107.59 179.403 108.492 179.635 109.324C179.889 110.156 180.016 110.734 180.016 111.058C180.016 111.844 179.034 112.619 177.068 113.381C176.768 113.497 176.502 113.555 176.271 113.555C175.693 113.555 175.288 113.254 175.057 112.653C174.849 112.052 174.745 111.127 174.745 109.879C174.745 106.596 174.872 104.226 175.126 102.77C175.473 100.62 176.259 98.585 177.485 96.6661C177.901 96.0188 178.352 95.6951 178.837 95.6951C179.6 95.6951 180.305 96.3193 180.952 97.5678C181.137 97.8915 181.276 98.192 181.369 98.4694C182.478 97.0823 183.785 96.3887 185.287 96.3887C186.282 96.3887 187.172 96.7239 187.958 97.3944C188.744 98.0417 189.137 98.8625 189.137 99.8566V100.238C190.547 98.481 192.269 97.6025 194.304 97.6025C195.552 97.6025 196.5 97.9261 197.148 98.5735C197.795 99.2208 198.119 100.018 198.119 100.966C198.119 101.914 198.049 102.77 197.911 103.533C197.772 104.296 197.61 105.012 197.425 105.683C197.263 106.353 197.113 106.954 196.974 107.486C196.836 107.995 196.766 108.399 196.766 108.7C196.766 108.977 196.859 109.116 197.044 109.116C197.39 109.116 197.818 108.896 198.327 108.457C198.835 108.018 199.344 107.544 199.853 107.035C200.361 106.503 200.824 106.018 201.24 105.579C201.679 105.139 201.98 104.92 202.141 104.92C202.465 104.92 202.627 105.313 202.627 106.099C202.627 107.717 201.806 109.289 200.165 110.815C198.546 112.341 196.812 113.104 194.963 113.104C193.298 113.104 192.466 111.59 192.466 108.561C192.466 107.798 192.593 106.746 192.847 105.405C193.102 104.064 193.229 103.082 193.229 102.458ZM235.002 104.816C235.395 104.816 235.591 105.347 235.591 106.411C235.591 106.989 235.349 107.694 234.863 108.526C234.378 109.336 233.742 110.087 232.956 110.781C232.193 111.451 231.337 112.006 230.389 112.445C229.442 112.884 228.436 113.104 227.372 113.104C226.332 113.104 225.511 112.769 224.91 112.098C224.332 111.405 224.043 110.642 224.043 109.81C224.043 108.954 224.182 107.995 224.459 106.931C224.737 105.868 225.037 104.758 225.361 103.602C226.24 100.527 226.69 98.3654 226.714 97.117C226.714 96.5852 226.644 96.1806 226.505 95.9032C226.367 95.6026 226.101 95.4524 225.708 95.4524C225.014 95.4524 224.274 95.8685 223.488 96.7008C222.702 97.5331 221.962 98.5966 221.269 99.8913C219.674 102.851 218.83 105.74 218.737 108.561C218.784 108.885 218.83 109.208 218.876 109.532C218.922 109.856 218.945 110.203 218.945 110.572C218.945 111.312 218.575 111.994 217.836 112.619C217.119 113.22 216.31 113.52 215.408 113.52C214.876 113.52 214.483 113.266 214.229 112.757C213.975 112.225 213.848 111.578 213.848 110.815C213.848 110.052 214.021 109.012 214.368 107.694C214.715 106.376 215.096 104.978 215.512 103.498C216.622 99.5907 217.188 96.6777 217.211 94.7588C217.211 93.7878 217.084 93.0248 216.83 92.4699C216.599 91.9151 216.136 91.6376 215.443 91.6376C214.194 91.6376 212.957 92.5277 211.732 94.3079C210.507 96.0881 209.409 98.8509 208.438 102.596C208.183 103.567 207.987 104.411 207.848 105.128L207.813 105.787C208.253 107.914 208.472 109.301 208.472 109.948C208.472 111.289 207.998 112.191 207.05 112.653C206.611 112.861 206.183 113.058 205.767 113.243C205.374 113.428 204.947 113.52 204.484 113.52C203.328 113.52 202.75 112.422 202.75 110.226C202.75 108.006 203.363 103.683 204.588 97.2557C205.027 94.9437 205.247 93.649 205.247 93.3716C205.247 91.4989 204.773 90.5626 203.825 90.5626C203.502 90.5626 203.201 90.6551 202.924 90.84C202.669 91.025 202.403 91.2215 202.126 91.4296C201.872 91.6376 201.606 91.8342 201.328 92.0191C201.051 92.2041 200.727 92.2965 200.357 92.2965C200.011 92.2965 199.837 91.9844 199.837 91.3602C199.837 90.0886 200.427 89.0483 201.606 88.2391C202.739 87.4068 204.114 86.9906 205.733 86.9906C207.813 86.9906 209.039 87.9617 209.409 89.9037C209.501 90.4817 209.57 91.0943 209.617 91.7417C211.328 88.5281 213.489 86.9213 216.102 86.9213C218.945 86.9213 220.575 88.2853 220.991 91.0134C221.13 91.7995 221.188 92.6433 221.165 93.545V93.8224C222.668 91.7417 224.448 90.7013 226.505 90.7013C229.418 90.7013 230.875 92.4584 230.875 95.9725C230.875 97.4984 230.632 99.2902 230.147 101.348C229.684 103.382 229.338 104.85 229.106 105.752C228.898 106.631 228.794 107.313 228.794 107.798C228.794 108.677 229.095 109.116 229.696 109.116C230.32 109.116 231.788 107.914 234.1 105.509C234.516 105.047 234.817 104.816 235.002 104.816ZM260.498 104.816C260.891 104.816 261.088 105.347 261.088 106.411C261.088 106.989 260.845 107.694 260.36 108.526C259.874 109.336 259.238 110.087 258.452 110.781C257.689 111.451 256.834 112.006 255.886 112.445C254.938 112.884 254.013 113.104 253.112 113.104C251.748 113.104 250.8 112.769 250.268 112.098C249.759 111.405 249.505 110.399 249.505 109.081C249.505 107.74 250.025 105.452 251.066 102.215C247.875 102.076 245.552 102.007 244.095 102.007H243.61C243.193 104.573 242.985 107.266 242.985 110.087C242.985 111.335 242.511 112.191 241.563 112.653C241.124 112.861 240.697 113.058 240.28 113.243C239.887 113.428 239.46 113.52 238.997 113.52C237.841 113.52 237.263 112.48 237.263 110.399C237.263 108.318 237.737 105.648 238.685 102.388C237.668 102.504 236.766 102.619 235.98 102.735C235.217 102.851 234.616 102.908 234.177 102.908C233.738 102.908 233.518 102.793 233.518 102.562C233.518 101.868 234.084 101.163 235.217 100.446C236.373 99.7294 237.934 99.1861 239.899 98.8162C242.072 93.2907 244.731 89.6031 247.875 87.7536C249.031 87.06 250.256 86.7132 251.551 86.7132C253.863 86.7363 255.528 87.3606 256.545 88.5859C257.585 89.8112 258.105 91.4411 258.105 93.4756C258.129 95.487 257.516 98.1111 256.267 101.348C255.805 102.596 255.377 103.729 254.984 104.746C254.591 105.764 254.395 106.584 254.395 107.209C254.395 107.833 254.441 108.307 254.533 108.63C254.626 108.954 254.846 109.116 255.192 109.116C255.817 109.116 257.285 107.914 259.597 105.509C260.013 105.047 260.313 104.816 260.498 104.816ZM253.112 94.4813C253.112 92.4699 252.36 91.4642 250.858 91.4642C249.332 91.4642 248.014 92.1116 246.904 93.4063C245.817 94.6779 244.974 96.3887 244.373 98.5388L252.245 98.6428C252.823 96.7933 253.112 95.4061 253.112 94.4813Z" fill="#F16441"/>
<defs>
<radialGradient id="paint0_radial_5_187" cx="0" cy="0" r="1" gradientUnits="userSpaceOnUse" gradientTransform="translate(206 146.1) rotate(90) scale(827.9 350.2)">
<stop stop-color="#FFE1C9"/>
<stop offset="1" stop-color="white"/>
</radialGradient>
</defs>
</svg>
