<svg width="88" height="16" viewBox="0 0 88 16" fill="none" xmlns="http://www.w3.org/2000/svg">
<g clip-path="url(#clip0_68_168)">
<path d="M7.68333 1.53C7.71254 1.47097 7.75768 1.42129 7.81363 1.38655C7.86959 1.35181 7.93414 1.3334 8 1.3334C8.06586 1.3334 8.13041 1.35181 8.18636 1.38655C8.24232 1.42129 8.28745 1.47097 8.31666 1.53L9.85666 4.64933C9.95811 4.85465 10.1079 5.03227 10.2931 5.16697C10.4783 5.30167 10.6934 5.38941 10.92 5.42267L14.364 5.92667C14.4293 5.93612 14.4906 5.96365 14.541 6.00613C14.5914 6.04862 14.6289 6.10437 14.6493 6.16707C14.6697 6.22978 14.6722 6.29694 14.6564 6.36096C14.6406 6.42498 14.6072 6.4833 14.56 6.52933L12.0693 8.95467C11.9051 9.11474 11.7822 9.31232 11.7112 9.53042C11.6403 9.74852 11.6234 9.98059 11.662 10.2067L12.25 13.6333C12.2615 13.6986 12.2545 13.7657 12.2297 13.8271C12.2049 13.8885 12.1633 13.9417 12.1097 13.9807C12.0561 14.0196 11.9926 14.0427 11.9266 14.0473C11.8605 14.0519 11.7945 14.0378 11.736 14.0067L8.65733 12.388C8.45447 12.2815 8.22878 12.2258 7.99966 12.2258C7.77054 12.2258 7.54485 12.2815 7.342 12.388L4.264 14.0067C4.20555 14.0376 4.13959 14.0515 4.07363 14.0468C4.00767 14.0421 3.94434 14.019 3.89086 13.9801C3.83738 13.9412 3.79589 13.8881 3.7711 13.8268C3.74632 13.7655 3.73924 13.6985 3.75066 13.6333L4.338 10.2073C4.37679 9.98116 4.35999 9.74893 4.28902 9.5307C4.21806 9.31246 4.09507 9.11477 3.93066 8.95467L1.44 6.53C1.39239 6.48402 1.35866 6.4256 1.34264 6.36138C1.32662 6.29717 1.32895 6.22975 1.34938 6.16679C1.36981 6.10384 1.40751 6.04789 1.45818 6.00532C1.50885 5.96275 1.57047 5.93527 1.636 5.926L5.07933 5.42267C5.30617 5.38967 5.52159 5.30204 5.70705 5.16733C5.89252 5.03261 6.04247 4.85485 6.144 4.64933L7.68333 1.53Z" fill="#FE9A00" stroke="#FE9A00" stroke-width="1.33333" stroke-linecap="round" stroke-linejoin="round"/>
</g>
<g clip-path="url(#clip1_68_168)">
<path d="M25.6833 1.53C25.7125 1.47097 25.7577 1.42129 25.8136 1.38655C25.8696 1.35181 25.9341 1.3334 26 1.3334C26.0659 1.3334 26.1304 1.35181 26.1864 1.38655C26.2423 1.42129 26.2874 1.47097 26.3167 1.53L27.8567 4.64933C27.9581 4.85465 28.1079 5.03227 28.2931 5.16697C28.4783 5.30167 28.6934 5.38941 28.92 5.42267L32.364 5.92667C32.4293 5.93612 32.4906 5.96365 32.541 6.00613C32.5914 6.04862 32.6289 6.10437 32.6493 6.16707C32.6697 6.22978 32.6722 6.29694 32.6564 6.36096C32.6406 6.42498 32.6072 6.4833 32.56 6.52933L30.0693 8.95467C29.9051 9.11474 29.7822 9.31232 29.7112 9.53042C29.6403 9.74852 29.6234 9.98059 29.662 10.2067L30.25 13.6333C30.2615 13.6986 30.2545 13.7657 30.2297 13.8271C30.2049 13.8885 30.1633 13.9417 30.1097 13.9807C30.0561 14.0196 29.9926 14.0427 29.9266 14.0473C29.8605 14.0519 29.7945 14.0378 29.736 14.0067L26.6573 12.388C26.4545 12.2815 26.2288 12.2258 25.9997 12.2258C25.7705 12.2258 25.5449 12.2815 25.342 12.388L22.264 14.0067C22.2056 14.0376 22.1396 14.0515 22.0736 14.0468C22.0077 14.0421 21.9443 14.019 21.8909 13.9801C21.8374 13.9412 21.7959 13.8881 21.7711 13.8268C21.7463 13.7655 21.7392 13.6985 21.7507 13.6333L22.338 10.2073C22.3768 9.98116 22.36 9.74893 22.289 9.5307C22.2181 9.31246 22.0951 9.11477 21.9307 8.95467L19.44 6.53C19.3924 6.48402 19.3587 6.4256 19.3426 6.36138C19.3266 6.29717 19.329 6.22975 19.3494 6.16679C19.3698 6.10384 19.4075 6.04789 19.4582 6.00532C19.5089 5.96275 19.5705 5.93527 19.636 5.926L23.0793 5.42267C23.3062 5.38967 23.5216 5.30204 23.7071 5.16733C23.8925 5.03261 24.0425 4.85485 24.144 4.64933L25.6833 1.53Z" fill="#FE9A00" stroke="#FE9A00" stroke-width="1.33333" stroke-linecap="round" stroke-linejoin="round"/>
</g>
<g clip-path="url(#clip2_68_168)">
<path d="M43.6833 1.53C43.7125 1.47097 43.7577 1.42129 43.8136 1.38655C43.8696 1.35181 43.9341 1.3334 44 1.3334C44.0659 1.3334 44.1304 1.35181 44.1864 1.38655C44.2423 1.42129 44.2874 1.47097 44.3167 1.53L45.8567 4.64933C45.9581 4.85465 46.1079 5.03227 46.2931 5.16697C46.4783 5.30167 46.6934 5.38941 46.92 5.42267L50.364 5.92667C50.4293 5.93612 50.4906 5.96365 50.541 6.00613C50.5914 6.04862 50.6289 6.10437 50.6493 6.16707C50.6697 6.22978 50.6722 6.29694 50.6564 6.36096C50.6406 6.42498 50.6072 6.4833 50.56 6.52933L48.0693 8.95467C47.9051 9.11474 47.7822 9.31232 47.7112 9.53042C47.6403 9.74852 47.6234 9.98059 47.662 10.2067L48.25 13.6333C48.2615 13.6986 48.2545 13.7657 48.2297 13.8271C48.2049 13.8885 48.1633 13.9417 48.1097 13.9807C48.0561 14.0196 47.9926 14.0427 47.9266 14.0473C47.8605 14.0519 47.7945 14.0378 47.736 14.0067L44.6573 12.388C44.4545 12.2815 44.2288 12.2258 43.9997 12.2258C43.7705 12.2258 43.5449 12.2815 43.342 12.388L40.264 14.0067C40.2056 14.0376 40.1396 14.0515 40.0736 14.0468C40.0077 14.0421 39.9443 14.019 39.8909 13.9801C39.8374 13.9412 39.7959 13.8881 39.7711 13.8268C39.7463 13.7655 39.7392 13.6985 39.7507 13.6333L40.338 10.2073C40.3768 9.98116 40.36 9.74893 40.289 9.5307C40.2181 9.31246 40.0951 9.11477 39.9307 8.95467L37.44 6.53C37.3924 6.48402 37.3587 6.4256 37.3426 6.36138C37.3266 6.29717 37.329 6.22975 37.3494 6.16679C37.3698 6.10384 37.4075 6.04789 37.4582 6.00532C37.5089 5.96275 37.5705 5.93527 37.636 5.926L41.0793 5.42267C41.3062 5.38967 41.5216 5.30204 41.7071 5.16733C41.8925 5.03261 42.0425 4.85485 42.144 4.64933L43.6833 1.53Z" fill="#FE9A00" stroke="#FE9A00" stroke-width="1.33333" stroke-linecap="round" stroke-linejoin="round"/>
</g>
<g clip-path="url(#clip3_68_168)">
<path d="M61.6833 1.53C61.7126 1.47097 61.7577 1.42129 61.8136 1.38655C61.8696 1.35181 61.9342 1.3334 62 1.3334C62.0659 1.3334 62.1304 1.35181 62.1864 1.38655C62.2423 1.42129 62.2875 1.47097 62.3167 1.53L63.8567 4.64933C63.9581 4.85465 64.1079 5.03227 64.2931 5.16697C64.4783 5.30167 64.6934 5.38941 64.92 5.42267L68.364 5.92667C68.4293 5.93612 68.4906 5.96365 68.541 6.00613C68.5914 6.04862 68.629 6.10437 68.6494 6.16707C68.6698 6.22978 68.6722 6.29694 68.6564 6.36096C68.6406 6.42498 68.6072 6.4833 68.56 6.52933L66.0693 8.95467C65.9051 9.11474 65.7822 9.31232 65.7112 9.53042C65.6403 9.74852 65.6234 9.98059 65.662 10.2067L66.25 13.6333C66.2615 13.6986 66.2545 13.7657 66.2297 13.8271C66.2049 13.8885 66.1633 13.9417 66.1097 13.9807C66.0561 14.0196 65.9927 14.0427 65.9266 14.0473C65.8605 14.0519 65.7945 14.0378 65.736 14.0067L62.6573 12.388C62.4545 12.2815 62.2288 12.2258 61.9997 12.2258C61.7706 12.2258 61.5449 12.2815 61.342 12.388L58.264 14.0067C58.2056 14.0376 58.1396 14.0515 58.0736 14.0468C58.0077 14.0421 57.9444 14.019 57.8909 13.9801C57.8374 13.9412 57.7959 13.8881 57.7711 13.8268C57.7463 13.7655 57.7393 13.6985 57.7507 13.6333L58.338 10.2073C58.3768 9.98116 58.36 9.74893 58.289 9.5307C58.2181 9.31246 58.0951 9.11477 57.9307 8.95467L55.44 6.53C55.3924 6.48402 55.3587 6.4256 55.3427 6.36138C55.3266 6.29717 55.329 6.22975 55.3494 6.16679C55.3698 6.10384 55.4075 6.04789 55.4582 6.00532C55.5089 5.96275 55.5705 5.93527 55.636 5.926L59.0793 5.42267C59.3062 5.38967 59.5216 5.30204 59.7071 5.16733C59.8925 5.03261 60.0425 4.85485 60.144 4.64933L61.6833 1.53Z" fill="#FE9A00" stroke="#FE9A00" stroke-width="1.33333" stroke-linecap="round" stroke-linejoin="round"/>
</g>
<g clip-path="url(#clip4_68_168)">
<path d="M79.6833 1.53C79.7126 1.47097 79.7577 1.42129 79.8136 1.38655C79.8696 1.35181 79.9342 1.3334 80 1.3334C80.0659 1.3334 80.1304 1.35181 80.1864 1.38655C80.2423 1.42129 80.2875 1.47097 80.3167 1.53L81.8567 4.64933C81.9581 4.85465 82.1079 5.03227 82.2931 5.16697C82.4783 5.30167 82.6934 5.38941 82.92 5.42267L86.364 5.92667C86.4293 5.93612 86.4906 5.96365 86.541 6.00613C86.5914 6.04862 86.629 6.10437 86.6494 6.16707C86.6698 6.22978 86.6722 6.29694 86.6564 6.36096C86.6406 6.42498 86.6072 6.4833 86.56 6.52933L84.0693 8.95467C83.9051 9.11474 83.7822 9.31232 83.7112 9.53042C83.6403 9.74852 83.6234 9.98059 83.662 10.2067L84.25 13.6333C84.2615 13.6986 84.2545 13.7657 84.2297 13.8271C84.2049 13.8885 84.1633 13.9417 84.1097 13.9807C84.0561 14.0196 83.9927 14.0427 83.9266 14.0473C83.8605 14.0519 83.7945 14.0378 83.736 14.0067L80.6573 12.388C80.4545 12.2815 80.2288 12.2258 79.9997 12.2258C79.7706 12.2258 79.5449 12.2815 79.342 12.388L76.264 14.0067C76.2056 14.0376 76.1396 14.0515 76.0736 14.0468C76.0077 14.0421 75.9444 14.019 75.8909 13.9801C75.8374 13.9412 75.7959 13.8881 75.7711 13.8268C75.7463 13.7655 75.7393 13.6985 75.7507 13.6333L76.338 10.2073C76.3768 9.98116 76.36 9.74893 76.289 9.5307C76.2181 9.31246 76.0951 9.11477 75.9307 8.95467L73.44 6.53C73.3924 6.48402 73.3587 6.4256 73.3427 6.36138C73.3266 6.29717 73.329 6.22975 73.3494 6.16679C73.3698 6.10384 73.4075 6.04789 73.4582 6.00532C73.5089 5.96275 73.5705 5.93527 73.636 5.926L77.0793 5.42267C77.3062 5.38967 77.5216 5.30204 77.7071 5.16733C77.8925 5.03261 78.0425 4.85485 78.144 4.64933L79.6833 1.53Z" fill="#FE9A00" stroke="#FE9A00" stroke-width="1.33333" stroke-linecap="round" stroke-linejoin="round"/>
</g>
<defs>
<clipPath id="clip0_68_168">
<rect width="16" height="16" fill="white"/>
</clipPath>
<clipPath id="clip1_68_168">
<rect width="16" height="16" fill="white" transform="translate(18)"/>
</clipPath>
<clipPath id="clip2_68_168">
<rect width="16" height="16" fill="white" transform="translate(36)"/>
</clipPath>
<clipPath id="clip3_68_168">
<rect width="16" height="16" fill="white" transform="translate(54)"/>
</clipPath>
<clipPath id="clip4_68_168">
<rect width="16" height="16" fill="white" transform="translate(72)"/>
</clipPath>
</defs>
</svg>
