<svg width="80" height="80" viewBox="0 0 80 80" fill="none" xmlns="http://www.w3.org/2000/svg">
<rect width="80" height="80" rx="40" fill="#C9FFFC"/>
<g clip-path="url(#clip0_130_580)">
<path d="M58.0468 17.0844H22.1144C21.5471 17.0844 21.0742 17.5574 21.0742 18.1246V46.3505C21.0742 46.9177 21.5471 47.3906 22.1144 47.3906H31.1448C31.3812 46.3033 31.8067 45.3102 32.3739 44.4119H27.5988C27.5988 42.4262 25.9914 40.866 24.0528 40.866V23.6089C25.9914 23.6089 27.5988 22.0015 27.5988 20.063H52.5151C52.5151 22.0015 54.1225 23.6089 56.0611 23.6089V40.8187C54.0753 40.8187 52.5151 42.4261 52.5151 44.3646H47.7872C48.3544 45.263 48.7802 46.2557 49.0163 47.3433L58.0467 47.343C58.614 47.343 59.0869 46.8701 59.0869 46.3029V18.1243C59.0869 17.557 58.6139 17.0841 58.0467 17.0841L58.0468 17.0844Z" fill="#09C6D2"/>
<path d="M40.0804 42.1899C36.2033 42.1899 33.0356 45.3576 33.0356 49.2346C33.0356 51.7404 34.3595 53.9626 36.3451 55.2392V61.1491C36.3451 61.4803 36.5341 61.7639 36.8181 61.9057C37.1017 62.0475 37.4328 62.0003 37.6689 61.811L40.0801 59.9671L42.4913 61.811C42.6331 61.9057 42.8224 62 43.0114 62C43.1532 62 43.2478 61.9529 43.3896 61.9054C43.6733 61.7636 43.8626 61.4799 43.8626 61.1488L43.8629 55.2392C45.8486 54.01 47.1724 51.7879 47.1724 49.2346C47.1252 45.3575 43.9575 42.1899 40.0804 42.1899L40.0804 42.1899ZM43.6735 48.6671L42.3497 49.8491C42.2551 49.9437 42.2079 50.0381 42.2551 50.1802L42.6333 51.9295C42.728 52.4024 42.2551 52.7332 41.8296 52.4967L40.2694 51.6458C40.1748 51.5987 40.0329 51.5987 39.9383 51.6458L38.3781 52.4967C37.9526 52.7332 37.4797 52.3549 37.5744 51.9295L37.9526 50.1802C37.9998 50.0855 37.9526 49.9437 37.858 49.8491L36.5342 48.6671C36.203 48.336 36.3923 47.7687 36.8653 47.7216L38.6145 47.5326C38.7563 47.5326 38.851 47.438 38.8982 47.3436L39.6072 45.7362C39.7962 45.3108 40.4109 45.3108 40.6003 45.7362L41.3568 47.3436C41.404 47.4383 41.4986 47.5326 41.6404 47.5326L43.3897 47.7216C43.8155 47.7691 44.0048 48.3363 43.6736 48.6671H43.6735Z" fill="#09C6D2"/>
<path d="M40.0805 34.8616C39.6551 34.8616 39.2297 34.7669 38.8039 34.6251L33.7923 32.6393C33.4141 33.4431 33.2251 34.3414 33.2251 35.2869V36.2324C33.2251 36.5635 33.4141 36.8472 33.698 36.9415L39.4661 39.2108C39.8916 39.3526 40.3645 39.3526 40.7428 39.2108L46.5109 36.9415C46.7945 36.7997 46.9838 36.5632 46.9838 36.2324V35.2869C46.9838 34.3414 46.7948 33.443 46.4165 32.6393L41.405 34.6251C40.9314 34.7672 40.506 34.8616 40.0805 34.8616H40.0805Z" fill="#09C6D2"/>
<path d="M39.2297 33.1595C39.7498 33.3485 40.3645 33.3485 40.8846 33.1595L51.6643 28.9045C52.0898 28.7627 52.0898 28.1954 51.6643 28.0061L40.8846 23.7511C40.3645 23.5621 39.7498 23.5621 39.2297 23.7511L28.4499 28.0061C28.0245 28.1479 28.0245 28.7152 28.4499 28.9045L29.4901 29.3299V31.9304H29.3954C29.2536 31.9304 29.1118 32.0722 29.1118 32.214V32.4976C29.1118 32.6395 29.2065 32.7813 29.3483 32.7813L28.781 33.9161C28.6392 34.1997 28.8282 34.5308 29.1593 34.5308H30.9086C31.2397 34.5308 31.4286 34.1997 31.2868 33.9161L30.7196 32.7813C30.8614 32.7813 30.956 32.6395 30.956 32.4976V32.214C30.956 32.0722 30.8142 31.9304 30.6724 31.9304H30.5778V29.7554L39.2297 33.1595Z" fill="#09C6D2"/>
</g>
<defs>
<clipPath id="clip0_130_580">
<rect width="38.1613" height="45" fill="white" transform="translate(21 17)"/>
</clipPath>
</defs>
</svg>
