<svg width="80" height="80" viewBox="0 0 80 80" fill="none" xmlns="http://www.w3.org/2000/svg">
<rect width="80" height="80" rx="40" fill="#FED8D9"/>
<g clip-path="url(#clip0_130_567)">
<path d="M40.5493 61.3259H43.5784L47.1009 46.3912H44.1421L40.5493 61.3259Z" fill="#ED1C24"/>
<path d="M51.6094 46.3912L55.2021 61.3259H58.1609L54.5681 46.3912H51.6094Z" fill="#ED1C24"/>
<path d="M62.8102 32.2311V40.8957C62.8102 43.5726 60.6262 45.6859 58.0201 45.6859L40.6901 45.6862C38.0132 45.6862 35.8999 43.5022 35.8999 40.896V39.9098C38.295 37.092 38.0839 33.5697 36.3225 30.2588C37.0973 28.5682 38.7879 27.4411 40.6901 27.4411H58.02C60.6973 27.4408 62.8105 29.554 62.8105 32.2309L62.8102 32.2311Z" fill="#ED1C24"/>
<path d="M31.5318 21.1011C31.5318 23.3577 29.7023 25.1869 27.4456 25.1869C25.1893 25.1869 23.3599 23.3577 23.3599 21.1011C23.3599 18.8444 25.1893 17.0153 27.4456 17.0153C29.7023 17.0153 31.5318 18.8444 31.5318 21.1011Z" fill="#ED1C24"/>
<path d="M34.2793 28.4277C31.1798 24.6235 22.9372 25.1871 20.6124 28.5684C20.4717 28.7799 16.8788 34.0634 17.0197 42.7285C17.0197 43.5033 17.6537 44.1374 18.4285 44.1374C19.2033 44.1374 19.8374 43.5033 19.8374 42.7285C19.767 38.7131 20.6122 35.4725 21.4577 33.359L22.5144 47.0957C22.5144 47.2364 22.6551 47.3775 22.7258 47.4479V47.5183V59.8459C22.7258 61.0437 23.6417 61.9592 24.8391 61.9592C26.0368 61.9592 26.9524 61.0433 26.9524 59.8459L26.9527 47.4477H28.0094V59.7754C28.0094 60.9731 28.9252 61.8886 30.1226 61.8886C31.3203 61.8886 32.2359 60.9728 32.2359 59.7754L32.2362 47.4477V47.3773C32.3769 47.3069 32.4476 47.1659 32.4476 47.0251L32.7999 42.0938C31.9543 42.3756 30.8273 42.0938 30.2637 41.1075C29.7 40.0508 30.1229 38.7828 31.1092 38.2191C32.3069 37.5851 33.0113 36.8103 33.2225 35.824L33.4339 32.6537C34.6317 35.5421 33.8565 37.5147 31.3911 38.7824C30.6866 39.1346 30.4752 39.9801 30.8274 40.6845C31.1796 41.3889 32.0251 41.6004 32.7295 41.2482C38.1538 38.5008 37.9423 32.9356 34.2791 28.4273L34.2793 28.4277Z" fill="#ED1C24"/>
</g>
<defs>
<clipPath id="clip0_130_567">
<rect width="45.8303" height="45" fill="white" transform="translate(17 17)"/>
</clipPath>
</defs>
</svg>
