<svg width="80" height="80" viewBox="0 0 80 80" fill="none" xmlns="http://www.w3.org/2000/svg">
<rect width="80" height="80" rx="40" fill="#DCEBFC"/>
<g clip-path="url(#clip0_130_537)">
<path d="M14.1816 31.2578L40.0754 18.1631L66.2882 31.2578L40.2349 44.512L14.1816 31.2578Z" fill="#034EA2"/>
<path d="M14.7502 32.2482C17.6742 30.7693 20.5867 29.2901 23.5103 27.8228C28.1636 25.4677 32.8167 23.1128 37.4582 20.7689C38.5161 20.234 39.5858 19.688 40.6437 19.1536H39.4946C42.4412 20.6325 45.3994 22.1002 48.346 23.579C53.0449 25.9341 57.7549 28.2779 62.4534 30.6329C63.5344 31.1678 64.6152 31.7138 65.6961 32.2482V30.2801C62.7494 31.7819 59.8028 33.2834 56.8563 34.7738C52.1915 37.1403 47.5386 39.5179 42.8738 41.8844C41.7929 42.4304 40.7235 42.9768 39.6426 43.5339H40.7917C37.845 42.032 34.8984 40.5305 31.9519 39.0402C27.2871 36.6736 22.6342 34.2961 17.9694 31.9295C16.8885 31.3836 15.8191 30.8372 14.7382 30.2801C13.441 29.6202 12.2809 31.5773 13.5891 32.2482C16.5699 33.7612 19.5507 35.2746 22.5313 36.7991C27.2072 39.1767 31.8719 41.5547 36.5474 43.9324C37.5711 44.4557 38.5837 45.0017 39.6189 45.491C40.2221 45.7755 40.6427 45.5819 41.1549 45.3204C41.6783 45.0589 42.2017 44.7855 42.7251 44.524C47.1962 42.2488 51.6562 39.9731 56.1275 37.709C59.6316 35.9226 63.1814 34.2164 66.6512 32.3502C66.708 32.3161 66.7762 32.2935 66.8334 32.2594C67.573 31.884 67.5841 30.6666 66.8334 30.2913C63.8867 28.8123 60.9286 27.3446 57.982 25.8658C53.2831 23.5108 48.5731 21.1669 43.8745 18.812C42.8052 18.2771 41.7584 17.7196 40.6775 17.2192C40.12 16.9577 39.6764 17.1053 39.1871 17.3557C38.6864 17.6061 38.1745 17.8676 37.6741 18.118C33.2371 20.359 28.8002 22.6006 24.363 24.8532C20.8363 26.6396 17.2639 28.3459 13.7713 30.212C13.7145 30.2461 13.6463 30.2687 13.5891 30.3029C12.292 30.9397 13.4526 32.9082 14.7494 32.2483L14.7502 32.2482Z" fill="#034EA2"/>
<path d="M56.1514 35.8431V51.0883V53.2841C56.1514 54.7518 58.4266 54.7518 58.4266 53.2841V38.039V35.8431C58.4266 34.3754 56.1514 34.3754 56.1514 35.8431Z" fill="#034EA2"/>
<path d="M51.395 60.8379L57.368 53.0789L63.3521 60.8379H51.395Z" fill="#034EA2"/>
<path d="M52.3742 61.3722C54.115 59.1196 55.8557 56.8555 57.5961 54.6028C57.8464 54.2731 58.1079 53.943 58.3583 53.6132H56.3902C58.131 55.8659 59.8717 58.13 61.612 60.3826C61.8624 60.7124 62.1239 61.0425 62.3743 61.3722C62.704 60.8032 63.0341 60.2346 63.3528 59.6656H52.8971H51.3953C49.9275 59.6656 49.9275 61.9408 51.3953 61.9408H61.8509H63.3528C64.1265 61.9408 64.8773 60.9396 64.3313 60.2341C62.5905 57.9815 60.8498 55.7174 59.1094 53.4647C58.8591 53.135 58.5976 52.8048 58.3472 52.4751C57.7897 51.747 56.9366 51.747 56.3791 52.4751C54.6383 54.7278 52.8976 56.9919 51.1573 59.2445C50.9069 59.5742 50.6454 59.9044 50.395 60.2341C50.0196 60.7234 50.3153 61.5082 50.8045 61.7928C51.4072 62.1229 51.9989 61.8614 52.3742 61.3722L52.3742 61.3722Z" fill="#034EA2"/>
<path d="M29.3359 45.5471C32.4646 47.2081 35.5934 48.858 38.7217 50.5189C39.2335 50.7919 39.9275 51.2927 40.5307 51.122C40.9743 50.997 41.418 50.7126 41.8163 50.5078C43.7162 49.5864 45.6049 48.6532 47.5048 47.7318C48.9952 47.0037 50.4856 46.2756 51.976 45.5474C52.5335 45.2745 52.6815 44.4896 52.3854 43.9888C52.0557 43.4313 51.3843 43.3063 50.8268 43.5793C47.5615 45.1721 44.2963 46.7763 41.0426 48.369C40.5875 48.5964 40.1212 48.8241 39.6661 49.0404H40.8152C37.8003 47.4476 34.7969 45.855 31.7816 44.2622C31.3491 44.0348 30.9285 43.807 30.496 43.5797C29.1878 42.8964 28.0387 44.8645 29.3358 45.547L29.3359 45.5471Z" fill="#034EA2"/>
</g>
<defs>
<clipPath id="clip0_130_537">
<rect width="54.447" height="45" fill="white" transform="translate(13 17)"/>
</clipPath>
</defs>
</svg>
