<svg width="16" height="16" viewBox="0 0 16 16" fill="none" xmlns="http://www.w3.org/2000/svg">
<path fill-rule="evenodd" clip-rule="evenodd" d="M2.03236 0.00845178C1.99796 0.0153615 1.89307 0.036622 1.79927 0.055694C1.11946 0.193731 0.457729 0.756168 0.16699 1.44301C-0.00959749 1.86012 9.48316e-05 1.48028 9.48316e-05 7.99314C9.48316e-05 14.506 -0.00959749 14.1262 0.16699 14.5433C0.40192 15.0982 0.880877 15.581 1.42268 15.8089C1.84454 15.9863 1.7011 15.9779 4.47889 15.9891L7.05048 15.9995V13.1688V10.3381H6.11251H5.17454V8.93111V7.52416H6.1102H7.04585L7.05795 6.34388C7.06924 5.24393 7.07477 5.1466 7.13915 4.91349C7.40909 3.93606 8.18048 3.16443 9.1609 2.89107C9.40246 2.82373 9.46749 2.82098 11.0603 2.81044L12.7095 2.79953V4.20823V5.61696H11.287H9.86438V6.57056V7.52416H11.2894H12.7145L12.6968 7.61014C12.6871 7.65744 12.5873 8.25186 12.475 8.93111C12.3628 9.61035 12.263 10.2048 12.2533 10.2521L12.2356 10.3381H11.05H9.86438V13.169V16L11.967 15.9891C13.7569 15.9798 14.0929 15.971 14.2259 15.9297C15.1 15.6586 15.7189 15.0256 15.9331 14.1837C15.9984 13.9268 15.9984 2.05944 15.9331 1.80256C15.7501 1.08333 15.2218 0.460833 14.5542 0.177942C14.118 -0.00693088 14.6136 0.00660711 8.08224 0.00101058C4.7892 -0.00183459 2.06675 0.00154209 2.03236 0.00845178Z" />
</svg>
