<svg width="16" height="16" viewBox="0 0 16 16" fill="none" xmlns="http://www.w3.org/2000/svg">
<g clip-path="url(#clip0_122_338)">
<path d="M15.5574 11.2841L12.3574 9.68408C12.2072 9.60912 12.0373 9.58331 11.8716 9.6103C11.7059 9.63729 11.5529 9.71572 11.4343 9.83448L10.0943 11.1745C8.1687 10.8649 5.13433 7.8313 4.82554 5.90573L6.16552 4.56575C6.28428 4.4471 6.36271 4.29411 6.3897 4.12842C6.41669 3.96274 6.39088 3.79276 6.31592 3.64256L4.71594 0.442598C4.66356 0.337707 4.58877 0.245611 4.49686 0.172828C4.40495 0.100044 4.29816 0.0483516 4.18406 0.0214096C4.06996 -0.00553233 3.95133 -0.00706554 3.83657 0.0169185C3.7218 0.0409025 3.61372 0.0898175 3.51996 0.160201L0.319996 2.56017C0.22064 2.63469 0.139999 2.73131 0.0844571 2.8424C0.0289156 2.95348 0 3.07597 0 3.20016C0 10.8561 5.14394 16 12.7998 16C12.924 16 13.0465 15.9711 13.1576 15.9155C13.2687 15.86 13.3653 15.7794 13.4398 15.68L15.8398 12.48C15.9102 12.3863 15.9591 12.2782 15.9831 12.1634C16.0071 12.0487 16.0055 11.93 15.9786 11.8159C15.9516 11.7018 15.9 11.5951 15.8272 11.5031C15.7544 11.4112 15.6623 11.3364 15.5574 11.2841Z" />
<path d="M9.19989 1.59998C10.5785 1.60167 11.9001 2.15007 12.8749 3.12488C13.8497 4.09969 14.3981 5.42133 14.3998 6.79991C14.3998 7.01208 14.4841 7.21556 14.6341 7.36559C14.7842 7.51562 14.9876 7.5999 15.1998 7.5999C15.412 7.5999 15.6155 7.51562 15.7655 7.36559C15.9155 7.21556 15.9998 7.01208 15.9998 6.79991C15.9977 4.99711 15.2806 3.26876 14.0058 1.99399C12.731 0.719215 11.0027 0.00211721 9.19989 0C8.98772 0 8.78424 0.0842844 8.63421 0.234312C8.48419 0.384339 8.3999 0.587819 8.3999 0.79999C8.3999 1.01216 8.48419 1.21564 8.63421 1.36567C8.78424 1.5157 8.98772 1.59998 9.19989 1.59998Z" />
<path d="M9.19989 4.80018C9.73032 4.80018 10.239 5.01089 10.6141 5.38595C10.9892 5.76102 11.1999 6.26972 11.1999 6.80015C11.1999 7.01232 11.2842 7.2158 11.4342 7.36583C11.5842 7.51586 11.7877 7.60014 11.9999 7.60014C12.212 7.60014 12.4155 7.51586 12.5655 7.36583C12.7156 7.2158 12.7998 7.01232 12.7998 6.80015C12.7998 5.84538 12.4206 4.92972 11.7454 4.2546C11.0703 3.57948 10.1547 3.2002 9.19989 3.2002C8.98772 3.2002 8.78424 3.28448 8.63421 3.43451C8.48419 3.58453 8.3999 3.78801 8.3999 4.00019C8.3999 4.21236 8.48419 4.41584 8.63421 4.56586C8.78424 4.71589 8.98772 4.80018 9.19989 4.80018Z" />
</g>
<defs>
<clipPath id="clip0_122_338">
<rect width="16" height="16" />
</clipPath>
</defs>
</svg>
