<svg width="31" height="30" viewBox="0 0 31 30" fill="none" xmlns="http://www.w3.org/2000/svg">
<path fill-rule="evenodd" clip-rule="evenodd" d="M4.31281 0.0446667C2.6754 0.319867 1.2694 1.75879 1.0141 3.42067C0.97178 3.69611 0.957342 7.45208 0.968435 15.2686L0.984751 26.7133L1.14997 27.1828C1.61116 28.4932 2.49152 29.3736 3.80191 29.8348L4.27143 30H15.9802H27.689L28.1586 29.8343C29.5134 29.3561 30.4476 28.3813 30.868 27.0068C30.971 26.6702 30.9757 26.1385 30.9757 14.9752V3.29572L30.8105 2.8262C30.3493 1.51581 29.4689 0.635447 28.1586 0.174256L27.689 0.00904138L16.1563 0.000707301C9.6465 -0.00398796 4.48823 0.0151452 4.31281 0.0446667ZM20.5875 7.37578C21.1197 7.54382 21.4448 7.71085 21.8876 8.04368C22.1394 8.23302 22.3028 8.31378 22.4339 8.31378C22.6994 8.31378 23.4304 8.06041 24.0631 7.74906C24.6437 7.46335 24.8021 7.44463 24.8325 7.65814C24.8602 7.85306 24.5011 8.57043 24.1414 9.03867C23.7969 9.48701 23.7781 9.4785 24.5197 9.20946C25.0269 9.02546 25.3301 9.00433 25.3592 9.15106C25.3925 9.31915 24.8648 9.99814 24.1612 10.6923L23.5054 11.3395L23.4689 11.8662C23.3557 13.505 23.128 14.621 22.6721 15.7725C21.3222 19.1825 18.6486 21.588 15.2466 22.4537C14.2047 22.7188 13.707 22.7761 12.4294 22.7776C11.1344 22.7792 10.6759 22.7299 9.69193 22.4837C8.8884 22.2825 8.18786 22.0267 7.42424 21.6554C6.73791 21.3216 6.54928 21.1521 6.61924 20.9318C6.67728 20.7488 6.882 20.6975 7.55424 20.6975C8.58367 20.6975 9.65413 20.4494 10.61 19.9894C11.2662 19.6735 11.5701 19.4796 11.461 19.4461C11.4126 19.4312 11.1881 19.3618 10.9622 19.2919C9.97852 18.9877 9.08759 18.2259 8.6176 17.287C8.22003 16.4928 8.25483 16.3941 8.91252 16.4504L9.31883 16.4852L8.94803 16.2567C7.85879 15.5856 7.11611 14.3812 7.01957 13.1294C6.97156 12.5063 7.02761 12.4665 7.61134 12.7095C7.85198 12.8097 8.07882 12.8917 8.1155 12.8917C8.15218 12.8917 8.09149 12.7794 7.98057 12.6422C7.34172 11.852 7.05519 11.0482 7.05161 10.0366C7.04944 9.40496 7.17674 8.82251 7.42823 8.31378C7.68647 7.79131 7.75696 7.79354 8.24309 8.33949C9.66628 9.93775 11.5354 11.0686 13.6303 11.5989C14.2905 11.766 15.2354 11.895 15.3053 11.8274C15.3376 11.7963 15.3672 11.5145 15.3712 11.2014C15.3801 10.5034 15.4967 10.0186 15.8093 9.38083C16.3239 8.33109 17.328 7.55696 18.5333 7.28094C19.0456 7.16362 20.0645 7.21069 20.5875 7.37578Z" />
</svg>
