<svg width="16" height="16" viewBox="0 0 16 16" fill="none" xmlns="http://www.w3.org/2000/svg">
<path d="M8.00031 0.0230633C3.59998 0.0230633 0.0232299 3.60323 0.0232299 8.00015C0.0232299 9.46477 0.422136 10.8911 1.18149 12.1355L0.0391272 15.5591C0.000799078 15.674 0.029512 15.7984 0.11565 15.8846C0.176279 15.9452 0.259212 15.9771 0.342279 15.9771C0.3774 15.9771 0.409318 15.9739 0.444443 15.9612L3.86495 14.8221C5.1124 15.5784 6.53869 15.9771 8.00033 15.9771C12.4007 15.9771 15.9774 12.4004 15.9774 8.00004C15.9774 3.60312 12.4003 0.0229492 8.00033 0.0229492L8.00031 0.0230633ZM13.1056 11.2296C13.1056 11.5072 12.9908 11.7816 12.7928 11.9794L11.9632 12.7995C11.7654 12.9973 11.4974 13.1058 11.223 13.1058H11.1815C6.72369 12.9142 3.08609 9.2767 2.89464 4.82234C2.88182 4.53201 2.9936 4.24474 3.20099 4.03735L4.02109 3.20775C4.21888 3.00996 4.4933 2.89511 4.77415 2.89511H5.08051C5.5176 2.89511 5.91651 3.16955 6.0697 3.58113L6.79726 5.51156C6.93762 5.88803 6.85148 6.31884 6.57397 6.61238L6.27402 6.92821C6.13674 7.07178 6.12085 7.29201 6.23249 7.45464C6.60268 7.99071 7.39396 9.0022 8.549 9.78076C8.70859 9.88613 8.92562 9.8669 9.06596 9.73295L9.39141 9.42659C9.68174 9.14895 10.1126 9.0628 10.489 9.20317L12.4194 9.93072C12.831 10.0871 13.1055 10.4828 13.1055 10.9199L13.1056 11.2296Z" />
</svg>
