<svg width="31" height="30" viewBox="0 0 31 30" fill="none" xmlns="http://www.w3.org/2000/svg">
<path fill-rule="evenodd" clip-rule="evenodd" d="M4.48249 0.0875747C2.74392 0.462211 1.41285 1.79849 1.05902 3.52441C0.976568 3.9267 0.96643 5.18164 0.96643 14.998C0.96643 27.0213 0.950197 26.4133 1.29377 27.2712C1.69695 28.278 2.64611 29.2258 3.69149 29.6654C4.52638 30.0165 3.91523 29.9999 15.9683 29.9999C25.8165 29.9999 27.0383 29.99 27.4415 29.9066C29.0709 29.5701 30.3251 28.3949 30.8371 26.7248C30.9308 26.4195 30.9393 25.5933 30.9557 15.2031C30.9717 5.12281 30.9642 3.96374 30.8795 3.54152C30.5302 1.79773 29.1843 0.445979 27.4419 0.0887468C27.0391 0.00617794 25.793 -0.00331542 15.9268 0.000786652C6.67434 0.00471292 4.80104 0.0188944 4.48249 0.0875747ZM26.4249 3.83013C27.0378 4.13005 27.3638 4.6707 27.3638 5.38745C27.3638 5.88667 27.2421 6.22058 26.9311 6.57477C26.4544 7.11776 25.5413 7.28478 24.865 6.95268C23.9258 6.49149 23.6048 5.32498 24.1713 4.43184C24.6388 3.69464 25.6151 3.43399 26.4249 3.83013ZM17.4626 7.28964C18.5071 7.50318 19.5291 7.92886 20.422 8.52237C20.6637 8.68305 21.1552 9.1048 21.5143 9.45963C22.7014 10.6328 23.3796 11.8923 23.743 13.5989C23.8885 14.2821 23.8885 15.8311 23.743 16.5143C23.3847 18.197 22.7119 19.4545 21.5402 20.6312C20.385 21.7915 19.1118 22.4723 17.426 22.8313C16.7456 22.9762 15.1973 22.9767 14.5033 22.8321C12.8709 22.4921 11.5588 21.7886 10.3937 20.6285C9.24019 19.4801 8.53475 18.1636 8.19281 16.5216C8.04883 15.8304 8.04883 14.2828 8.19281 13.5916C8.53475 11.9496 9.24019 10.6332 10.3937 9.48472C11.7079 8.1761 13.2886 7.4103 15.1479 7.1814C15.5681 7.12972 17.0099 7.19711 17.4626 7.28964ZM15.0307 8.96821C13.6608 9.17835 12.188 10.0076 11.2904 11.0739C9.53179 13.1631 9.33834 16.1108 10.8105 18.3861C11.6623 19.7027 12.9298 20.6028 14.56 21.0489C15.1979 21.2234 16.7387 21.2234 17.3765 21.0489C18.5735 20.7213 19.5453 20.1725 20.3222 19.3854C22.5904 17.0871 22.7157 13.5037 20.6138 11.0382C19.7775 10.0572 18.6363 9.37314 17.2876 9.04409C16.8423 8.93551 15.5312 8.89144 15.0307 8.96821Z" />
</svg>
