<svg width="32" height="30" viewBox="0 0 32 30" fill="none" xmlns="http://www.w3.org/2000/svg">
<path fill-rule="evenodd" clip-rule="evenodd" d="M12.5342 0.0320641C10.461 0.122066 8.05177 0.298782 6.53923 0.471799C5.01179 0.646519 3.9566 1.14637 2.99012 2.15312C2.48246 2.68192 2.25754 3.00676 1.96129 3.639C1.66951 4.26162 1.52678 4.88247 1.41412 6.01968C0.926303 10.9425 0.842877 16.2464 1.17682 21.108C1.36874 23.9016 1.50136 25.0398 1.71342 25.7123C1.99106 26.5929 2.33475 27.1687 2.99012 27.8514C3.95613 28.8576 5.00991 29.357 6.53923 29.5334C7.50788 29.6451 9.83272 29.832 11.4188 29.9257C13.0869 30.0244 18.8539 30.0248 20.5187 29.9266C23.3639 29.7585 25.6336 29.5534 26.2994 29.404C27.3198 29.1751 28.1403 28.7069 28.9436 27.8952C29.9091 26.9197 30.3587 25.9464 30.5281 24.4649C31.1805 18.7616 31.1807 11.2449 30.5286 5.54337C30.3989 4.41039 30.0885 3.54536 29.5301 2.7613C29.238 2.35109 28.5387 1.66354 28.1318 1.38655C27.6849 1.08232 26.9184 0.74744 26.3825 0.62233C25.6717 0.456358 23.5551 0.258331 20.6655 0.0874272C19.2724 0.00499899 13.9853 -0.03099 12.5342 0.0320641ZM18.4639 8.19299C20.2023 8.27448 21.8659 8.41151 22.4268 8.51953C23.4454 8.71562 24.4387 9.39794 24.8008 10.1501C24.9824 10.5275 25.1344 11.3302 25.2858 12.7126C25.3978 13.7358 25.3799 16.4798 25.2542 17.546C25.0946 18.8993 24.9528 19.597 24.7685 19.9357C24.5275 20.3785 23.9519 20.8868 23.3801 21.1619C22.6737 21.5017 22.2854 21.5633 19.5794 21.7646C18.2778 21.8615 13.804 21.8604 12.4168 21.7629C10.9186 21.6575 9.72323 21.5365 9.38453 21.456C8.54422 21.2561 7.57422 20.5724 7.22772 19.9357C7.04496 19.6 6.91151 18.9432 6.74419 17.5561C6.59536 16.3225 6.59536 13.682 6.74419 12.4484C6.98525 10.4501 7.11059 10.055 7.68131 9.49446C8.36363 8.82423 9.11923 8.5308 10.4984 8.40053C13.0763 8.157 16.0445 8.07968 18.4639 8.19299ZM13.7671 15.0022V18.5902L13.9925 18.4548C15.3053 17.6657 19.5778 15.0247 19.5779 15.0022C19.578 14.9796 15.1963 12.2708 13.9931 11.5497L13.7671 11.4143V15.0022Z" />
</svg>
