<svg width="31" height="30" viewBox="0 0 31 30" fill="none" xmlns="http://www.w3.org/2000/svg">
<path fill-rule="evenodd" clip-rule="evenodd" d="M2.48063 0.108684C1.79497 0.328077 1.29565 0.828567 1.07989 1.51265C0.96375 1.88076 0.962402 2.03798 0.962402 14.9988C0.962402 27.9596 0.96375 28.1168 1.07989 28.4849C1.29852 29.1782 1.79837 29.6733 2.50003 29.8917C2.8341 29.9957 3.37162 30 15.9627 30C28.9244 30 29.0816 29.9987 29.4498 29.8825C30.143 29.6639 30.6381 29.164 30.8565 28.4624C30.9605 28.1283 30.9648 27.5908 30.9648 14.9988C30.9648 2.4068 30.9605 1.86928 30.8565 1.53521C30.6381 0.833548 30.143 0.333703 29.4498 0.115072C29.0815 -0.00107044 28.9289 -0.00235962 15.9428 0.000746102C3.49122 0.00373462 2.7912 0.00936008 2.48063 0.108684ZM10.6604 6.53705C11.0756 6.68267 11.5731 7.19019 11.7181 7.61597C12.057 8.61138 11.5952 9.66317 10.6669 10.0105C9.57298 10.4198 8.45638 10.0799 7.96176 9.18694C7.80295 8.90015 7.78912 8.82843 7.78912 8.28927C7.78912 7.79745 7.80987 7.66455 7.91816 7.46209C8.19369 6.94713 8.59907 6.62091 9.16203 6.46117C9.50723 6.36325 10.2759 6.40216 10.6604 6.53705ZM21.7942 11.5736C22.3882 11.7349 23.042 12.1128 23.4642 12.5391C23.9159 12.995 24.1859 13.4315 24.4128 14.0729C24.7385 14.9932 24.7534 15.2134 24.7534 19.1084V22.6752H22.9368H21.1203L21.1193 19.4669C21.1185 16.9345 21.1009 16.1766 21.0357 15.8693C20.8846 15.1564 20.5989 14.7449 20.0775 14.4893C19.6129 14.2616 18.9579 14.2572 18.4833 14.4786C18.061 14.6756 17.7091 15.0371 17.473 15.5165L17.2821 15.9044L17.2632 19.2898L17.2443 22.6752H15.432H13.6197V17.1669V11.6587H15.4362H17.2528L17.2547 12.4351L17.2565 13.2115L17.405 13.0357C17.4866 12.9391 17.6565 12.7372 17.7826 12.5871C18.2073 12.0811 19.0542 11.6182 19.8029 11.4828C20.2175 11.4079 21.3786 11.4608 21.7942 11.5736ZM11.613 17.1816L11.6279 22.6752H9.78176H7.93562V17.206C7.93562 14.1979 7.95355 11.7189 7.97553 11.6969C7.99744 11.675 8.82151 11.664 9.80673 11.6725L11.598 11.688L11.613 17.1816Z" />
</svg>
