<svg width="16" height="12" viewBox="0 0 16 12" fill="none" xmlns="http://www.w3.org/2000/svg">
<g clip-path="url(#clip0_122_349)">
<path d="M8 6.65143L0.977143 0.171429C1.20702 0.0600838 1.45887 0.00151367 1.71429 0H14.2857C14.5411 0.00151367 14.793 0.0600838 15.0229 0.171429L8 6.65143ZM15.8286 0.977143L8.4 7.83429C8.29434 7.93228 8.15554 7.98674 8.01143 7.98674C7.86732 7.98674 7.72852 7.93228 7.62286 7.83429L0.194286 0.977143C0.0750195 1.20516 0.00861598 1.4571 0 1.71429V9.71429C0 10.1689 0.180612 10.605 0.502103 10.9265C0.823594 11.248 1.25963 11.4286 1.71429 11.4286H14.2857C14.7404 11.4286 15.1764 11.248 15.4979 10.9265C15.8194 10.605 16 10.1689 16 9.71429V1.71429C15.9985 1.45887 15.9399 1.20702 15.8286 0.977143Z" />
</g>
<defs>
<clipPath id="clip0_122_349">
<rect width="16" height="11.4286" />
</clipPath>
</defs>
</svg>
