<svg width="30" height="30" viewBox="0 0 30 30" fill="none" xmlns="http://www.w3.org/2000/svg">
<path fill-rule="evenodd" clip-rule="evenodd" d="M3.81067 0.0158471C3.74618 0.0288028 3.5495 0.0686663 3.37363 0.104426C2.099 0.363246 0.858241 1.41781 0.313107 2.70564C-0.0179953 3.48773 0.000177809 2.77552 0.000177809 14.9871C0.000177809 27.1988 -0.0179953 26.4866 0.313107 27.2686C0.753599 28.3092 1.65164 29.2144 2.66752 29.6416C3.45852 29.9744 3.18956 29.9585 8.39791 29.9796L13.2196 29.9991V24.6915V19.3839H11.461H9.70227V16.7458V14.1078H11.4566H13.211L13.2337 11.8948C13.2548 9.83237 13.2652 9.64988 13.3859 9.21278C13.892 7.38012 15.3384 5.9333 17.1767 5.42076C17.6296 5.29449 17.7515 5.28933 20.738 5.26957L23.8304 5.24911V7.89043V10.5318H21.163H18.4957V12.3198V14.1078H21.1677H23.8397L23.8065 14.269C23.7882 14.3577 23.6011 15.4722 23.3907 16.7458C23.1803 18.0194 22.9932 19.134 22.975 19.2226L22.9417 19.3839H20.7187H18.4957V24.6919V30L22.4381 29.9795C25.7941 29.9621 26.4241 29.9456 26.6736 29.8682C28.3126 29.3599 29.4729 28.1731 29.8745 26.5945C29.997 26.1128 29.997 3.86145 29.8745 3.37981C29.5314 2.03124 28.5409 0.864062 27.2891 0.333642C26.4712 -0.0129954 27.4005 0.0123883 15.1542 0.00189484C8.97974 -0.00343985 3.87515 0.00289143 3.81067 0.0158471Z" />
</svg>
