<svg width="66" height="70" viewBox="0 0 66 70" fill="none" xmlns="http://www.w3.org/2000/svg">
<g clip-path="url(#clip0_122_165)">
<path d="M18.6314 39.421L19.0585 39.0011V39.0006C19.2482 38.8084 19.4255 38.6043 19.5889 38.3895C20.5938 37.0326 20.9546 35.3041 20.5763 33.6588C20.5126 33.3828 20.4288 33.112 20.326 32.8483L20.1641 32.4654L20.0387 32.1929L19.0143 29.9823L16.8998 25.4506L15.8092 23.1294C15.8092 23.0482 15.6915 22.8935 15.6103 22.7537C15.5352 22.6087 15.4514 22.4684 15.3594 22.3332C15.1739 22.0691 14.9647 21.8223 14.7334 21.5967C14.2672 21.1166 13.7147 20.7291 13.1051 20.4546C11.8685 19.8959 10.4674 19.8194 9.17776 20.2408C8.52758 20.4526 7.92468 20.7882 7.40197 21.2282L7.03344 21.5597L6.79752 21.7956L6.3185 22.2674C5.68476 22.894 5.05874 23.483 4.34376 24.2714C3.99734 24.6399 3.70283 25.0598 3.37851 25.4504C3.0542 25.8411 2.79617 26.2903 2.52376 26.7251C0.35534 30.3091 -0.431107 34.5613 0.313104 38.6839C0.499683 39.7227 0.783393 40.7414 1.16066 41.7272C1.34466 42.2212 1.58058 42.6997 1.7872 43.2008L2.42042 44.4682C3.29316 46.2143 4.25989 47.9114 5.31621 49.5526C9.53134 56.0576 15.1769 61.5139 21.8215 65.5052C22.6392 65.977 23.4498 66.4556 24.2824 66.8832C25.115 67.3104 25.9477 67.738 26.7361 68.1137C32.0234 70.7273 38.2852 70.4292 43.3005 67.3253L44.4277 66.5882L45.4814 65.7407L46.4538 64.8196L47.2865 63.9649L48.1047 63.0885C48.4727 62.7308 48.7986 62.333 49.0772 61.9023C49.6595 60.955 49.9206 59.8453 49.8209 58.7377C49.7212 57.6305 49.2668 56.5846 48.5246 55.7571C48.1705 55.3614 47.7552 55.0252 47.2942 54.7621C46.7781 54.4747 46.5571 54.3935 46.1963 54.2239L42.4015 52.4996L38.8427 50.8934L37.9952 50.5105L37.5753 50.3265L37.3692 50.2309L37.0967 50.1204L37.0962 50.1199C36.3813 49.83 35.6119 49.6989 34.8414 49.7369C34.1064 49.7786 33.3883 49.9744 32.734 50.3116C32.422 50.4719 32.1285 50.6647 31.8571 50.8862C31.612 51.0872 31.3827 51.3061 31.1715 51.542L29.1598 53.7527H29.1603C29.0966 53.8298 29.0467 53.9172 29.0128 54.0107C28.9568 53.9521 28.892 53.9023 28.8211 53.8632C24.8624 51.9189 21.4809 48.9722 19.0138 45.3157C18.2804 44.2322 17.6395 43.0886 17.0982 41.8968C16.9877 41.6686 16.8921 41.4326 16.7888 41.1597L17.8203 40.1652L18.6314 39.421ZM16.9147 36.4739L16.9142 36.4734C16.8479 36.5659 16.7769 36.6543 16.7009 36.7386L16.3252 37.1364L15.5362 37.947L13.9886 39.5532L13.893 39.6488L13.8488 39.7002C13.6869 40.4372 14.1803 38.0277 13.473 41.4169L13.5907 41.6821L13.8267 42.2125C13.9814 42.5661 14.151 42.9054 14.3278 43.2441V43.2451C14.9939 44.5557 15.7731 45.8058 16.6566 46.9808C19.5441 50.8931 23.4812 53.9081 28.0109 55.6758C28.2474 55.7626 28.509 55.7508 28.7362 55.6423C28.9639 55.5344 29.1381 55.3391 29.2193 55.1011C29.2193 55.1011 29.2193 55.1453 29.2707 55.1674H29.2712C29.6428 55.4984 30.2036 55.4984 30.5752 55.1674L32.7859 53.1557C32.9385 53.0067 33.1035 52.871 33.2798 52.7502C33.4386 52.6392 33.6087 52.5451 33.7881 52.4706C34.1536 52.3143 34.5473 52.2367 34.9451 52.2419C35.3506 52.246 35.7505 52.3395 36.1165 52.5148L37.7005 53.3253L41.1709 55.1084L44.8551 57.0019C45.5922 57.3848 45.8718 57.503 46.1298 57.8418L46.1303 57.8423C46.3878 58.1578 46.5374 58.5475 46.5574 58.9545C46.5837 59.3616 46.4752 59.7656 46.248 60.1043C45.8188 60.6044 45.3614 61.0793 44.8772 61.5265L44.0225 62.352L43.2268 63.089L42.3721 63.7367L41.4731 64.2897C38.8785 65.805 35.8543 66.4165 32.8742 66.0285C31.3312 65.8306 29.835 65.3644 28.4529 64.6505C27.6423 64.2527 26.876 63.8471 26.1168 63.4421C25.3577 63.0371 24.6433 62.5874 23.862 62.1453H23.8625C17.7748 58.3994 12.5971 53.3449 8.70589 47.3493C7.73293 45.8377 6.8401 44.2757 6.03115 42.6705L5.40461 41.4179C5.2499 41.0422 5.05819 40.6809 4.91839 40.3051C4.62593 39.5414 4.40647 38.7519 4.26255 37.947C3.6653 34.767 4.24404 31.478 5.89136 28.6922C6.09747 28.3607 6.31848 28.0292 6.54001 27.7049C6.76102 27.3806 7.01184 27.0712 7.27706 26.7838C7.76329 26.2313 8.42633 25.5683 9.05285 24.9345L9.52468 24.4555L9.7606 24.2196L9.88601 24.109H9.88498C10.0346 23.9728 10.2098 23.8675 10.4005 23.7996C10.7917 23.6624 11.2198 23.6752 11.6017 23.8366C11.7883 23.9142 11.9584 24.0268 12.1028 24.1681C12.1768 24.2375 12.2436 24.3136 12.3017 24.3964C12.3331 24.438 12.3598 24.4827 12.3829 24.5295C12.422 24.5901 12.4564 24.6544 12.4857 24.7207L13.6206 27.012L15.8313 31.4919L16.9219 33.7025L17.0545 33.9749L17.1357 34.1445L17.1352 34.1451C17.1799 34.2504 17.2164 34.3589 17.2457 34.4694C17.3059 34.6924 17.3331 34.9232 17.3269 35.1545C17.3218 35.6243 17.181 36.0822 16.9219 36.4733L16.9147 36.4739Z" fill="#034EA2"/>
<path d="M54.6197 1.63605C54.6151 1.16628 54.2609 0.774105 53.7943 0.722198C50.3532 0.552579 46.0573 0.405592 41.1206 0.272974L37.2966 0.177374L35.2998 0.133171C34.6147 0.133171 33.9881 0.0889684 33.0891 0.133171V0.132657C29.5956 0.385025 26.4557 2.3566 24.7112 5.39371C23.7963 7.00713 23.3116 8.82911 23.304 10.6841L23.2526 15.422L23.1714 25.2441V26.6077V26.6071C23.2022 27.1196 23.2685 27.6294 23.3703 28.1327C23.5903 29.1452 23.9444 30.1244 24.424 31.0433C25.4134 32.9075 26.924 34.4433 28.7712 35.4641C29.7 35.9611 30.6915 36.3302 31.7183 36.562C32.2364 36.6674 32.7606 36.7362 33.288 36.7686H34.0251H38.2105H38.21C38.394 37.9718 38.3513 39.1987 38.0851 40.3865C38.0141 40.7879 37.916 41.1847 37.79 41.5728L37.6723 41.8601L37.5911 42.0662C37.5207 42.2379 37.4667 42.4152 37.4292 42.5966C37.2689 43.3558 37.4061 44.1467 37.8121 44.8073C38.1997 45.4467 38.8077 45.9226 39.5216 46.1452C40.235 46.3677 41.006 46.322 41.6881 46.0156C42.1964 45.7797 42.6975 45.5366 43.1616 45.2786V45.2791C45.1487 44.2234 46.9389 42.8325 48.452 41.1673C49.2034 40.3197 49.8675 39.3991 50.4344 38.419C50.7469 37.8592 51.0249 37.281 51.267 36.6874H54.4429C54.7375 36.6874 55.18 36.6874 55.4966 36.636C56.2151 36.5702 56.9259 36.4345 57.6183 36.2305C60.3321 35.4184 62.6137 33.5634 63.9629 31.0727C64.6013 29.8813 65.0042 28.5778 65.1492 27.2338C65.2216 26.0732 65.234 24.9101 65.1857 23.7485L65.0752 17.5001L64.9498 11.6936V11.0008V10.2637C64.9498 9.98361 64.9498 9.74049 64.8835 9.48247L64.7508 8.74542L64.7514 8.74645C64.5432 7.76988 64.1932 6.82882 63.7121 5.95342C62.8378 4.36316 61.5462 3.04066 59.9764 2.12947C58.6304 1.34051 57.1135 0.887698 55.5551 0.810659C55.2884 0.809117 55.0329 0.921678 54.8541 1.12008C54.6757 1.31847 54.5899 1.5842 54.6197 1.84942C54.6104 2.30687 54.9147 2.71137 55.3562 2.82958C56.5451 2.97915 57.684 3.39753 58.6868 4.05286C60.4374 5.24683 61.6118 7.11562 61.929 9.21062L61.9953 9.76315V10.3306V10.9643V11.6572L61.8699 17.4636L61.7594 23.712C61.7594 24.7585 61.7594 25.9812 61.6489 26.7626V26.762C61.4633 28.122 60.8841 29.3982 59.9815 30.4324C59.0795 31.4671 57.8943 32.2149 56.5723 32.5835C56.1215 32.7053 55.66 32.7845 55.1943 32.8194H54.4572H49.9255H49.926C49.5118 32.8163 49.1078 32.9464 48.7737 33.1905C48.4391 33.4347 48.1924 33.7795 48.069 34.1748C47.0148 37.1929 44.8916 39.7197 42.1007 41.2779C42.6162 38.9403 42.5376 36.5112 41.872 34.2118C41.7517 33.7867 41.4958 33.413 41.1432 33.1468C40.7911 32.8811 40.3609 32.7376 39.9194 32.7382H34.1057H33.5825C33.2515 32.7212 32.9215 32.6816 32.5951 32.6199C31.9475 32.4745 31.3209 32.2468 30.7309 31.9425C29.56 31.3093 28.5958 30.3523 27.9534 29.1866C27.6486 28.6063 27.4183 27.9901 27.2677 27.3517C27.2014 27.031 27.1572 26.7062 27.1351 26.3793V25.2588L27.0539 15.4367L26.9362 10.6845C26.8766 8.87013 27.5073 7.10052 28.7012 5.73328C29.8947 4.36552 31.5631 3.50157 33.3693 3.31605C33.8853 3.26465 34.6218 3.25694 35.2849 3.24255L37.2818 3.19835L41.1057 3.10275C46.0425 2.97734 50.3383 2.82263 53.7794 2.65352V2.65301C54.2872 2.59493 54.6583 2.14571 54.6197 1.63635L54.6197 1.63605Z" fill="#034EA2"/>
<path d="M46.2631 18.6566C46.2631 19.7431 45.3822 20.6236 44.2956 20.6236C43.2091 20.6236 42.3281 19.7431 42.3281 18.6566C42.3281 17.57 43.2091 16.6891 44.2956 16.6891C45.3822 16.6891 46.2631 17.57 46.2631 18.6566Z" fill="#034EA2"/>
<path d="M38.4301 18.6566C38.4301 19.7431 37.5496 20.6236 36.4631 20.6236C35.3766 20.6236 34.4956 19.7431 34.4956 18.6566C34.4956 17.57 35.3766 16.6891 36.4631 16.6891C37.5497 16.6891 38.4301 17.57 38.4301 18.6566Z" fill="#034EA2"/>
<path d="M54.0957 18.6566C54.0957 19.7431 53.2147 20.6236 52.1281 20.6236C51.0416 20.6236 50.1606 19.7431 50.1606 18.6566C50.1606 17.57 51.0416 16.6891 52.1281 16.6891C53.2147 16.6891 54.0957 17.57 54.0957 18.6566Z" fill="#034EA2"/>
</g>
<defs>
<clipPath id="clip0_122_165">
<rect width="65.2632" height="70" fill="white"/>
</clipPath>
</defs>
</svg>
