<svg width="17" height="16" viewBox="0 0 17 16" fill="none" xmlns="http://www.w3.org/2000/svg">
<path fill-rule="evenodd" clip-rule="evenodd" d="M2.85723 0.0467065C1.92999 0.246513 1.22009 0.959195 1.03138 1.87968C0.987405 2.09424 0.981998 2.76354 0.981998 7.99894C0.981998 14.4114 0.973341 14.0871 1.15658 14.5447C1.37161 15.0816 1.87783 15.5871 2.43537 15.8216C2.88064 16.0088 2.55469 15.9999 8.98299 15.9999C14.2354 15.9999 14.887 15.9947 15.102 15.9502C15.971 15.7707 16.6399 15.1439 16.913 14.2532C16.963 14.0904 16.9675 13.6498 16.9763 8.10833C16.9848 2.73216 16.9808 2.11399 16.9357 1.88881C16.7493 0.958788 16.0315 0.237855 15.1022 0.0473316C14.8874 0.0032949 14.2229 -0.00176822 8.96086 0.000419548C4.02622 0.00251356 3.02713 0.010077 2.85723 0.0467065ZM14.5598 2.04274C14.8867 2.20269 15.0606 2.49104 15.0606 2.87331C15.0606 3.13956 14.9957 3.31764 14.8298 3.50654C14.5756 3.79614 14.0886 3.88521 13.7279 3.7081C13.227 3.46213 13.0558 2.83999 13.3579 2.36365C13.6073 1.97048 14.128 1.83146 14.5598 2.04274ZM9.77996 3.88781C10.337 4.0017 10.8821 4.22872 11.3583 4.54526C11.4872 4.63096 11.7494 4.8559 11.9409 5.04514C12.574 5.67084 12.9357 6.34258 13.1295 7.25276C13.2071 7.61711 13.2071 8.44328 13.1295 8.80764C12.9384 9.70509 12.5796 10.3757 11.9547 11.0033C11.3386 11.6221 10.6595 11.9852 9.76043 12.1767C9.39754 12.254 8.57178 12.2542 8.20164 12.1771C7.33103 11.9958 6.63126 11.6206 6.00987 11.0019C5.39467 10.3894 5.01844 9.68728 4.83607 8.81154C4.75928 8.4429 4.75928 7.61749 4.83607 7.24885C5.01844 6.37312 5.39467 5.67103 6.00987 5.05852C6.7108 4.36058 7.55384 3.95216 8.54543 3.83008C8.76956 3.80252 9.5385 3.83846 9.77996 3.88781ZM8.48293 4.78304C7.75234 4.89512 6.96683 5.33736 6.48812 5.90609C5.55019 7.02032 5.44702 8.59242 6.23218 9.80595C6.68645 10.5081 7.36248 10.9882 8.23193 11.2261C8.57209 11.3191 9.39388 11.3191 9.73405 11.2261C10.3724 11.0514 10.8907 10.7587 11.3051 10.3389C12.5148 9.11314 12.5816 7.20197 11.4606 5.88705C11.0146 5.36383 10.4059 4.99901 9.68661 4.82352C9.44911 4.7656 8.7499 4.7421 8.48293 4.78304Z" />
</svg>
