<svg width="17" height="16" viewBox="0 0 17 16" fill="none" xmlns="http://www.w3.org/2000/svg">
<path fill-rule="evenodd" clip-rule="evenodd" d="M1.7897 0.0579651C1.42402 0.174974 1.15771 0.441902 1.04264 0.806744C0.980699 1.00307 0.97998 1.08692 0.97998 7.99935C0.97998 14.9118 0.980699 14.9956 1.04264 15.192C1.15924 15.5617 1.42583 15.8258 1.80005 15.9422C1.97822 15.9977 2.2649 16 8.98012 16C15.8931 16 15.9769 15.9993 16.1732 15.9373C16.543 15.8207 16.807 15.5542 16.9235 15.1799C16.979 15.0018 16.9813 14.7151 16.9813 7.99935C16.9813 1.28363 16.979 0.996947 16.9235 0.818776C16.807 0.444559 16.543 0.177975 16.1732 0.0613716C15.9768 -0.000570902 15.8955 -0.00125846 8.96953 0.000397921C2.32868 0.0019918 1.95534 0.00499204 1.7897 0.0579651ZM6.15227 3.48643C6.3737 3.56409 6.63903 3.83477 6.71635 4.06185C6.89708 4.59274 6.65081 5.15369 6.15571 5.33892C5.57229 5.55722 4.97677 5.37592 4.71297 4.8997C4.62827 4.74675 4.6209 4.7085 4.6209 4.42094C4.6209 4.15864 4.63196 4.08776 4.68972 3.97978C4.83667 3.70513 5.05287 3.53115 5.35311 3.44596C5.53722 3.39373 5.94719 3.41449 6.15227 3.48643ZM12.0903 6.17258C12.4071 6.25862 12.7557 6.46017 12.9809 6.6875C13.2218 6.93064 13.3658 7.16348 13.4869 7.50553C13.6606 7.99635 13.6685 8.1138 13.6685 10.1911V12.0934H12.6997H11.7308L11.7303 10.3824C11.7299 9.03175 11.7205 8.62753 11.6858 8.46364C11.6051 8.08342 11.4528 7.86397 11.1747 7.72765C10.9269 7.60617 10.5776 7.60382 10.3245 7.72189C10.0992 7.827 9.91158 8.01979 9.78566 8.27547L9.68381 8.48233L9.67374 10.2879L9.66368 12.0934H8.6971H7.73052V9.1557V6.21796H8.69935H9.66818L9.66918 6.63206L9.67015 7.04615L9.74934 6.9524C9.79291 6.90083 9.88351 6.79316 9.95073 6.71309C10.1773 6.44326 10.6289 6.1964 11.0283 6.12417C11.2494 6.0842 11.8686 6.11242 12.0903 6.17258ZM6.66028 9.16351L6.66825 12.0934H5.68364H4.69903V9.17654C4.69903 7.57223 4.70859 6.25006 4.72031 6.23834C4.732 6.22665 5.17151 6.22081 5.69695 6.22534L6.65231 6.23359L6.66028 9.16351Z" />
</svg>
