<svg width="17" height="16" viewBox="0 0 17 16" fill="none" xmlns="http://www.w3.org/2000/svg">
<path fill-rule="evenodd" clip-rule="evenodd" d="M2.76703 0.0238222C1.89374 0.170596 1.14388 0.93802 1.00771 1.82436C0.985145 1.97126 0.977444 3.97444 0.98336 8.14327L0.992062 14.2471L1.08018 14.4975C1.32615 15.1964 1.79567 15.6659 2.49454 15.9119L2.74496 16H8.98965H15.2343L15.4848 15.9116C16.2073 15.6566 16.7056 15.1367 16.9298 14.4036C16.9847 14.2241 16.9872 13.9405 16.9872 7.98676V1.75772L16.8991 1.5073C16.6532 0.808431 16.1836 0.338905 15.4848 0.0929364L15.2343 0.00482207L9.08356 0.000377227C5.61166 -0.00212691 2.86059 0.00807745 2.76703 0.0238222ZM11.4468 3.93375C11.7307 4.02337 11.9041 4.11245 12.1402 4.28996C12.2745 4.39094 12.3617 4.43402 12.4316 4.43402C12.5732 4.43402 12.9631 4.29889 13.3005 4.13283C13.6102 3.98045 13.6946 3.97047 13.7109 4.08434C13.7256 4.1883 13.5341 4.5709 13.3422 4.82062C13.1585 5.05974 13.1485 5.0552 13.5441 4.91171C13.8146 4.81358 13.9763 4.80231 13.9918 4.88057C14.0095 4.97021 13.7281 5.33234 13.3529 5.70258L13.0031 6.04774L12.9836 6.32861C12.9232 7.20265 12.8018 7.79789 12.5586 8.41203C11.8387 10.2307 10.4128 11.5136 8.59838 11.9753C8.04268 12.1167 7.77724 12.1472 7.0959 12.148C6.40523 12.1489 6.16066 12.1226 5.63589 11.9913C5.20734 11.884 4.83372 11.7476 4.42646 11.5496C4.06041 11.3715 3.95981 11.2811 3.99712 11.1636C4.02808 11.066 4.13726 11.0387 4.49579 11.0387C5.04482 11.0387 5.61573 10.9064 6.12554 10.661C6.4755 10.4926 6.63758 10.3891 6.57942 10.3712C6.5536 10.3633 6.43387 10.3263 6.31335 10.289C5.78874 10.1268 5.31358 9.72047 5.06291 9.21974C4.85088 8.79616 4.86944 8.74351 5.2202 8.77356L5.43691 8.79212L5.23914 8.67023C4.65821 8.3123 4.26212 7.66996 4.21063 7.00232C4.18503 6.67002 4.21492 6.6488 4.52625 6.77842C4.65458 6.83185 4.77556 6.87555 4.79513 6.87555C4.81469 6.87555 4.78232 6.8157 4.72316 6.74252C4.38245 6.32107 4.22963 5.89236 4.22772 5.35285C4.22656 5.01598 4.29446 4.70534 4.42858 4.43402C4.56631 4.15537 4.6039 4.15656 4.86318 4.44773C5.62221 5.30013 6.61908 5.90326 7.73633 6.18607C8.08848 6.27521 8.59243 6.34398 8.62968 6.30796C8.6469 6.29133 8.6627 6.14105 8.66483 5.97406C8.66956 5.60182 8.73179 5.34324 8.8985 5.00311C9.17292 4.44325 9.70846 4.03038 10.3513 3.88317C10.6245 3.8206 11.1679 3.8457 11.4468 3.93375Z" />
</svg>
