<svg width="18" height="16" viewBox="0 0 18 16" fill="none" xmlns="http://www.w3.org/2000/svg">
<path fill-rule="evenodd" clip-rule="evenodd" d="M7.15192 0.0171009C6.04618 0.0651018 4.76127 0.15935 3.95458 0.251626C3.13994 0.34481 2.57718 0.611398 2.06172 1.14833C1.79097 1.43036 1.67101 1.60361 1.51302 1.9408C1.3574 2.27286 1.28128 2.60399 1.22119 3.21049C0.96102 5.83599 0.916526 8.66475 1.09463 11.2576C1.19699 12.7475 1.26772 13.3546 1.38082 13.7132C1.52889 14.1829 1.71219 14.49 2.06172 14.8541C2.57693 15.3907 3.13894 15.6571 3.95458 15.7511C4.4712 15.8107 5.71111 15.9104 6.557 15.9604C7.44666 16.013 10.5224 16.0133 11.4103 15.9608C12.9278 15.8712 14.1382 15.7618 14.4933 15.6821C15.0375 15.56 15.4751 15.3104 15.9036 14.8774C16.4185 14.3572 16.6583 13.8381 16.7486 13.0479C17.0966 10.0062 17.0967 5.99727 16.7489 2.95646C16.6798 2.35221 16.5142 1.89086 16.2164 1.47269C16.0606 1.25392 15.6876 0.887224 15.4706 0.739495C15.2323 0.577237 14.8235 0.398635 14.5377 0.331909C14.1586 0.243391 13.0297 0.137776 11.4886 0.0466279C10.7456 0.00266613 7.92582 -0.016528 7.15192 0.0171009ZM10.3144 4.36959C11.2416 4.41305 12.1288 4.48614 12.428 4.54375C12.9712 4.64833 13.5009 5.01224 13.6941 5.4134C13.791 5.61468 13.872 6.04277 13.9527 6.78004C14.0125 7.32574 14.0029 8.78922 13.9359 9.35787C13.8508 10.0796 13.7752 10.4517 13.6769 10.6324C13.5483 10.8685 13.2413 11.1396 12.9364 11.2863C12.5597 11.4676 12.3526 11.5004 10.9093 11.6078C10.2152 11.6595 7.8291 11.6589 7.0893 11.6069C6.29025 11.5507 5.65271 11.4861 5.47208 11.4432C5.02391 11.3366 4.50658 10.9719 4.32178 10.6324C4.2243 10.4533 4.15313 10.1031 4.06389 9.36326C3.98452 8.70533 3.98452 7.29706 4.06389 6.63913C4.19246 5.57341 4.25931 5.36268 4.56369 5.06371C4.9276 4.70626 5.33058 4.54976 6.06612 4.48028C7.44099 4.3504 9.02409 4.30916 10.3144 4.36959ZM7.80947 8.0012V9.91475L7.92964 9.84255C8.62981 9.42169 10.9085 8.01319 10.9085 8.0012C10.9086 7.98914 8.57166 6.54441 7.92999 6.15984L7.80947 6.08764V8.0012Z" />
</svg>
