<svg width="32" height="32" viewBox="0 0 32 32" fill="none" xmlns="http://www.w3.org/2000/svg">
<circle cx="16" cy="16" r="16" fill="white"/>
<g clip-path="url(#clip0_229_938)">
<path d="M22.9818 6.3999H9.01821C7.57222 6.3999 6.40002 7.5721 6.40002 9.01808V22.9817C6.40002 24.4277 7.57222 25.5999 9.01821 25.5999H22.9818C24.4278 25.5999 25.6 24.4277 25.6 22.9817V9.01808C25.6 7.5721 24.4278 6.3999 22.9818 6.3999Z" fill="#0077B5"/>
<path d="M13.3164 11.6364C13.3164 11.96 13.2204 12.2764 13.0406 12.5455C12.8608 12.8146 12.6052 13.0243 12.3062 13.1482C12.0072 13.272 11.6782 13.3044 11.3608 13.2413C11.0433 13.1781 10.7518 13.0223 10.5229 12.7934C10.2941 12.5646 10.1382 12.273 10.0751 11.9556C10.0119 11.6382 10.0443 11.3092 10.1682 11.0102C10.2921 10.7111 10.5018 10.4556 10.7709 10.2758C11.04 10.096 11.3564 10 11.68 10C12.114 10 12.5302 10.1724 12.8371 10.4793C13.144 10.7862 13.3164 11.2024 13.3164 11.6364Z" fill="white"/>
<path d="M12.9451 14.3638V21.5933C12.9454 21.6466 12.9352 21.6995 12.9149 21.7488C12.8947 21.7982 12.865 21.8431 12.8274 21.8809C12.7897 21.9187 12.745 21.9487 12.6958 21.9692C12.6465 21.9897 12.5937 22.0002 12.5404 22.0002H10.8157C10.7623 22.0003 10.7095 21.9899 10.6602 21.9696C10.6109 21.9492 10.5661 21.9194 10.5284 21.8816C10.4907 21.8439 10.4608 21.7991 10.4405 21.7498C10.4201 21.7005 10.4097 21.6477 10.4099 21.5944V14.3638C10.4099 14.2562 10.4526 14.153 10.5287 14.0769C10.6048 14.0008 10.708 13.958 10.8157 13.958H12.5404C12.6478 13.9583 12.7508 14.0012 12.8266 14.0773C12.9025 14.1533 12.9451 14.2564 12.9451 14.3638Z" fill="white"/>
<path d="M21.9608 18.1273V21.627C21.9609 21.676 21.9514 21.7246 21.9327 21.7699C21.914 21.8153 21.8865 21.8564 21.8518 21.8911C21.8172 21.9258 21.776 21.9533 21.7307 21.972C21.6853 21.9907 21.6367 22.0002 21.5877 22.0001H19.7332C19.6841 22.0002 19.6355 21.9907 19.5902 21.972C19.5449 21.9533 19.5037 21.9258 19.469 21.8911C19.4344 21.8564 19.4069 21.8153 19.3882 21.7699C19.3695 21.7246 19.3599 21.676 19.3601 21.627V18.2353C19.3601 17.7292 19.5084 16.0186 18.0368 16.0186C16.8968 16.0186 16.6644 17.1892 16.6186 17.715V21.627C16.6186 21.725 16.5801 21.8191 16.5113 21.8889C16.4425 21.9587 16.349 21.9986 16.251 22.0001H14.4597C14.4108 22.0001 14.3623 21.9904 14.3171 21.9717C14.2719 21.9529 14.2308 21.9254 14.1963 21.8907C14.1617 21.8561 14.1343 21.8149 14.1157 21.7697C14.0971 21.7244 14.0876 21.6759 14.0877 21.627V14.3321C14.0876 14.2831 14.0971 14.2346 14.1157 14.1894C14.1343 14.1441 14.1617 14.103 14.1963 14.0683C14.2308 14.0337 14.2719 14.0062 14.3171 13.9874C14.3623 13.9686 14.4108 13.959 14.4597 13.959H16.251C16.3499 13.959 16.4448 13.9983 16.5148 14.0683C16.5848 14.1382 16.6241 14.2331 16.6241 14.3321V14.9626C17.0473 14.3277 17.6746 13.8379 19.0132 13.8379C21.9783 13.8379 21.9608 16.6066 21.9608 18.1273Z" fill="white"/>
</g>
<defs>
<clipPath id="clip0_229_938">
<rect width="19.2" height="19.2" fill="white" transform="translate(6.40002 6.3999)"/>
</clipPath>
</defs>
</svg>
