<svg width="32" height="32" viewBox="0 0 32 32" fill="none" xmlns="http://www.w3.org/2000/svg">
<circle cx="16" cy="16" r="16" fill="white"/>
<g clip-path="url(#clip0_229_933)">
<path d="M7.60038 7.70624C6.09158 9.27344 6.40038 10.9382 6.40038 15.9958C6.40038 20.1958 5.66758 24.4062 9.50278 25.3974C10.7004 25.7054 21.3116 25.7054 22.5076 25.3958C24.1044 24.9838 25.4036 23.6886 25.5812 21.4302C25.606 21.115 25.606 10.8822 25.5804 10.5606C25.3916 8.15504 23.9108 6.76864 21.9596 6.48784C21.5124 6.42304 21.4228 6.40384 19.1284 6.39984C10.99 6.40384 9.20598 6.04144 7.60038 7.70624Z" fill="url(#paint0_linear_229_933)"/>
<path d="M15.8924 8.80665C12.9876 8.80665 10.2292 8.54825 9.17562 11.2522C8.74042 12.369 8.80362 13.8194 8.80362 15.8962C8.80362 17.7186 8.74522 19.4314 9.17562 20.5394C10.2268 23.245 13.0076 22.9858 15.8908 22.9858C18.6724 22.9858 21.5404 23.2754 22.6068 20.5394C23.0428 19.4114 22.9788 17.9826 22.9788 15.8962C22.9788 13.1266 23.1316 11.3386 21.7884 9.99625C20.4284 8.63625 18.5892 8.80665 15.8892 8.80665H15.8924ZM15.2572 10.0842C21.3164 10.0746 22.0876 9.40105 21.662 18.7586C21.5108 22.0682 18.9908 21.705 15.8932 21.705C10.2452 21.705 10.0828 21.5434 10.0828 15.893C10.0828 10.177 10.5308 10.0874 15.2572 10.0826V10.0842ZM19.6764 11.261C19.2068 11.261 18.826 11.6418 18.826 12.1114C18.826 12.581 19.2068 12.9618 19.6764 12.9618C20.146 12.9618 20.5268 12.581 20.5268 12.1114C20.5268 11.6418 20.146 11.261 19.6764 11.261ZM15.8924 12.2554C13.882 12.2554 12.2524 13.8858 12.2524 15.8962C12.2524 17.9066 13.882 19.5362 15.8924 19.5362C17.9028 19.5362 19.5316 17.9066 19.5316 15.8962C19.5316 13.8858 17.9028 12.2554 15.8924 12.2554ZM15.8924 13.533C19.0164 13.533 19.0204 18.2594 15.8924 18.2594C12.7692 18.2594 12.7644 13.533 15.8924 13.533Z" fill="white"/>
</g>
<defs>
<linearGradient id="paint0_linear_229_933" x1="7.6372" y1="24.3735" x2="25.4816" y2="8.92942" gradientUnits="userSpaceOnUse">
<stop stop-color="#FFDD55"/>
<stop offset="0.5" stop-color="#FF543E"/>
<stop offset="1" stop-color="#C837AB"/>
</linearGradient>
<clipPath id="clip0_229_933">
<rect width="19.2" height="19.2" fill="white" transform="translate(6.40002 6.3999)"/>
</clipPath>
</defs>
</svg>
