<svg width="32" height="32" viewBox="0 0 32 32" fill="none" xmlns="http://www.w3.org/2000/svg">
<circle cx="16" cy="16" r="16" fill="white"/>
<g clip-path="url(#clip0_229_948)">
<path d="M22.9759 9.1591C21.1519 7.3959 18.7519 6.3999 16.1959 6.3999C8.85994 6.3999 4.25354 14.3479 7.91674 20.6703L6.55994 25.5999L11.6279 24.2783C13.8359 25.4711 15.6447 25.3655 16.2007 25.4359C24.7071 25.4359 28.9415 15.1447 22.9639 9.1903L22.9759 9.1591Z" fill="#ECEFF1"/>
<path d="M16.2135 23.8007L16.2087 23.7999H16.1959C13.6503 23.7999 12.0239 22.5943 11.8639 22.5247L8.86392 23.3047L9.66792 20.3887L9.47672 20.0887C8.68472 18.8279 8.26392 17.3759 8.26392 15.8807C8.26392 8.84632 16.8599 5.32873 21.8343 10.3007C26.7967 15.2207 23.3127 23.8007 16.2135 23.8007Z" fill="#4CAF50"/>
<path d="M20.5655 17.8454L20.5583 17.9054C20.3175 17.7854 19.1447 17.2118 18.9263 17.1326C18.4359 16.951 18.5743 17.1038 17.6327 18.1822C17.4927 18.3382 17.3535 18.3502 17.1159 18.2422C16.8759 18.1222 16.1055 17.8702 15.1935 17.0542C14.4831 16.4182 14.0063 15.6382 13.8655 15.3982C13.6311 14.9934 14.1215 14.9358 14.5679 14.091C14.6479 13.923 14.6071 13.791 14.5479 13.6718C14.4879 13.5518 14.0103 12.3758 13.8103 11.907C13.6183 11.4398 13.4207 11.499 13.2727 11.499C12.8119 11.459 12.4751 11.4654 12.1783 11.7742C10.8871 13.1934 11.2127 14.6574 12.3175 16.2142C14.4887 19.0558 15.6455 19.579 17.7607 20.3054C18.3319 20.487 18.8527 20.4614 19.2647 20.4022C19.7239 20.3294 20.6783 19.8254 20.8775 19.2614C21.0815 18.6974 21.0815 18.2294 21.0215 18.1214C20.9623 18.0134 20.8055 17.9534 20.5655 17.8454Z" fill="#FAFAFA"/>
</g>
<defs>
<clipPath id="clip0_229_948">
<rect width="19.2" height="19.2" fill="white" transform="translate(6.55994 6.3999)"/>
</clipPath>
</defs>
</svg>
