<svg width="59" height="50" viewBox="0 0 59 50" fill="none" xmlns="http://www.w3.org/2000/svg">
<path d="M58.4374 30.4312V20.3397C49.0864 20.3922 44.3436 17.989 42.9447 17.1256C41.5388 17.9891 36.8082 20.3922 27.4457 20.3397V30.4137C27.4457 30.4487 27.4225 32.4495 28.0117 35.1561V35.1679C28.2916 36.4281 28.7002 37.8396 29.3069 39.2804C31.8325 45.2305 36.418 48.8064 42.934 49.9033C49.4498 48.8006 54.0351 45.2309 56.5611 39.2804C58.4914 34.7537 58.4389 30.4719 58.4389 30.4312L58.4374 30.4312Z" fill="#064705"/>
<path d="M25.9686 30.4021V27.7304L9.74573 19.6921V30.4077C15.4334 33.027 21.027 34.4209 26.3822 34.5609C25.9448 32.1871 25.9684 30.5131 25.9684 30.402L25.9686 30.4021Z" fill="#064705"/>
<path d="M3.72074 15.1937C3.34721 15.2405 3.06726 15.5555 3.06726 15.9286V39.863C3.06726 40.2715 3.3997 40.604 3.80823 40.604C4.21676 40.604 4.5492 40.2715 4.5492 39.863V16.588L6.37493 16.378L3.9368 15.1703L3.72074 15.1937Z" fill="#064705"/>
<path d="M42.4948 15.6552C42.7629 15.4509 43.1307 15.4509 43.3932 15.6552C43.4107 15.667 44.2098 16.2562 45.9363 16.9268L53.3155 13.2752L26.704 0.098114L0.104004 13.27L3.93661 15.1657L26.6231 12.5347C27.0316 12.4879 27.3929 12.7796 27.4397 13.1821C27.4865 13.5845 27.1948 13.9519 26.7923 13.9987L6.37046 16.373L9.29286 17.8195C9.32216 17.8313 9.35105 17.8488 9.37465 17.8602L25.9705 26.0792L25.9701 19.5936C25.9701 19.3954 26.0519 19.2086 26.1918 19.0686C26.3318 18.9287 26.5243 18.8469 26.7229 18.8587C37.9166 19.0625 42.4489 15.6848 42.4958 15.656L42.4948 15.6552Z" fill="#064705"/>
</svg>
