<svg width="51" height="50" viewBox="0 0 51 50" fill="none" xmlns="http://www.w3.org/2000/svg">
<path fill-rule="evenodd" clip-rule="evenodd" d="M0.239854 0.239854L0 0.479611V14.8016V29.1236L0.239854 29.3633C0.557087 29.6807 1.00612 29.6807 1.32335 29.3633L1.56321 29.1236V15.3433V1.56321H16.4137H31.2641V13.1764C31.2641 24.7772 31.2643 24.7898 31.4666 25.0469C31.7526 25.4106 32.3388 25.4106 32.6248 25.0469C32.8272 24.7897 32.8273 24.7834 32.8273 12.6346V0.479611L32.5875 0.239854L32.3477 0H16.4137H0.479611L0.239854 0.239854ZM15.9874 2.49028C15.7799 2.56297 15.4825 2.7447 15.3264 2.89408C15.0712 3.13872 14.9727 3.16617 14.3361 3.17047C13.7886 3.17419 13.5689 3.21932 13.362 3.37066C13.0457 3.60182 12.701 4.25387 12.701 4.62074C12.701 4.82464 12.6191 4.92292 12.3226 5.07416C11.4495 5.51948 11.1682 6.23455 11.5262 7.09822L11.7453 7.62698L11.5393 8.106C11.2872 8.69191 11.2844 8.92024 11.5226 9.44489C11.6474 9.71981 11.8375 9.92645 12.1066 10.0799C12.3294 10.2069 12.4854 10.3612 12.4599 10.4293C12.4348 10.4963 11.9581 11.1998 11.4007 11.9925C10.8432 12.7853 10.3362 13.5298 10.274 13.6472C10.0968 13.9812 10.1394 14.2517 10.412 14.5243C10.6532 14.7655 10.6995 14.7739 11.5873 14.7351L12.5114 14.6946L12.7613 15.5138C12.8987 15.9643 13.0953 16.4171 13.198 16.5199C13.402 16.7239 13.7817 16.7627 14.0689 16.609C14.1695 16.5552 14.7253 15.8298 15.3042 14.9969C15.8831 14.1641 16.3824 13.4826 16.4137 13.4826C16.4449 13.4826 16.9442 14.1641 17.5231 14.9969C18.102 15.8298 18.6578 16.5552 18.7584 16.609C19.0474 16.7637 19.4257 16.7235 19.6333 16.5159C19.7382 16.4109 19.9359 15.9587 20.0724 15.511L20.3207 14.697L21.2827 14.7356C22.235 14.7739 22.2467 14.7716 22.4555 14.5061C22.6918 14.2057 22.7199 13.9625 22.5547 13.6472C22.4654 13.4768 21.5651 12.0609 20.5464 10.489C20.4205 10.2949 20.4366 10.2638 20.7686 10.0586C21.1463 9.82523 21.4898 9.22242 21.4898 8.79303C21.4898 8.65869 21.4009 8.35279 21.2922 8.11323L21.0947 7.67768L21.3056 7.11366C21.6456 6.20456 21.3763 5.5188 20.5048 5.07416C20.2002 4.91882 20.1263 4.82718 20.1263 4.6053C20.1263 4.18089 19.7246 3.51272 19.3422 3.3009C19.0767 3.15386 18.8709 3.1224 18.398 3.1568C17.8513 3.19646 17.7719 3.17751 17.5676 2.95885C17.1115 2.47045 16.5333 2.29899 15.9874 2.49028ZM16.7535 4.29657C17.1074 4.66607 17.5922 4.8264 18.1316 4.75253L18.5552 4.6944L18.621 5.05843C18.7238 5.62627 18.9248 5.93842 19.3718 6.22478C19.5987 6.37006 19.8032 6.50235 19.8262 6.51866C19.8493 6.53498 19.7944 6.70322 19.7041 6.89237C19.4988 7.32293 19.4942 7.90835 19.6924 8.38093C19.8335 8.71712 19.8322 8.75141 19.6758 8.84188C19.1492 9.14622 18.7718 9.60062 18.6606 10.064L18.5447 10.5468L17.9806 10.5389C17.3716 10.5303 17.1011 10.631 16.6823 11.0215L16.4137 11.2721L16.145 11.0215C15.7332 10.6374 15.4998 10.5516 14.8666 10.5516H14.2837L14.1673 10.0665C14.0556 9.60052 13.6793 9.1469 13.1515 8.84188C12.9951 8.75141 12.9939 8.71712 13.1349 8.38093C13.3331 7.90835 13.3285 7.32293 13.1232 6.89237C13.0329 6.70322 12.978 6.53498 13.0011 6.51866C13.0241 6.50235 13.2286 6.37006 13.4555 6.22478C13.9026 5.93842 14.1035 5.62627 14.2063 5.05843L14.2722 4.6944L14.6957 4.75253C15.2351 4.8264 15.7199 4.66607 16.0739 4.29657C16.2271 4.13663 16.38 4.00571 16.4137 4.00571C16.4473 4.00571 16.6002 4.13663 16.7535 4.29657ZM16.0408 5.68147C14.8937 5.88517 14.1488 7.04761 14.4578 8.15153C14.888 9.68757 16.7476 10.1749 17.8423 9.03836C19.2136 7.61467 17.9903 5.33522 16.0408 5.68147ZM16.7068 7.32752C16.8142 7.43499 16.9022 7.57441 16.9022 7.63733C16.9022 7.80733 16.6006 8.10913 16.4307 8.10913C16.2407 8.10913 15.9252 7.82521 15.9252 7.65433C15.9252 7.50143 16.2706 7.13212 16.4137 7.13212C16.4674 7.13212 16.5993 7.22005 16.7068 7.32752ZM13.6032 12.0294C13.7161 12.0898 14.0813 12.1334 14.4145 12.1262C15.3296 12.1063 15.3497 12.2082 14.6338 13.2371L14.0321 14.102L13.8621 13.7019C13.6667 13.2416 13.4432 13.0918 12.9517 13.0918C12.7602 13.0918 12.6033 13.0672 12.6033 13.0371C12.6033 12.9744 13.3201 11.9288 13.367 11.9232C13.3839 11.9211 13.4903 11.9689 13.6032 12.0294ZM19.9748 12.4812L20.3268 13.043L19.8602 13.0936C19.2642 13.1582 19.1682 13.2237 18.9635 13.7058L18.7952 14.102L18.1935 13.2371C17.4784 12.2095 17.4982 12.107 18.4067 12.132C18.7378 12.1411 19.0951 12.0984 19.201 12.037C19.5242 11.8496 19.6097 11.8986 19.9748 12.4812ZM5.91087 18.0897C5.41211 18.3625 5.32164 18.9108 5.71107 19.3002L5.95083 19.5401H17.2754C28.5841 19.5401 28.6002 19.5398 28.8573 19.3375C29.203 19.0656 29.211 18.5529 28.8748 18.2167L28.6351 17.9769L17.3706 17.9798C9.40581 17.9819 6.04902 18.0141 5.91087 18.0897ZM5.71107 22.1247C5.33092 22.5048 5.45451 23.1414 5.948 23.3452C6.12786 23.4196 9.5548 23.4433 17.4725 23.4251L28.7412 23.3992L28.9279 23.1686C29.1872 22.8484 29.1692 22.361 28.8886 22.0973L28.6624 21.8849H17.3066H5.95083L5.71107 22.1247ZM18.5142 26.5362C16.0961 27.2044 11.216 28.5436 7.66948 29.5123C4.12295 30.481 1.01247 31.341 0.757275 31.4233C0.0132873 31.6631 -0.208981 32.1832 0.219826 32.6806C0.418939 32.9115 0.904412 33.0454 5.37352 34.1016C8.08715 34.743 10.3388 35.2683 10.3772 35.2688C10.4157 35.2693 10.4597 37.5231 10.4749 40.277L10.5028 45.2841L10.7355 45.799C11.0868 46.5765 11.8283 47.1932 13.2282 47.8725C15.6712 49.058 18.2147 49.6535 22.0314 49.9335C23.7007 50.056 26.9625 50.0026 28.4796 49.828C31.8978 49.4348 34.7321 48.6201 36.6527 47.4788C37.6275 46.8996 38.1232 46.3823 38.3922 45.6632C38.5831 45.1528 38.5916 44.9237 38.5916 40.2586V35.387L41.3272 34.4702L44.0629 33.5535V34.4476V35.3415L43.6841 35.5922C43.4435 35.7514 43.2117 36.0306 43.049 36.3571C42.8284 36.7997 42.793 36.9946 42.7949 37.7559C42.7974 38.799 42.9652 39.2589 43.521 39.747C43.9917 40.1603 44.244 40.2525 44.9036 40.2525C45.5427 40.2525 46.0549 40.018 46.4848 39.5282C46.8608 39.1 46.9926 38.6418 46.9933 37.7605C46.9943 36.6311 46.6986 35.9748 45.9946 35.5438L45.6269 35.3187L45.651 34.1543L45.6749 32.9899L47.6138 32.3437C48.6928 31.9841 49.6568 31.6047 49.7876 31.4882C50.1467 31.1683 50.0722 30.5229 49.6499 30.2969C49.3849 30.1549 23.7264 25.3032 23.2922 25.3129C23.0824 25.3175 20.9323 25.868 18.5142 26.5362ZM5.9946 25.7921C5.72798 25.8997 5.47122 26.2637 5.47122 26.5342C5.47122 26.6493 5.56237 26.8594 5.67375 27.001L5.87619 27.2584H8.73421H11.5922L11.8047 27.0323C12.1921 26.6198 12.0353 26.0041 11.4899 25.7967C11.1653 25.6733 6.29913 25.6692 5.9946 25.7921ZM34.7037 28.997C40.8675 30.1675 45.9345 31.1492 45.9638 31.1784C45.9931 31.2077 41.763 32.6704 36.5636 34.4289C27.2701 37.5718 27.1024 37.6243 26.6552 37.5241C26.405 37.468 21.9429 36.4148 16.7395 35.1835C11.5361 33.9523 6.56497 32.7771 5.69261 32.5719C4.82024 32.3667 4.13878 32.1691 4.17825 32.1327C4.21772 32.0962 7.74519 31.1111 12.0171 29.9435C16.2891 28.7759 20.5317 27.611 21.4452 27.355C22.3587 27.0989 23.1941 26.8848 23.3015 26.8791C23.409 26.8734 28.54 27.8264 34.7037 28.997ZM0.426364 34.5048C0.0180746 34.7025 0 34.9012 0 39.1869V43.2901L0.239854 43.5299L0.479611 43.7697H4.44537H8.41112L8.65088 43.5299C8.96821 43.2127 8.96821 42.7636 8.65088 42.4464L8.41112 42.2065H4.98711H1.56321V38.6451C1.56321 36.243 1.52794 35.0061 1.45476 34.8455C1.34905 34.6137 0.989216 34.3838 0.752586 34.3972C0.687908 34.4008 0.541162 34.4492 0.426364 34.5048ZM19.5889 37.4657C23.5653 38.4065 26.9554 39.1767 27.1225 39.1771C27.2896 39.1774 29.569 38.4524 32.1879 37.5658C34.8067 36.6791 36.9672 35.9537 36.989 35.9537C37.0106 35.9537 37.0284 37.9783 37.0284 40.4528C37.0284 45.387 37.0436 45.2516 36.4327 45.7656C36.2626 45.9088 35.6784 46.2405 35.1347 46.5026C32.6377 47.7065 29.6499 48.3064 25.5486 48.4271C20.5947 48.5731 16.1832 47.7746 13.3961 46.2274C12.9343 45.971 12.4653 45.6267 12.3214 45.4384L12.066 45.1041L12.038 40.3747C12.0113 35.871 12.0183 35.6478 12.1845 35.7001C12.2805 35.7304 15.6125 36.5249 19.5889 37.4657ZM45.3085 37.0119C45.3773 37.0973 45.4307 37.4327 45.4307 37.7798C45.4307 38.266 45.3893 38.4376 45.2353 38.5916C44.995 38.8319 44.8311 38.8377 44.5573 38.6161C44.3695 38.4639 44.3495 38.3648 44.3756 37.7149C44.402 37.0566 44.4279 36.9731 44.6386 36.8684C44.9008 36.7381 45.1269 36.7865 45.3085 37.0119Z" fill="#6A32B1"/>
</svg>
