<svg width="90" height="90" viewBox="0 0 90 90" fill="none" xmlns="http://www.w3.org/2000/svg">
<rect width="90" height="90" rx="18.9474" fill="url(#paint0_linear_195_455)"/>
<path d="M80.5954 42.4877C69.1018 40.5478 60.0856 47.3777 57.0142 51.0351C54.5692 53.6418 51.6554 58.9036 59.5602 59.0976C69.4413 59.3401 80.5954 49.944 80.5954 42.4877Z" fill="#FAAC4E"/>
<path d="M11.8192 42.4877C23.3127 40.5478 32.3289 47.3777 35.4004 51.0351C37.8454 53.6418 40.7592 58.9036 32.8543 59.0976C22.9733 59.3401 11.8192 49.944 11.8192 42.4877Z" fill="#FAAC4E"/>
<path d="M68.5925 24.4231C59.9602 26.363 54.7711 32.9099 53.2556 35.9409L48.406 42.791L52.4069 52.4296C52.7908 54.9756 55.1712 58.4431 61.6212 51.9446C69.6836 43.8215 72.1084 35.1529 68.5925 24.4231Z" fill="#FFBE6F"/>
<path d="M23.8218 24.4231C32.4541 26.363 37.6432 32.9099 39.1587 35.9409L44.0083 42.791L40.0073 52.4296C39.6234 54.9756 37.2431 58.4431 30.7931 51.9446C22.7306 43.8215 20.3058 35.1529 23.8218 24.4231Z" fill="#FFBE6F"/>
<g filter="url(#filter0_n_195_455)">
<path d="M56.3968 58.8203C53.0021 59.4871 30.2695 58.8203 30.2695 58.8203C30.1887 58.6789 30.1483 58.3961 30.6333 58.3961C31.2395 58.3961 31.785 58.3961 34.5736 56.0319C35.8702 54.0645 37.1291 54.2477 37.7135 54.6525C37.4552 54.4357 36.8848 53.9179 35.9072 52.9403C33.0944 48.5271 35.301 44.2312 36.7559 42.6349C36.3315 42.4732 35.2283 41.7013 34.2098 39.907C33.5309 37.4822 34.7756 30.9352 35.4829 27.9648C34.9979 27.2778 34.416 25.5279 35.9678 24.0245C37.5197 22.5211 39.4838 20.165 40.2718 19.1748C42.4542 14.8103 42.9391 14.3486 44.4546 13.4159C47.2432 11.6997 54.2145 16.0226 52.0928 19.1748C50.3954 21.6966 51.363 23.7329 50.5004 23.9999C50.1011 24.1235 50.0004 23.9999 49.4255 24.5094C47.8736 26.4977 46.0712 25.742 45.3639 25.1156C44.8183 25.5399 44.4061 26.8857 47.1219 28.874C51.5472 30.5107 50.7591 33.178 49.6073 35.2997C56.9302 39.6644 54.558 45.7668 52.4565 48.2724C63.3681 51.9581 59.7915 58.1535 56.3968 58.8203Z" fill="white"/>
</g>
<path d="M39.605 31.1173L38.5745 38.5735L45.0608 45.0599C45.3033 45.3832 46.4308 45.9449 49.0011 45.6055C49.68 45.46 49.9216 46.9737 51.3047 47.909L52.4564 48.3334C51.0824 48.7173 47.2916 48.9274 43.121 46.6966C38.9503 44.4658 37.1398 43.0594 36.7559 42.6351" stroke="#FFE1C9" stroke-width="0.48496"/>
<path d="M39.5444 25.2373C40.2718 25.8839 41.9085 27.3832 42.636 28.2077C43.5453 29.2382 45.0002 30.3294 47.1219 28.8745" stroke="#FFE1C9" stroke-width="0.48496"/>
<path d="M35.4829 27.904C36.2507 27.1968 38.1623 25.6611 39.6657 25.1761C41.5449 24.5699 42.7573 23.0544 43.121 21.6602C43.4847 20.2659 44.394 19.5991 46.8188 19.9022C48.7587 20.1447 51.0218 18.71 51.9109 17.9623L52.4565 17.4167" stroke="#FFE1C9" stroke-width="0.48496"/>
<path d="M48.4554 21.8594C48.4554 21.6887 48.6038 21.556 48.7734 21.5748L49.2869 21.6319C49.4298 21.6477 49.532 21.7774 49.5142 21.92C49.4981 22.0489 49.3884 22.1457 49.2585 22.1457H48.7417C48.5836 22.1457 48.4554 22.0175 48.4554 21.8594Z" fill="#FFE1C9"/>
<path d="M32.0036 73.6882C32.1806 73.6882 32.2692 73.9145 32.2692 74.3671C32.2692 74.613 32.1659 74.9131 31.9593 75.2672C31.7527 75.6116 31.4821 75.9313 31.1477 76.2264C30.823 76.5117 30.459 76.7479 30.0556 76.9348C29.6523 77.1217 29.2587 77.2152 28.8751 77.2152C28.3536 77.2152 28.0044 76.7577 27.8273 75.8428C27.5715 76.2658 27.237 76.615 26.8238 76.8905C26.4106 77.1561 25.8548 77.289 25.1563 77.289C24.4676 77.289 23.9118 77.0725 23.4887 76.6396C23.0657 76.2068 22.8591 75.6804 22.8689 75.0606C22.8689 73.3882 23.4248 72.0699 24.5365 71.1057C25.0087 70.7024 25.4465 70.4367 25.8499 70.3089C26.2631 70.181 26.6959 70.117 27.1485 70.117C27.601 70.117 27.97 70.1957 28.2553 70.3531C28.393 70.0678 28.5504 69.9252 28.7275 69.9252C29.0718 69.9252 29.3965 70.0777 29.7015 70.3826C30.0163 70.6778 30.1737 70.9582 30.1737 71.2238C30.036 71.5484 29.8343 71.9371 29.5686 72.3896C29.4899 72.8422 29.4506 73.4767 29.4506 74.2933C29.4506 75.1098 29.5539 75.5181 29.7605 75.5181C30.0163 75.5181 30.6361 75.0065 31.6199 73.9834C31.797 73.7866 31.9249 73.6882 32.0036 73.6882ZM25.0382 74.5737C25.0382 75.3312 25.3186 75.7099 25.8794 75.7099C26.4795 75.7001 26.9763 75.3804 27.3698 74.7507C27.5076 74.5343 27.6207 74.2687 27.7093 73.9539C27.7093 72.852 27.8076 71.9075 28.0044 71.1205C27.2075 71.2779 26.5139 71.6616 25.9236 72.2715C25.3334 72.8815 25.0382 73.6489 25.0382 74.5737ZM39.6187 72.6847C39.6187 72.3601 39.4318 72.1978 39.0579 72.1978C38.8021 72.1978 38.5168 72.4486 38.202 72.9504C37.8872 73.4423 37.6609 73.9735 37.5232 74.5441V74.5737C37.5232 74.9081 37.5724 75.2525 37.6707 75.6066C37.779 75.9608 37.8331 76.2068 37.8331 76.3445C37.8331 76.679 37.415 77.0086 36.5787 77.3332C36.4508 77.3824 36.3377 77.407 36.2393 77.407C35.9934 77.407 35.8212 77.2791 35.7228 77.0233C35.6343 76.7675 35.59 76.4232 35.59 75.9903C35.59 75.5476 35.5998 75.1344 35.6195 74.7507C35.649 74.3572 35.6736 73.9981 35.6933 73.6735C35.7228 73.339 35.7474 73.0488 35.7671 72.8028C35.7966 72.547 35.8114 72.3404 35.8114 72.183C35.8114 71.8485 35.6589 71.6813 35.3539 71.6813C35.0489 71.6813 34.6947 72.0404 34.2914 72.7585C33.888 73.4669 33.6863 74.0326 33.6863 74.4556C33.6863 74.8688 33.7355 75.2525 33.8339 75.6066C33.9421 75.9608 33.9962 76.2068 33.9962 76.3445C33.9962 76.679 33.5781 77.0086 32.7419 77.3332C32.614 77.3824 32.5008 77.407 32.4025 77.407C32.1565 77.407 31.9843 77.2791 31.886 77.0233C31.7974 76.7675 31.7532 76.374 31.7532 75.8428C31.7532 74.4458 31.8073 73.4374 31.9155 72.8176C32.0631 71.9026 32.3975 71.0369 32.919 70.2203C33.096 69.9448 33.2879 69.8071 33.4945 69.8071C33.8191 69.8071 34.1192 70.0727 34.3947 70.604C34.4734 70.7417 34.5324 70.8696 34.5718 70.9877C35.044 70.3974 35.5998 70.1023 36.2393 70.1023C36.6623 70.1023 37.0411 70.2449 37.3756 70.5302C37.7101 70.8057 37.8773 71.1549 37.8773 71.578V71.7403C38.4775 70.9926 39.2104 70.6188 40.0761 70.6188C40.6074 70.6188 41.0108 70.7565 41.2862 71.032C41.5617 71.3074 41.6994 71.6468 41.6994 72.0502C41.6994 72.4536 41.6699 72.8176 41.6109 73.1422C41.5519 73.4669 41.483 73.7718 41.4043 74.0572C41.3354 74.3425 41.2715 74.5982 41.2124 74.8245C41.1534 75.041 41.1239 75.2131 41.1239 75.341C41.1239 75.4591 41.1633 75.5181 41.242 75.5181C41.3895 75.5181 41.5715 75.4246 41.788 75.2377C42.0044 75.0508 42.2208 74.8491 42.4373 74.6327C42.6537 74.4064 42.8505 74.1998 43.0276 74.0129C43.2145 73.826 43.3424 73.7325 43.4112 73.7325C43.549 73.7325 43.6178 73.8997 43.6178 74.2342C43.6178 74.9229 43.2686 75.5919 42.5701 76.2412C41.8814 76.8905 41.1436 77.2152 40.3565 77.2152C39.6482 77.2152 39.294 76.5708 39.294 75.282C39.294 74.9573 39.3481 74.5097 39.4564 73.9391C39.5646 73.3685 39.6187 72.9504 39.6187 72.6847ZM57.3944 73.6882C57.5616 73.6882 57.6453 73.9145 57.6453 74.3671C57.6453 74.613 57.542 74.9131 57.3354 75.2672C57.1288 75.6116 56.8582 75.9313 56.5237 76.2264C56.1991 76.5117 55.8351 76.7479 55.4317 76.9348C55.0283 77.1217 54.6004 77.2152 54.1478 77.2152C53.7051 77.2152 53.3559 77.0725 53.1001 76.7872C52.8541 76.4921 52.7312 76.1674 52.7312 75.8132C52.7312 75.4492 52.7902 75.041 52.9082 74.5884C53.0263 74.1359 53.1542 73.6636 53.2919 73.1717C53.6658 71.8633 53.8576 70.9434 53.8675 70.4122C53.8675 70.1859 53.8379 70.0137 53.7789 69.8957C53.7199 69.7678 53.6067 69.7038 53.4395 69.7038C53.1444 69.7038 52.8295 69.8809 52.495 70.2351C52.1605 70.5892 51.8457 71.0418 51.5506 71.5927C50.8718 72.852 50.5127 74.0817 50.4733 75.282C50.493 75.4197 50.5127 75.5575 50.5323 75.6952C50.552 75.8329 50.5619 75.9805 50.5619 76.1379C50.5619 76.4527 50.4045 76.7429 50.0896 77.0086C49.7847 77.2644 49.4403 77.3923 49.0566 77.3923C48.8304 77.3923 48.6631 77.284 48.5549 77.0676C48.4467 76.8413 48.3926 76.5659 48.3926 76.2412C48.3926 75.9165 48.4664 75.4738 48.6139 74.9131C48.7615 74.3523 48.9238 73.7571 49.1009 73.1275C49.5731 71.4648 49.8142 70.2252 49.824 69.4087C49.824 68.9955 49.7699 68.6708 49.6617 68.4347C49.5633 68.1986 49.3665 68.0805 49.0714 68.0805C48.5401 68.0805 48.0138 68.4593 47.4924 69.2168C46.971 69.9744 46.5037 71.15 46.0905 72.7438C45.9822 73.157 45.8986 73.5161 45.8396 73.821L45.8248 74.1014C46.0118 75.0065 46.1052 75.5968 46.1052 75.8723C46.1052 76.4429 45.9035 76.8266 45.5002 77.0233C45.3133 77.1119 45.1313 77.1955 44.9542 77.2742C44.7869 77.3529 44.6049 77.3923 44.4082 77.3923C43.9163 77.3923 43.6703 76.9249 43.6703 75.9903C43.6703 75.0459 43.931 73.2062 44.4524 70.4712C44.6394 69.4874 44.7328 68.9364 44.7328 68.8184C44.7328 68.0215 44.5311 67.6231 44.1278 67.6231C43.99 67.6231 43.8621 67.6624 43.7441 67.7411C43.6359 67.8198 43.5227 67.9034 43.4047 67.992C43.2965 68.0805 43.1833 68.1642 43.0653 68.2429C42.9472 68.3216 42.8095 68.3609 42.6521 68.3609C42.5045 68.3609 42.4307 68.2281 42.4307 67.9625C42.4307 67.4214 42.6816 66.9787 43.1833 66.6343C43.6654 66.2802 44.2508 66.1031 44.9394 66.1031C45.8248 66.1031 46.3463 66.5163 46.5037 67.3427C46.543 67.5886 46.5725 67.8493 46.5922 68.1248C47.3202 66.7573 48.2401 66.0736 49.3518 66.0736C50.5619 66.0736 51.2554 66.654 51.4325 67.8149C51.4916 68.1494 51.5162 68.5085 51.5063 68.8922V69.0102C52.1458 68.1248 52.9033 67.6821 53.7789 67.6821C55.0185 67.6821 55.6383 68.4298 55.6383 69.9252C55.6383 70.5745 55.535 71.3369 55.3284 72.2125C55.1316 73.0783 54.9841 73.703 54.8857 74.0867C54.7971 74.4605 54.7529 74.7507 54.7529 74.9573C54.7529 75.3312 54.8808 75.5181 55.1366 75.5181C55.4022 75.5181 56.0269 75.0065 57.0107 73.9834C57.1878 73.7866 57.3157 73.6882 57.3944 73.6882ZM68.244 73.6882C68.4112 73.6882 68.4948 73.9145 68.4948 74.3671C68.4948 74.613 68.3915 74.9131 68.1849 75.2672C67.9783 75.6116 67.7078 75.9313 67.3733 76.2264C67.0486 76.5117 66.6846 76.7479 66.2813 76.9348C65.8779 77.1217 65.4844 77.2152 65.1007 77.2152C64.5203 77.2152 64.1169 77.0725 63.8906 76.7872C63.6742 76.4921 63.566 76.0641 63.566 75.5033C63.566 74.9327 63.7873 73.9588 64.23 72.5814C62.8724 72.5224 61.8837 72.4929 61.2639 72.4929H61.0573C60.8802 73.5849 60.7916 74.7311 60.7916 75.9313C60.7916 76.4626 60.59 76.8266 60.1866 77.0233C59.9997 77.1119 59.8177 77.1955 59.6406 77.2742C59.4733 77.3529 59.2913 77.3923 59.0946 77.3923C58.6027 77.3923 58.3567 76.9495 58.3567 76.0641C58.3567 75.1787 58.5584 74.0424 58.9618 72.6552C58.5289 72.7044 58.1452 72.7536 57.8107 72.8028C57.486 72.852 57.2303 72.8766 57.0433 72.8766C56.8564 72.8766 56.763 72.8274 56.763 72.729C56.763 72.4339 57.004 72.1338 57.486 71.8288C57.978 71.5239 58.642 71.2927 59.4783 71.1353C60.403 68.784 61.5344 67.2148 62.8724 66.4277C63.3643 66.1326 63.8857 65.985 64.4366 65.985C65.4204 65.9949 66.1288 66.2605 66.5617 66.7819C67.0044 67.3033 67.2257 67.9969 67.2257 68.8627C67.2356 69.7186 66.9749 70.8352 66.4436 72.2125C66.2468 72.7438 66.0648 73.2258 65.8976 73.6587C65.7303 74.0916 65.6467 74.4408 65.6467 74.7065C65.6467 74.9721 65.6664 75.1738 65.7057 75.3115C65.7451 75.4492 65.8386 75.5181 65.9861 75.5181C66.2518 75.5181 66.8765 75.0065 67.8603 73.9834C68.0374 73.7866 68.1653 73.6882 68.244 73.6882ZM65.1007 69.2906C65.1007 68.4347 64.781 68.0067 64.1415 68.0067C63.4922 68.0067 62.9314 68.2822 62.4592 68.8331C61.9968 69.3742 61.6377 70.1023 61.3819 71.0172L64.7318 71.0615C64.9777 70.2744 65.1007 69.6841 65.1007 69.2906Z" fill="white"/>
<defs>
<filter id="filter0_n_195_455" x="30.2202" y="13.0262" width="29.5722" height="46.0904" filterUnits="userSpaceOnUse" color-interpolation-filters="sRGB">
<feFlood flood-opacity="0" result="BackgroundImageFix"/>
<feBlend mode="normal" in="SourceGraphic" in2="BackgroundImageFix" result="shape"/>
<feTurbulence type="fractalNoise" baseFrequency="4.7663531303405762 4.7663531303405762" stitchTiles="stitch" numOctaves="3" result="noise" seed="9155" />
<feComponentTransfer in="noise" result="coloredNoise1">
<feFuncR type="linear" slope="2" intercept="-0.5" />
<feFuncG type="linear" slope="2" intercept="-0.5" />
<feFuncB type="linear" slope="2" intercept="-0.5" />
<feFuncA type="discrete" tableValues="0 0 0 0 0 0 0 1 1 1 1 1 1 1 1 1 1 1 1 1 1 1 1 1 1 1 1 1 1 1 1 1 1 1 1 1 1 1 1 1 1 1 1 0 0 0 0 0 0 0 0 0 0 0 0 0 0 0 0 0 0 0 0 0 0 0 0 0 0 0 0 0 0 0 0 0 0 0 0 0 0 0 0 0 0 0 0 0 0 0 0 0 0 0 0 0 0 0 0 0 "/>
</feComponentTransfer>
<feComposite operator="in" in2="shape" in="coloredNoise1" result="noise1Clipped" />
<feComponentTransfer in="noise1Clipped" result="color1">
<feFuncA type="table" tableValues="0 0.11" />
</feComponentTransfer>
<feMerge result="effect1_noise_195_455">
<feMergeNode in="shape" />
<feMergeNode in="color1" />
</feMerge>
</filter>
<linearGradient id="paint0_linear_195_455" x1="45" y1="0" x2="45" y2="102" gradientUnits="userSpaceOnUse">
<stop stop-color="#E5720C"/>
<stop offset="1" stop-color="#FF5912"/>
</linearGradient>
</defs>
</svg>
