<svg width="32" height="32" viewBox="0 0 32 32" fill="none" xmlns="http://www.w3.org/2000/svg">
<circle cx="16" cy="16" r="16" fill="white"/>
<g clip-path="url(#clip0_229_958)">
<path d="M22.8525 6.3999H8.82717C7.3983 6.3999 6.23993 7.55823 6.23993 8.98714V23.0126C6.23993 24.4415 7.39826 25.5998 8.82717 25.5998H15.7444L15.7562 18.7388H13.9737C13.7421 18.7388 13.554 18.5515 13.5531 18.3198L13.5446 16.1083C13.5437 15.8753 13.7323 15.6861 13.9652 15.6861H15.7444V13.5491C15.7444 11.0692 17.259 9.71886 19.4713 9.71886H21.2866C21.5188 9.71886 21.7072 9.90715 21.7072 10.1395V12.0043C21.7072 12.2365 21.519 12.4247 21.2868 12.4249L20.1728 12.4254C18.9697 12.4254 18.7367 12.9971 18.7367 13.8361V15.6861H21.3803C21.6322 15.6861 21.8277 15.9061 21.798 16.1562L21.5358 18.3678C21.5108 18.5794 21.3313 18.7389 21.1182 18.7389H18.7485L18.7367 25.5999H22.8526C24.2815 25.5999 25.4398 24.4416 25.4398 23.0127V8.98714C25.4397 7.55823 24.2814 6.3999 22.8525 6.3999Z" fill="#475993"/>
</g>
<defs>
<clipPath id="clip0_229_958">
<rect width="19.2" height="19.2" fill="white" transform="translate(6.23987 6.3999)"/>
</clipPath>
</defs>
</svg>
