<svg width="40" height="40" viewBox="0 0 40 40" fill="none" xmlns="http://www.w3.org/2000/svg">
<path d="M0 10C0 4.47715 4.47715 0 10 0H30C35.5228 0 40 4.47715 40 10V30C40 35.5228 35.5228 40 30 40H10C4.47715 40 0 35.5228 0 30V10Z" fill="#FFEDD4"/>
<path d="M19.525 10.2949C19.5688 10.2064 19.6365 10.1318 19.7205 10.0797C19.8044 10.0276 19.9012 10 20 10C20.0988 10 20.1956 10.0276 20.2795 10.0797C20.3635 10.1318 20.4312 10.2064 20.475 10.2949L22.785 14.9739C22.9372 15.2819 23.1618 15.5483 23.4396 15.7503C23.7174 15.9524 24.0401 16.084 24.38 16.1339L29.546 16.8899C29.6439 16.9041 29.7358 16.9454 29.8115 17.0091C29.8871 17.0728 29.9434 17.1564 29.974 17.2505C30.0046 17.3446 30.0083 17.4453 29.9846 17.5413C29.9609 17.6374 29.9108 17.7248 29.84 17.7939L26.104 21.4319C25.8576 21.672 25.6733 21.9684 25.5668 22.2955C25.4604 22.6227 25.4351 22.9708 25.493 23.3099L26.375 28.4499C26.3923 28.5477 26.3817 28.6485 26.3445 28.7406C26.3073 28.8327 26.2449 28.9125 26.1645 28.9709C26.0842 29.0293 25.989 29.0639 25.8899 29.0708C25.7908 29.0777 25.6917 29.0566 25.604 29.0099L20.986 26.5819C20.6817 26.4221 20.3432 26.3386 19.9995 26.3386C19.6558 26.3386 19.3173 26.4221 19.013 26.5819L14.396 29.0099C14.3083 29.0563 14.2094 29.0772 14.1105 29.0701C14.0115 29.0631 13.9165 29.0285 13.8363 28.9701C13.7561 28.9118 13.6938 28.8321 13.6567 28.7401C13.6195 28.6482 13.6089 28.5476 13.626 28.4499L14.507 23.3109C14.5652 22.9716 14.54 22.6233 14.4335 22.2959C14.3271 21.9686 14.1426 21.672 13.896 21.4319L10.16 17.7949C10.0886 17.7259 10.038 17.6383 10.014 17.542C9.98993 17.4456 9.99344 17.3445 10.0241 17.2501C10.0547 17.1557 10.1113 17.0717 10.1873 17.0079C10.2633 16.944 10.3557 16.9028 10.454 16.8889L15.619 16.1339C15.9593 16.0844 16.2824 15.953 16.5606 15.7509C16.8388 15.5488 17.0637 15.2822 17.216 14.9739L19.525 10.2949Z" stroke="#F54900" stroke-width="2" stroke-linecap="round" stroke-linejoin="round"/>
</svg>
