<svg width="32" height="32" viewBox="0 0 32 32" fill="none" xmlns="http://www.w3.org/2000/svg">
<circle cx="16" cy="16" r="16" fill="white"/>
<g clip-path="url(#clip0_229_928)">
<path d="M25.9213 11.5325C25.6907 10.6757 25.0152 10.0003 24.1586 9.76962C22.5935 9.34131 16.3332 9.34131 16.3332 9.34131C16.3332 9.34131 10.073 9.34131 8.50789 9.75329C7.66775 9.98385 6.97577 10.6758 6.74521 11.5325C6.33337 13.0974 6.33337 16.3429 6.33337 16.3429C6.33337 16.3429 6.33337 19.6048 6.74521 21.1534C6.97592 22.01 7.65127 22.6855 8.50805 22.9162C10.0895 23.3445 16.3333 23.3445 16.3333 23.3445C16.3333 23.3445 22.5935 23.3445 24.1586 22.9326C25.0154 22.702 25.6907 22.0265 25.9215 21.1699C26.3333 19.6048 26.3333 16.3594 26.3333 16.3594C26.3333 16.3594 26.3498 13.0974 25.9213 11.5325Z" fill="#FF0000"/>
<path d="M14.3403 19.3412L19.5462 16.3428L14.3403 13.3445V19.3412Z" fill="white"/>
</g>
<defs>
<clipPath id="clip0_229_928">
<rect width="20" height="20" fill="white" transform="translate(6.3335 6.33325)"/>
</clipPath>
</defs>
</svg>
